M48
; DRILL file {KiCad (6.0.9-0)} date Sunday, 23 June 2024 at 22:54:28
; FORMAT={-:-/ absolute / inch / decimal}
; #@! TF.CreationDate,2024-06-23T22:54:28+01:00
; #@! TF.GenerationSoftware,Kicad,Pcbnew,(6.0.9-0)
; #@! TF.FileFunction,Plated,1,2,PTH
FMAT,2
INCH
; #@! TA.AperFunction,Plated,PTH,ViaDrill
T1C0.0157
; #@! TA.AperFunction,Plated,PTH,ComponentDrill
T2C0.0472
; #@! TA.AperFunction,Plated,PTH,ComponentDrill
T3C0.1575
%
G90
G05
T1
X2.004Y-3.24
X2.044Y-3.368
X2.262Y-3.756
X2.3Y-2.53
X2.3Y-2.57
X2.3Y-2.61
X2.32Y-4.74
X2.32Y-4.84
X2.32Y-4.94
X2.32Y-5.04
X2.33Y-2.08
X2.33Y-2.12
X2.33Y-2.16
X2.35Y-2.53
X2.35Y-2.57
X2.35Y-2.61
X2.37Y-4.99
X2.37Y-5.04
X2.38Y-2.08
X2.38Y-2.12
X2.38Y-2.16
X2.38Y-3.92
X2.42Y-3.96
X2.43Y-2.136
X2.48Y-2.14
X2.52Y-4.0
X2.58Y-2.53
X2.58Y-2.57
X2.58Y-2.61
X2.6Y-2.74
X2.6Y-2.87
X2.62Y-4.0
X2.63Y-2.53
X2.63Y-2.57
X2.63Y-2.61
X2.652Y-2.8
X2.66Y-2.1
X2.66Y-2.14
X2.66Y-2.18
X2.67Y-4.0
X2.71Y-2.1
X2.71Y-2.14
X2.71Y-2.18
X2.72Y-4.0
X2.72Y-4.27
X2.72Y-4.48
X2.76Y-4.86
X2.7696Y-4.2704
X2.77Y-4.0
X2.77Y-4.48
X2.81Y-4.86
X2.82Y-4.0
X2.82Y-4.61
X2.82Y-5.06
X2.86Y-4.28
X2.86Y-4.73
X2.87Y-4.0
X2.87Y-4.05
X2.87Y-4.11
X2.87Y-4.17
X2.87Y-4.23
X2.87Y-4.33
X2.9Y-4.08
X3.06Y-4.37
X3.1Y-4.37
X3.14Y-4.37
X3.18Y-4.37
X3.22Y-4.37
X3.26Y-4.37
X3.3Y-4.37
X3.55Y-3.18
X3.55Y-3.22
X3.55Y-3.26
X3.55Y-3.3
X3.55Y-3.34
X3.55Y-3.38
X3.55Y-3.42
X3.55Y-3.46
X3.55Y-3.5
X3.55Y-3.54
X3.55Y-3.58
X3.55Y-3.93
X3.55Y-3.98
X3.55Y-4.03
X3.59Y-3.18
X3.59Y-3.22
X3.59Y-3.26
X3.59Y-3.3
X3.59Y-3.34
X3.59Y-3.38
X3.59Y-3.42
X3.59Y-3.46
X3.59Y-3.5
X3.59Y-3.54
X3.61Y-3.93
X3.61Y-3.98
X3.61Y-4.03
X3.63Y-3.18
X3.63Y-3.22
X3.63Y-3.26
X3.63Y-3.3
X3.63Y-3.34
X3.63Y-3.38
X3.63Y-3.42
X3.63Y-3.46
X3.63Y-3.5
X3.67Y-3.18
X3.67Y-3.22
X3.67Y-3.26
X3.67Y-3.3
X3.67Y-3.34
X3.67Y-3.38
X3.67Y-3.42
X3.67Y-3.46
X3.68Y-3.75
X3.68Y-3.8
X3.68Y-3.85
X3.7Y-4.55
X3.73Y-3.75
X3.73Y-3.8
X3.73Y-3.85
X3.9Y-4.55
X3.926Y-3.648
X3.948Y-3.684
X3.974Y-3.65
X3.994Y-3.684
X4.004Y-3.374
X4.022Y-3.65
X4.026Y-3.338
X4.06Y-3.5
X4.08Y-3.66
X4.08Y-3.7
X4.08Y-3.74
X4.0818Y-3.4673
X4.12Y-3.5
X4.124Y-3.338
X4.156Y-3.374
X4.17Y-3.5
X4.22Y-3.47
X4.25Y-3.5
X4.27Y-3.66
X4.27Y-3.7
X4.27Y-3.74
X4.33Y-3.67
X4.35Y-3.57
X4.35Y-3.62
X4.4Y-3.62
X4.53Y-3.57
X4.53Y-3.62
X4.53Y-3.67
X4.53Y-3.72
X4.58Y-3.57
X4.58Y-3.62
X4.58Y-3.67
X4.58Y-3.72
X4.63Y-3.57
X4.63Y-3.62
X4.63Y-3.67
X4.63Y-3.72
X4.67Y-4.47
X4.68Y-3.57
X4.68Y-3.62
X4.68Y-3.67
X4.68Y-3.72
T2
X4.06Y-4.882
X4.16Y-4.882
X4.26Y-4.882
X4.36Y-4.882
X4.46Y-4.882
X4.56Y-4.882
T3
X3.35Y-3.4243
X3.35Y-4.94
X3.937Y-2.1654
X3.937Y-2.5591
X3.937Y-2.9528
X4.5276Y-2.1654
X4.5276Y-2.5591
X4.5276Y-2.9528
T0
M30
