G04 #@! TF.GenerationSoftware,KiCad,Pcbnew,(6.0.9-0)*
G04 #@! TF.CreationDate,2024-06-23T22:48:42+01:00*
G04 #@! TF.ProjectId,BalanceBoard,42616c61-6e63-4654-926f-6172642e6b69,rev?*
G04 #@! TF.SameCoordinates,Original*
G04 #@! TF.FileFunction,Legend,Top*
G04 #@! TF.FilePolarity,Positive*
%FSLAX46Y46*%
G04 Gerber Fmt 4.6, Leading zero omitted, Abs format (unit mm)*
G04 Created by KiCad (PCBNEW (6.0.9-0)) date 2024-06-23 22:48:42*
%MOMM*%
%LPD*%
G01*
G04 APERTURE LIST*
%ADD10C,0.150000*%
%ADD11C,0.500000*%
%ADD12C,0.300000*%
%ADD13C,0.120000*%
G04 APERTURE END LIST*
D10*
X106426190Y-109251714D02*
X109473809Y-109251714D01*
X106426190Y-104171714D02*
X109473809Y-104171714D01*
X107950000Y-105695523D02*
X107950000Y-102647904D01*
D11*
X103124000Y-122174000D02*
X103124000Y-119126000D01*
D12*
X101981142Y-116852000D02*
X101838285Y-116780571D01*
X101624000Y-116780571D01*
X101409714Y-116852000D01*
X101266857Y-116994857D01*
X101195428Y-117137714D01*
X101124000Y-117423428D01*
X101124000Y-117637714D01*
X101195428Y-117923428D01*
X101266857Y-118066285D01*
X101409714Y-118209142D01*
X101624000Y-118280571D01*
X101766857Y-118280571D01*
X101981142Y-118209142D01*
X102052571Y-118137714D01*
X102052571Y-117637714D01*
X101766857Y-117637714D01*
X102695428Y-118280571D02*
X102695428Y-116780571D01*
X103552571Y-118280571D01*
X103552571Y-116780571D01*
X104266857Y-118280571D02*
X104266857Y-116780571D01*
X104624000Y-116780571D01*
X104838285Y-116852000D01*
X104981142Y-116994857D01*
X105052571Y-117137714D01*
X105124000Y-117423428D01*
X105124000Y-117637714D01*
X105052571Y-117923428D01*
X104981142Y-118066285D01*
X104838285Y-118209142D01*
X104624000Y-118280571D01*
X104266857Y-118280571D01*
X96505428Y-127758000D02*
X97219714Y-127758000D01*
X96362571Y-128186571D02*
X96862571Y-126686571D01*
X97362571Y-128186571D01*
X97791142Y-128115142D02*
X97934000Y-128186571D01*
X98219714Y-128186571D01*
X98362571Y-128115142D01*
X98434000Y-127972285D01*
X98434000Y-127900857D01*
X98362571Y-127758000D01*
X98219714Y-127686571D01*
X98005428Y-127686571D01*
X97862571Y-127615142D01*
X97791142Y-127472285D01*
X97791142Y-127400857D01*
X97862571Y-127258000D01*
X98005428Y-127186571D01*
X98219714Y-127186571D01*
X98362571Y-127258000D01*
X99076857Y-128186571D02*
X99076857Y-126686571D01*
X99719714Y-128186571D02*
X99719714Y-127400857D01*
X99648285Y-127258000D01*
X99505428Y-127186571D01*
X99291142Y-127186571D01*
X99148285Y-127258000D01*
X99076857Y-127329428D01*
X100648285Y-128186571D02*
X100505428Y-128115142D01*
X100434000Y-127972285D01*
X100434000Y-126686571D01*
X101791142Y-128115142D02*
X101648285Y-128186571D01*
X101362571Y-128186571D01*
X101219714Y-128115142D01*
X101148285Y-127972285D01*
X101148285Y-127400857D01*
X101219714Y-127258000D01*
X101362571Y-127186571D01*
X101648285Y-127186571D01*
X101791142Y-127258000D01*
X101862571Y-127400857D01*
X101862571Y-127543714D01*
X101148285Y-127686571D01*
X102362571Y-127186571D02*
X102719714Y-128186571D01*
X103076857Y-127186571D02*
X102719714Y-128186571D01*
X102576857Y-128543714D01*
X102505428Y-128615142D01*
X102362571Y-128686571D01*
X105219714Y-126686571D02*
X105219714Y-127758000D01*
X105148285Y-127972285D01*
X105005428Y-128115142D01*
X104791142Y-128186571D01*
X104648285Y-128186571D01*
X105934000Y-128043714D02*
X106005428Y-128115142D01*
X105934000Y-128186571D01*
X105862571Y-128115142D01*
X105934000Y-128043714D01*
X105934000Y-128186571D01*
X108648285Y-128186571D02*
X108148285Y-127472285D01*
X107791142Y-128186571D02*
X107791142Y-126686571D01*
X108362571Y-126686571D01*
X108505428Y-126758000D01*
X108576857Y-126829428D01*
X108648285Y-126972285D01*
X108648285Y-127186571D01*
X108576857Y-127329428D01*
X108505428Y-127400857D01*
X108362571Y-127472285D01*
X107791142Y-127472285D01*
X109505428Y-128186571D02*
X109362571Y-128115142D01*
X109291142Y-128043714D01*
X109219714Y-127900857D01*
X109219714Y-127472285D01*
X109291142Y-127329428D01*
X109362571Y-127258000D01*
X109505428Y-127186571D01*
X109719714Y-127186571D01*
X109862571Y-127258000D01*
X109934000Y-127329428D01*
X110005428Y-127472285D01*
X110005428Y-127900857D01*
X109934000Y-128043714D01*
X109862571Y-128115142D01*
X109719714Y-128186571D01*
X109505428Y-128186571D01*
X110648285Y-128186571D02*
X110648285Y-126686571D01*
X110648285Y-127258000D02*
X110791142Y-127186571D01*
X111076857Y-127186571D01*
X111219714Y-127258000D01*
X111291142Y-127329428D01*
X111362571Y-127472285D01*
X111362571Y-127900857D01*
X111291142Y-128043714D01*
X111219714Y-128115142D01*
X111076857Y-128186571D01*
X110791142Y-128186571D01*
X110648285Y-128115142D01*
X112005428Y-128186571D02*
X112005428Y-127186571D01*
X112005428Y-126686571D02*
X111934000Y-126758000D01*
X112005428Y-126829428D01*
X112076857Y-126758000D01*
X112005428Y-126686571D01*
X112005428Y-126829428D01*
X112719714Y-127186571D02*
X112719714Y-128186571D01*
X112719714Y-127329428D02*
X112791142Y-127258000D01*
X112934000Y-127186571D01*
X113148285Y-127186571D01*
X113291142Y-127258000D01*
X113362571Y-127400857D01*
X113362571Y-128186571D01*
X114005428Y-128115142D02*
X114148285Y-128186571D01*
X114434000Y-128186571D01*
X114576857Y-128115142D01*
X114648285Y-127972285D01*
X114648285Y-127900857D01*
X114576857Y-127758000D01*
X114434000Y-127686571D01*
X114219714Y-127686571D01*
X114076857Y-127615142D01*
X114005428Y-127472285D01*
X114005428Y-127400857D01*
X114076857Y-127258000D01*
X114219714Y-127186571D01*
X114434000Y-127186571D01*
X114576857Y-127258000D01*
X115505428Y-128186571D02*
X115362571Y-128115142D01*
X115291142Y-128043714D01*
X115219714Y-127900857D01*
X115219714Y-127472285D01*
X115291142Y-127329428D01*
X115362571Y-127258000D01*
X115505428Y-127186571D01*
X115719714Y-127186571D01*
X115862571Y-127258000D01*
X115934000Y-127329428D01*
X116005428Y-127472285D01*
X116005428Y-127900857D01*
X115934000Y-128043714D01*
X115862571Y-128115142D01*
X115719714Y-128186571D01*
X115505428Y-128186571D01*
X116648285Y-127186571D02*
X116648285Y-128186571D01*
X116648285Y-127329428D02*
X116719714Y-127258000D01*
X116862571Y-127186571D01*
X117076857Y-127186571D01*
X117219714Y-127258000D01*
X117291142Y-127400857D01*
X117291142Y-128186571D01*
D13*
X83820000Y-91440000D02*
X86106000Y-91440000D01*
X86106000Y-91440000D02*
X86106000Y-120904000D01*
X86106000Y-120904000D02*
X83820000Y-120904000D01*
X83820000Y-120904000D02*
X83820000Y-91440000D01*
G36*
X83820000Y-91440000D02*
G01*
X86106000Y-91440000D01*
X86106000Y-120904000D01*
X83820000Y-120904000D01*
X83820000Y-91440000D01*
G37*
D10*
X107877942Y-115901742D02*
X107830323Y-115949361D01*
X107687466Y-115996980D01*
X107592228Y-115996980D01*
X107449371Y-115949361D01*
X107354133Y-115854123D01*
X107306514Y-115758885D01*
X107258895Y-115568409D01*
X107258895Y-115425552D01*
X107306514Y-115235076D01*
X107354133Y-115139838D01*
X107449371Y-115044600D01*
X107592228Y-114996980D01*
X107687466Y-114996980D01*
X107830323Y-115044600D01*
X107877942Y-115092219D01*
X108830323Y-115996980D02*
X108258895Y-115996980D01*
X108544609Y-115996980D02*
X108544609Y-114996980D01*
X108449371Y-115139838D01*
X108354133Y-115235076D01*
X108258895Y-115282695D01*
X109211276Y-115092219D02*
X109258895Y-115044600D01*
X109354133Y-114996980D01*
X109592228Y-114996980D01*
X109687466Y-115044600D01*
X109735085Y-115092219D01*
X109782704Y-115187457D01*
X109782704Y-115282695D01*
X109735085Y-115425552D01*
X109163657Y-115996980D01*
X109782704Y-115996980D01*
X87241142Y-101195142D02*
X87193523Y-101242761D01*
X87050666Y-101290380D01*
X86955428Y-101290380D01*
X86812571Y-101242761D01*
X86717333Y-101147523D01*
X86669714Y-101052285D01*
X86622095Y-100861809D01*
X86622095Y-100718952D01*
X86669714Y-100528476D01*
X86717333Y-100433238D01*
X86812571Y-100338000D01*
X86955428Y-100290380D01*
X87050666Y-100290380D01*
X87193523Y-100338000D01*
X87241142Y-100385619D01*
X88193523Y-101290380D02*
X87622095Y-101290380D01*
X87907809Y-101290380D02*
X87907809Y-100290380D01*
X87812571Y-100433238D01*
X87717333Y-100528476D01*
X87622095Y-100576095D01*
X89145904Y-101290380D02*
X88574476Y-101290380D01*
X88860190Y-101290380D02*
X88860190Y-100290380D01*
X88764952Y-100433238D01*
X88669714Y-100528476D01*
X88574476Y-100576095D01*
X100417333Y-96877142D02*
X100369714Y-96924761D01*
X100226857Y-96972380D01*
X100131619Y-96972380D01*
X99988761Y-96924761D01*
X99893523Y-96829523D01*
X99845904Y-96734285D01*
X99798285Y-96543809D01*
X99798285Y-96400952D01*
X99845904Y-96210476D01*
X99893523Y-96115238D01*
X99988761Y-96020000D01*
X100131619Y-95972380D01*
X100226857Y-95972380D01*
X100369714Y-96020000D01*
X100417333Y-96067619D01*
X101322095Y-95972380D02*
X100845904Y-95972380D01*
X100798285Y-96448571D01*
X100845904Y-96400952D01*
X100941142Y-96353333D01*
X101179238Y-96353333D01*
X101274476Y-96400952D01*
X101322095Y-96448571D01*
X101369714Y-96543809D01*
X101369714Y-96781904D01*
X101322095Y-96877142D01*
X101274476Y-96924761D01*
X101179238Y-96972380D01*
X100941142Y-96972380D01*
X100845904Y-96924761D01*
X100798285Y-96877142D01*
X111204218Y-82620380D02*
X111204218Y-83429904D01*
X111251837Y-83525142D01*
X111299456Y-83572761D01*
X111394694Y-83620380D01*
X111585170Y-83620380D01*
X111680408Y-83572761D01*
X111728027Y-83525142D01*
X111775646Y-83429904D01*
X111775646Y-82620380D01*
X112156599Y-82620380D02*
X112823265Y-82620380D01*
X112394694Y-83620380D01*
X53273533Y-82748380D02*
X52940200Y-82272190D01*
X52702104Y-82748380D02*
X52702104Y-81748380D01*
X53083057Y-81748380D01*
X53178295Y-81796000D01*
X53225914Y-81843619D01*
X53273533Y-81938857D01*
X53273533Y-82081714D01*
X53225914Y-82176952D01*
X53178295Y-82224571D01*
X53083057Y-82272190D01*
X52702104Y-82272190D01*
X54130676Y-82081714D02*
X54130676Y-82748380D01*
X53892580Y-81700761D02*
X53654485Y-82415047D01*
X54273533Y-82415047D01*
X57491333Y-62841142D02*
X57443714Y-62888761D01*
X57300857Y-62936380D01*
X57205619Y-62936380D01*
X57062761Y-62888761D01*
X56967523Y-62793523D01*
X56919904Y-62698285D01*
X56872285Y-62507809D01*
X56872285Y-62364952D01*
X56919904Y-62174476D01*
X56967523Y-62079238D01*
X57062761Y-61984000D01*
X57205619Y-61936380D01*
X57300857Y-61936380D01*
X57443714Y-61984000D01*
X57491333Y-62031619D01*
X57967523Y-62936380D02*
X58158000Y-62936380D01*
X58253238Y-62888761D01*
X58300857Y-62841142D01*
X58396095Y-62698285D01*
X58443714Y-62507809D01*
X58443714Y-62126857D01*
X58396095Y-62031619D01*
X58348476Y-61984000D01*
X58253238Y-61936380D01*
X58062761Y-61936380D01*
X57967523Y-61984000D01*
X57919904Y-62031619D01*
X57872285Y-62126857D01*
X57872285Y-62364952D01*
X57919904Y-62460190D01*
X57967523Y-62507809D01*
X58062761Y-62555428D01*
X58253238Y-62555428D01*
X58348476Y-62507809D01*
X58396095Y-62460190D01*
X58443714Y-62364952D01*
X94607142Y-90019142D02*
X94559523Y-90066761D01*
X94416666Y-90114380D01*
X94321428Y-90114380D01*
X94178571Y-90066761D01*
X94083333Y-89971523D01*
X94035714Y-89876285D01*
X93988095Y-89685809D01*
X93988095Y-89542952D01*
X94035714Y-89352476D01*
X94083333Y-89257238D01*
X94178571Y-89162000D01*
X94321428Y-89114380D01*
X94416666Y-89114380D01*
X94559523Y-89162000D01*
X94607142Y-89209619D01*
X94988095Y-89209619D02*
X95035714Y-89162000D01*
X95130952Y-89114380D01*
X95369047Y-89114380D01*
X95464285Y-89162000D01*
X95511904Y-89209619D01*
X95559523Y-89304857D01*
X95559523Y-89400095D01*
X95511904Y-89542952D01*
X94940476Y-90114380D01*
X95559523Y-90114380D01*
X96178571Y-89114380D02*
X96273809Y-89114380D01*
X96369047Y-89162000D01*
X96416666Y-89209619D01*
X96464285Y-89304857D01*
X96511904Y-89495333D01*
X96511904Y-89733428D01*
X96464285Y-89923904D01*
X96416666Y-90019142D01*
X96369047Y-90066761D01*
X96273809Y-90114380D01*
X96178571Y-90114380D01*
X96083333Y-90066761D01*
X96035714Y-90019142D01*
X95988095Y-89923904D01*
X95940476Y-89733428D01*
X95940476Y-89495333D01*
X95988095Y-89304857D01*
X96035714Y-89209619D01*
X96083333Y-89162000D01*
X96178571Y-89114380D01*
X108069142Y-93321142D02*
X108021523Y-93368761D01*
X107878666Y-93416380D01*
X107783428Y-93416380D01*
X107640571Y-93368761D01*
X107545333Y-93273523D01*
X107497714Y-93178285D01*
X107450095Y-92987809D01*
X107450095Y-92844952D01*
X107497714Y-92654476D01*
X107545333Y-92559238D01*
X107640571Y-92464000D01*
X107783428Y-92416380D01*
X107878666Y-92416380D01*
X108021523Y-92464000D01*
X108069142Y-92511619D01*
X109021523Y-93416380D02*
X108450095Y-93416380D01*
X108735809Y-93416380D02*
X108735809Y-92416380D01*
X108640571Y-92559238D01*
X108545333Y-92654476D01*
X108450095Y-92702095D01*
X109926285Y-92416380D02*
X109450095Y-92416380D01*
X109402476Y-92892571D01*
X109450095Y-92844952D01*
X109545333Y-92797333D01*
X109783428Y-92797333D01*
X109878666Y-92844952D01*
X109926285Y-92892571D01*
X109973904Y-92987809D01*
X109973904Y-93225904D01*
X109926285Y-93321142D01*
X109878666Y-93368761D01*
X109783428Y-93416380D01*
X109545333Y-93416380D01*
X109450095Y-93368761D01*
X109402476Y-93321142D01*
X54271942Y-119483142D02*
X54224323Y-119530761D01*
X54081466Y-119578380D01*
X53986228Y-119578380D01*
X53843371Y-119530761D01*
X53748133Y-119435523D01*
X53700514Y-119340285D01*
X53652895Y-119149809D01*
X53652895Y-119006952D01*
X53700514Y-118816476D01*
X53748133Y-118721238D01*
X53843371Y-118626000D01*
X53986228Y-118578380D01*
X54081466Y-118578380D01*
X54224323Y-118626000D01*
X54271942Y-118673619D01*
X55224323Y-119578380D02*
X54652895Y-119578380D01*
X54938609Y-119578380D02*
X54938609Y-118578380D01*
X54843371Y-118721238D01*
X54748133Y-118816476D01*
X54652895Y-118864095D01*
X55557657Y-118578380D02*
X56224323Y-118578380D01*
X55795752Y-119578380D01*
X93305333Y-100839542D02*
X93257714Y-100887161D01*
X93114857Y-100934780D01*
X93019619Y-100934780D01*
X92876761Y-100887161D01*
X92781523Y-100791923D01*
X92733904Y-100696685D01*
X92686285Y-100506209D01*
X92686285Y-100363352D01*
X92733904Y-100172876D01*
X92781523Y-100077638D01*
X92876761Y-99982400D01*
X93019619Y-99934780D01*
X93114857Y-99934780D01*
X93257714Y-99982400D01*
X93305333Y-100030019D01*
X93686285Y-100030019D02*
X93733904Y-99982400D01*
X93829142Y-99934780D01*
X94067238Y-99934780D01*
X94162476Y-99982400D01*
X94210095Y-100030019D01*
X94257714Y-100125257D01*
X94257714Y-100220495D01*
X94210095Y-100363352D01*
X93638666Y-100934780D01*
X94257714Y-100934780D01*
X98385333Y-115717580D02*
X98052000Y-115241390D01*
X97813904Y-115717580D02*
X97813904Y-114717580D01*
X98194857Y-114717580D01*
X98290095Y-114765200D01*
X98337714Y-114812819D01*
X98385333Y-114908057D01*
X98385333Y-115050914D01*
X98337714Y-115146152D01*
X98290095Y-115193771D01*
X98194857Y-115241390D01*
X97813904Y-115241390D01*
X99242476Y-114717580D02*
X99052000Y-114717580D01*
X98956761Y-114765200D01*
X98909142Y-114812819D01*
X98813904Y-114955676D01*
X98766285Y-115146152D01*
X98766285Y-115527104D01*
X98813904Y-115622342D01*
X98861523Y-115669961D01*
X98956761Y-115717580D01*
X99147238Y-115717580D01*
X99242476Y-115669961D01*
X99290095Y-115622342D01*
X99337714Y-115527104D01*
X99337714Y-115289009D01*
X99290095Y-115193771D01*
X99242476Y-115146152D01*
X99147238Y-115098533D01*
X98956761Y-115098533D01*
X98861523Y-115146152D01*
X98813904Y-115193771D01*
X98766285Y-115289009D01*
X113657142Y-90273142D02*
X113609523Y-90320761D01*
X113466666Y-90368380D01*
X113371428Y-90368380D01*
X113228571Y-90320761D01*
X113133333Y-90225523D01*
X113085714Y-90130285D01*
X113038095Y-89939809D01*
X113038095Y-89796952D01*
X113085714Y-89606476D01*
X113133333Y-89511238D01*
X113228571Y-89416000D01*
X113371428Y-89368380D01*
X113466666Y-89368380D01*
X113609523Y-89416000D01*
X113657142Y-89463619D01*
X114609523Y-90368380D02*
X114038095Y-90368380D01*
X114323809Y-90368380D02*
X114323809Y-89368380D01*
X114228571Y-89511238D01*
X114133333Y-89606476D01*
X114038095Y-89654095D01*
X115085714Y-90368380D02*
X115276190Y-90368380D01*
X115371428Y-90320761D01*
X115419047Y-90273142D01*
X115514285Y-90130285D01*
X115561904Y-89939809D01*
X115561904Y-89558857D01*
X115514285Y-89463619D01*
X115466666Y-89416000D01*
X115371428Y-89368380D01*
X115180952Y-89368380D01*
X115085714Y-89416000D01*
X115038095Y-89463619D01*
X114990476Y-89558857D01*
X114990476Y-89796952D01*
X115038095Y-89892190D01*
X115085714Y-89939809D01*
X115180952Y-89987428D01*
X115371428Y-89987428D01*
X115466666Y-89939809D01*
X115514285Y-89892190D01*
X115561904Y-89796952D01*
X54321342Y-121870742D02*
X54273723Y-121918361D01*
X54130866Y-121965980D01*
X54035628Y-121965980D01*
X53892771Y-121918361D01*
X53797533Y-121823123D01*
X53749914Y-121727885D01*
X53702295Y-121537409D01*
X53702295Y-121394552D01*
X53749914Y-121204076D01*
X53797533Y-121108838D01*
X53892771Y-121013600D01*
X54035628Y-120965980D01*
X54130866Y-120965980D01*
X54273723Y-121013600D01*
X54321342Y-121061219D01*
X55273723Y-121965980D02*
X54702295Y-121965980D01*
X54988009Y-121965980D02*
X54988009Y-120965980D01*
X54892771Y-121108838D01*
X54797533Y-121204076D01*
X54702295Y-121251695D01*
X56130866Y-121299314D02*
X56130866Y-121965980D01*
X55892771Y-120918361D02*
X55654676Y-121632647D01*
X56273723Y-121632647D01*
X50800095Y-95718380D02*
X50800095Y-96527904D01*
X50847714Y-96623142D01*
X50895333Y-96670761D01*
X50990571Y-96718380D01*
X51181047Y-96718380D01*
X51276285Y-96670761D01*
X51323904Y-96623142D01*
X51371523Y-96527904D01*
X51371523Y-95718380D01*
X51990571Y-96146952D02*
X51895333Y-96099333D01*
X51847714Y-96051714D01*
X51800095Y-95956476D01*
X51800095Y-95908857D01*
X51847714Y-95813619D01*
X51895333Y-95766000D01*
X51990571Y-95718380D01*
X52181047Y-95718380D01*
X52276285Y-95766000D01*
X52323904Y-95813619D01*
X52371523Y-95908857D01*
X52371523Y-95956476D01*
X52323904Y-96051714D01*
X52276285Y-96099333D01*
X52181047Y-96146952D01*
X51990571Y-96146952D01*
X51895333Y-96194571D01*
X51847714Y-96242190D01*
X51800095Y-96337428D01*
X51800095Y-96527904D01*
X51847714Y-96623142D01*
X51895333Y-96670761D01*
X51990571Y-96718380D01*
X52181047Y-96718380D01*
X52276285Y-96670761D01*
X52323904Y-96623142D01*
X52371523Y-96527904D01*
X52371523Y-96337428D01*
X52323904Y-96242190D01*
X52276285Y-96194571D01*
X52181047Y-96146952D01*
X99433142Y-92305142D02*
X99385523Y-92352761D01*
X99242666Y-92400380D01*
X99147428Y-92400380D01*
X99004571Y-92352761D01*
X98909333Y-92257523D01*
X98861714Y-92162285D01*
X98814095Y-91971809D01*
X98814095Y-91828952D01*
X98861714Y-91638476D01*
X98909333Y-91543238D01*
X99004571Y-91448000D01*
X99147428Y-91400380D01*
X99242666Y-91400380D01*
X99385523Y-91448000D01*
X99433142Y-91495619D01*
X100385523Y-92400380D02*
X99814095Y-92400380D01*
X100099809Y-92400380D02*
X100099809Y-91400380D01*
X100004571Y-91543238D01*
X99909333Y-91638476D01*
X99814095Y-91686095D01*
X100956952Y-91828952D02*
X100861714Y-91781333D01*
X100814095Y-91733714D01*
X100766476Y-91638476D01*
X100766476Y-91590857D01*
X100814095Y-91495619D01*
X100861714Y-91448000D01*
X100956952Y-91400380D01*
X101147428Y-91400380D01*
X101242666Y-91448000D01*
X101290285Y-91495619D01*
X101337904Y-91590857D01*
X101337904Y-91638476D01*
X101290285Y-91733714D01*
X101242666Y-91781333D01*
X101147428Y-91828952D01*
X100956952Y-91828952D01*
X100861714Y-91876571D01*
X100814095Y-91924190D01*
X100766476Y-92019428D01*
X100766476Y-92209904D01*
X100814095Y-92305142D01*
X100861714Y-92352761D01*
X100956952Y-92400380D01*
X101147428Y-92400380D01*
X101242666Y-92352761D01*
X101290285Y-92305142D01*
X101337904Y-92209904D01*
X101337904Y-92019428D01*
X101290285Y-91924190D01*
X101242666Y-91876571D01*
X101147428Y-91828952D01*
X65365333Y-53189142D02*
X65317714Y-53236761D01*
X65174857Y-53284380D01*
X65079619Y-53284380D01*
X64936761Y-53236761D01*
X64841523Y-53141523D01*
X64793904Y-53046285D01*
X64746285Y-52855809D01*
X64746285Y-52712952D01*
X64793904Y-52522476D01*
X64841523Y-52427238D01*
X64936761Y-52332000D01*
X65079619Y-52284380D01*
X65174857Y-52284380D01*
X65317714Y-52332000D01*
X65365333Y-52379619D01*
X65698666Y-52284380D02*
X66365333Y-52284380D01*
X65936761Y-53284380D01*
X63079333Y-122118380D02*
X62746000Y-121642190D01*
X62507904Y-122118380D02*
X62507904Y-121118380D01*
X62888857Y-121118380D01*
X62984095Y-121166000D01*
X63031714Y-121213619D01*
X63079333Y-121308857D01*
X63079333Y-121451714D01*
X63031714Y-121546952D01*
X62984095Y-121594571D01*
X62888857Y-121642190D01*
X62507904Y-121642190D01*
X63650761Y-121546952D02*
X63555523Y-121499333D01*
X63507904Y-121451714D01*
X63460285Y-121356476D01*
X63460285Y-121308857D01*
X63507904Y-121213619D01*
X63555523Y-121166000D01*
X63650761Y-121118380D01*
X63841238Y-121118380D01*
X63936476Y-121166000D01*
X63984095Y-121213619D01*
X64031714Y-121308857D01*
X64031714Y-121356476D01*
X63984095Y-121451714D01*
X63936476Y-121499333D01*
X63841238Y-121546952D01*
X63650761Y-121546952D01*
X63555523Y-121594571D01*
X63507904Y-121642190D01*
X63460285Y-121737428D01*
X63460285Y-121927904D01*
X63507904Y-122023142D01*
X63555523Y-122070761D01*
X63650761Y-122118380D01*
X63841238Y-122118380D01*
X63936476Y-122070761D01*
X63984095Y-122023142D01*
X64031714Y-121927904D01*
X64031714Y-121737428D01*
X63984095Y-121642190D01*
X63936476Y-121594571D01*
X63841238Y-121546952D01*
X109643942Y-118822742D02*
X109596323Y-118870361D01*
X109453466Y-118917980D01*
X109358228Y-118917980D01*
X109215371Y-118870361D01*
X109120133Y-118775123D01*
X109072514Y-118679885D01*
X109024895Y-118489409D01*
X109024895Y-118346552D01*
X109072514Y-118156076D01*
X109120133Y-118060838D01*
X109215371Y-117965600D01*
X109358228Y-117917980D01*
X109453466Y-117917980D01*
X109596323Y-117965600D01*
X109643942Y-118013219D01*
X110596323Y-118917980D02*
X110024895Y-118917980D01*
X110310609Y-118917980D02*
X110310609Y-117917980D01*
X110215371Y-118060838D01*
X110120133Y-118156076D01*
X110024895Y-118203695D01*
X111215371Y-117917980D02*
X111310609Y-117917980D01*
X111405847Y-117965600D01*
X111453466Y-118013219D01*
X111501085Y-118108457D01*
X111548704Y-118298933D01*
X111548704Y-118537028D01*
X111501085Y-118727504D01*
X111453466Y-118822742D01*
X111405847Y-118870361D01*
X111310609Y-118917980D01*
X111215371Y-118917980D01*
X111120133Y-118870361D01*
X111072514Y-118822742D01*
X111024895Y-118727504D01*
X110977276Y-118537028D01*
X110977276Y-118298933D01*
X111024895Y-118108457D01*
X111072514Y-118013219D01*
X111120133Y-117965600D01*
X111215371Y-117917980D01*
X114266742Y-121305580D02*
X113933409Y-120829390D01*
X113695314Y-121305580D02*
X113695314Y-120305580D01*
X114076266Y-120305580D01*
X114171504Y-120353200D01*
X114219123Y-120400819D01*
X114266742Y-120496057D01*
X114266742Y-120638914D01*
X114219123Y-120734152D01*
X114171504Y-120781771D01*
X114076266Y-120829390D01*
X113695314Y-120829390D01*
X115219123Y-121305580D02*
X114647695Y-121305580D01*
X114933409Y-121305580D02*
X114933409Y-120305580D01*
X114838171Y-120448438D01*
X114742933Y-120543676D01*
X114647695Y-120591295D01*
X115838171Y-120305580D02*
X115933409Y-120305580D01*
X116028647Y-120353200D01*
X116076266Y-120400819D01*
X116123885Y-120496057D01*
X116171504Y-120686533D01*
X116171504Y-120924628D01*
X116123885Y-121115104D01*
X116076266Y-121210342D01*
X116028647Y-121257961D01*
X115933409Y-121305580D01*
X115838171Y-121305580D01*
X115742933Y-121257961D01*
X115695314Y-121210342D01*
X115647695Y-121115104D01*
X115600076Y-120924628D01*
X115600076Y-120686533D01*
X115647695Y-120496057D01*
X115695314Y-120400819D01*
X115742933Y-120353200D01*
X115838171Y-120305580D01*
X93533933Y-115539780D02*
X93200600Y-115063590D01*
X92962504Y-115539780D02*
X92962504Y-114539780D01*
X93343457Y-114539780D01*
X93438695Y-114587400D01*
X93486314Y-114635019D01*
X93533933Y-114730257D01*
X93533933Y-114873114D01*
X93486314Y-114968352D01*
X93438695Y-115015971D01*
X93343457Y-115063590D01*
X92962504Y-115063590D01*
X94438695Y-114539780D02*
X93962504Y-114539780D01*
X93914885Y-115015971D01*
X93962504Y-114968352D01*
X94057742Y-114920733D01*
X94295838Y-114920733D01*
X94391076Y-114968352D01*
X94438695Y-115015971D01*
X94486314Y-115111209D01*
X94486314Y-115349304D01*
X94438695Y-115444542D01*
X94391076Y-115492161D01*
X94295838Y-115539780D01*
X94057742Y-115539780D01*
X93962504Y-115492161D01*
X93914885Y-115444542D01*
X94072342Y-85135980D02*
X93739009Y-84659790D01*
X93500914Y-85135980D02*
X93500914Y-84135980D01*
X93881866Y-84135980D01*
X93977104Y-84183600D01*
X94024723Y-84231219D01*
X94072342Y-84326457D01*
X94072342Y-84469314D01*
X94024723Y-84564552D01*
X93977104Y-84612171D01*
X93881866Y-84659790D01*
X93500914Y-84659790D01*
X95024723Y-85135980D02*
X94453295Y-85135980D01*
X94739009Y-85135980D02*
X94739009Y-84135980D01*
X94643771Y-84278838D01*
X94548533Y-84374076D01*
X94453295Y-84421695D01*
X95405676Y-84231219D02*
X95453295Y-84183600D01*
X95548533Y-84135980D01*
X95786628Y-84135980D01*
X95881866Y-84183600D01*
X95929485Y-84231219D01*
X95977104Y-84326457D01*
X95977104Y-84421695D01*
X95929485Y-84564552D01*
X95358057Y-85135980D01*
X95977104Y-85135980D01*
X117856095Y-114615980D02*
X117856095Y-115425504D01*
X117903714Y-115520742D01*
X117951333Y-115568361D01*
X118046571Y-115615980D01*
X118237047Y-115615980D01*
X118332285Y-115568361D01*
X118379904Y-115520742D01*
X118427523Y-115425504D01*
X118427523Y-114615980D01*
X119332285Y-114615980D02*
X119141809Y-114615980D01*
X119046571Y-114663600D01*
X118998952Y-114711219D01*
X118903714Y-114854076D01*
X118856095Y-115044552D01*
X118856095Y-115425504D01*
X118903714Y-115520742D01*
X118951333Y-115568361D01*
X119046571Y-115615980D01*
X119237047Y-115615980D01*
X119332285Y-115568361D01*
X119379904Y-115520742D01*
X119427523Y-115425504D01*
X119427523Y-115187409D01*
X119379904Y-115092171D01*
X119332285Y-115044552D01*
X119237047Y-114996933D01*
X119046571Y-114996933D01*
X118951333Y-115044552D01*
X118903714Y-115092171D01*
X118856095Y-115187409D01*
X69429333Y-120594380D02*
X69096000Y-120118190D01*
X68857904Y-120594380D02*
X68857904Y-119594380D01*
X69238857Y-119594380D01*
X69334095Y-119642000D01*
X69381714Y-119689619D01*
X69429333Y-119784857D01*
X69429333Y-119927714D01*
X69381714Y-120022952D01*
X69334095Y-120070571D01*
X69238857Y-120118190D01*
X68857904Y-120118190D01*
X69762666Y-119594380D02*
X70429333Y-119594380D01*
X70000761Y-120594380D01*
X89015695Y-109841580D02*
X89015695Y-110651104D01*
X89063314Y-110746342D01*
X89110933Y-110793961D01*
X89206171Y-110841580D01*
X89396647Y-110841580D01*
X89491885Y-110793961D01*
X89539504Y-110746342D01*
X89587123Y-110651104D01*
X89587123Y-109841580D01*
X90587123Y-110841580D02*
X90015695Y-110841580D01*
X90301409Y-110841580D02*
X90301409Y-109841580D01*
X90206171Y-109984438D01*
X90110933Y-110079676D01*
X90015695Y-110127295D01*
X55459333Y-127103142D02*
X55411714Y-127150761D01*
X55268857Y-127198380D01*
X55173619Y-127198380D01*
X55030761Y-127150761D01*
X54935523Y-127055523D01*
X54887904Y-126960285D01*
X54840285Y-126769809D01*
X54840285Y-126626952D01*
X54887904Y-126436476D01*
X54935523Y-126341238D01*
X55030761Y-126246000D01*
X55173619Y-126198380D01*
X55268857Y-126198380D01*
X55411714Y-126246000D01*
X55459333Y-126293619D01*
X56316476Y-126531714D02*
X56316476Y-127198380D01*
X56078380Y-126150761D02*
X55840285Y-126865047D01*
X56459333Y-126865047D01*
X114706495Y-100290380D02*
X114706495Y-101099904D01*
X114754114Y-101195142D01*
X114801733Y-101242761D01*
X114896971Y-101290380D01*
X115087447Y-101290380D01*
X115182685Y-101242761D01*
X115230304Y-101195142D01*
X115277923Y-101099904D01*
X115277923Y-100290380D01*
X116182685Y-100623714D02*
X116182685Y-101290380D01*
X115944590Y-100242761D02*
X115706495Y-100957047D01*
X116325542Y-100957047D01*
X61301333Y-73572380D02*
X60968000Y-73096190D01*
X60729904Y-73572380D02*
X60729904Y-72572380D01*
X61110857Y-72572380D01*
X61206095Y-72620000D01*
X61253714Y-72667619D01*
X61301333Y-72762857D01*
X61301333Y-72905714D01*
X61253714Y-73000952D01*
X61206095Y-73048571D01*
X61110857Y-73096190D01*
X60729904Y-73096190D01*
X62253714Y-73572380D02*
X61682285Y-73572380D01*
X61968000Y-73572380D02*
X61968000Y-72572380D01*
X61872761Y-72715238D01*
X61777523Y-72810476D01*
X61682285Y-72858095D01*
X76033333Y-119832380D02*
X75700000Y-119356190D01*
X75461904Y-119832380D02*
X75461904Y-118832380D01*
X75842857Y-118832380D01*
X75938095Y-118880000D01*
X75985714Y-118927619D01*
X76033333Y-119022857D01*
X76033333Y-119165714D01*
X75985714Y-119260952D01*
X75938095Y-119308571D01*
X75842857Y-119356190D01*
X75461904Y-119356190D01*
X76509523Y-119832380D02*
X76700000Y-119832380D01*
X76795238Y-119784761D01*
X76842857Y-119737142D01*
X76938095Y-119594285D01*
X76985714Y-119403809D01*
X76985714Y-119022857D01*
X76938095Y-118927619D01*
X76890476Y-118880000D01*
X76795238Y-118832380D01*
X76604761Y-118832380D01*
X76509523Y-118880000D01*
X76461904Y-118927619D01*
X76414285Y-119022857D01*
X76414285Y-119260952D01*
X76461904Y-119356190D01*
X76509523Y-119403809D01*
X76604761Y-119451428D01*
X76795238Y-119451428D01*
X76890476Y-119403809D01*
X76938095Y-119356190D01*
X76985714Y-119260952D01*
X94187342Y-86863180D02*
X93854009Y-86386990D01*
X93615914Y-86863180D02*
X93615914Y-85863180D01*
X93996866Y-85863180D01*
X94092104Y-85910800D01*
X94139723Y-85958419D01*
X94187342Y-86053657D01*
X94187342Y-86196514D01*
X94139723Y-86291752D01*
X94092104Y-86339371D01*
X93996866Y-86386990D01*
X93615914Y-86386990D01*
X95139723Y-86863180D02*
X94568295Y-86863180D01*
X94854009Y-86863180D02*
X94854009Y-85863180D01*
X94758771Y-86006038D01*
X94663533Y-86101276D01*
X94568295Y-86148895D01*
X96092104Y-86863180D02*
X95520676Y-86863180D01*
X95806390Y-86863180D02*
X95806390Y-85863180D01*
X95711152Y-86006038D01*
X95615914Y-86101276D01*
X95520676Y-86148895D01*
X65651142Y-126087142D02*
X65603523Y-126134761D01*
X65460666Y-126182380D01*
X65365428Y-126182380D01*
X65222571Y-126134761D01*
X65127333Y-126039523D01*
X65079714Y-125944285D01*
X65032095Y-125753809D01*
X65032095Y-125610952D01*
X65079714Y-125420476D01*
X65127333Y-125325238D01*
X65222571Y-125230000D01*
X65365428Y-125182380D01*
X65460666Y-125182380D01*
X65603523Y-125230000D01*
X65651142Y-125277619D01*
X66603523Y-126182380D02*
X66032095Y-126182380D01*
X66317809Y-126182380D02*
X66317809Y-125182380D01*
X66222571Y-125325238D01*
X66127333Y-125420476D01*
X66032095Y-125468095D01*
X67460666Y-125182380D02*
X67270190Y-125182380D01*
X67174952Y-125230000D01*
X67127333Y-125277619D01*
X67032095Y-125420476D01*
X66984476Y-125610952D01*
X66984476Y-125991904D01*
X67032095Y-126087142D01*
X67079714Y-126134761D01*
X67174952Y-126182380D01*
X67365428Y-126182380D01*
X67460666Y-126134761D01*
X67508285Y-126087142D01*
X67555904Y-125991904D01*
X67555904Y-125753809D01*
X67508285Y-125658571D01*
X67460666Y-125610952D01*
X67365428Y-125563333D01*
X67174952Y-125563333D01*
X67079714Y-125610952D01*
X67032095Y-125658571D01*
X66984476Y-125753809D01*
X63079333Y-119229142D02*
X63031714Y-119276761D01*
X62888857Y-119324380D01*
X62793619Y-119324380D01*
X62650761Y-119276761D01*
X62555523Y-119181523D01*
X62507904Y-119086285D01*
X62460285Y-118895809D01*
X62460285Y-118752952D01*
X62507904Y-118562476D01*
X62555523Y-118467238D01*
X62650761Y-118372000D01*
X62793619Y-118324380D01*
X62888857Y-118324380D01*
X63031714Y-118372000D01*
X63079333Y-118419619D01*
X63650761Y-118752952D02*
X63555523Y-118705333D01*
X63507904Y-118657714D01*
X63460285Y-118562476D01*
X63460285Y-118514857D01*
X63507904Y-118419619D01*
X63555523Y-118372000D01*
X63650761Y-118324380D01*
X63841238Y-118324380D01*
X63936476Y-118372000D01*
X63984095Y-118419619D01*
X64031714Y-118514857D01*
X64031714Y-118562476D01*
X63984095Y-118657714D01*
X63936476Y-118705333D01*
X63841238Y-118752952D01*
X63650761Y-118752952D01*
X63555523Y-118800571D01*
X63507904Y-118848190D01*
X63460285Y-118943428D01*
X63460285Y-119133904D01*
X63507904Y-119229142D01*
X63555523Y-119276761D01*
X63650761Y-119324380D01*
X63841238Y-119324380D01*
X63936476Y-119276761D01*
X63984095Y-119229142D01*
X64031714Y-119133904D01*
X64031714Y-118943428D01*
X63984095Y-118848190D01*
X63936476Y-118800571D01*
X63841238Y-118752952D01*
X106037142Y-96877142D02*
X105989523Y-96924761D01*
X105846666Y-96972380D01*
X105751428Y-96972380D01*
X105608571Y-96924761D01*
X105513333Y-96829523D01*
X105465714Y-96734285D01*
X105418095Y-96543809D01*
X105418095Y-96400952D01*
X105465714Y-96210476D01*
X105513333Y-96115238D01*
X105608571Y-96020000D01*
X105751428Y-95972380D01*
X105846666Y-95972380D01*
X105989523Y-96020000D01*
X106037142Y-96067619D01*
X106989523Y-96972380D02*
X106418095Y-96972380D01*
X106703809Y-96972380D02*
X106703809Y-95972380D01*
X106608571Y-96115238D01*
X106513333Y-96210476D01*
X106418095Y-96258095D01*
X107322857Y-95972380D02*
X107941904Y-95972380D01*
X107608571Y-96353333D01*
X107751428Y-96353333D01*
X107846666Y-96400952D01*
X107894285Y-96448571D01*
X107941904Y-96543809D01*
X107941904Y-96781904D01*
X107894285Y-96877142D01*
X107846666Y-96924761D01*
X107751428Y-96972380D01*
X107465714Y-96972380D01*
X107370476Y-96924761D01*
X107322857Y-96877142D01*
X58166095Y-54824380D02*
X58166095Y-55633904D01*
X58213714Y-55729142D01*
X58261333Y-55776761D01*
X58356571Y-55824380D01*
X58547047Y-55824380D01*
X58642285Y-55776761D01*
X58689904Y-55729142D01*
X58737523Y-55633904D01*
X58737523Y-54824380D01*
X59118476Y-54824380D02*
X59737523Y-54824380D01*
X59404190Y-55205333D01*
X59547047Y-55205333D01*
X59642285Y-55252952D01*
X59689904Y-55300571D01*
X59737523Y-55395809D01*
X59737523Y-55633904D01*
X59689904Y-55729142D01*
X59642285Y-55776761D01*
X59547047Y-55824380D01*
X59261333Y-55824380D01*
X59166095Y-55776761D01*
X59118476Y-55729142D01*
X69429333Y-58269142D02*
X69381714Y-58316761D01*
X69238857Y-58364380D01*
X69143619Y-58364380D01*
X69000761Y-58316761D01*
X68905523Y-58221523D01*
X68857904Y-58126285D01*
X68810285Y-57935809D01*
X68810285Y-57792952D01*
X68857904Y-57602476D01*
X68905523Y-57507238D01*
X69000761Y-57412000D01*
X69143619Y-57364380D01*
X69238857Y-57364380D01*
X69381714Y-57412000D01*
X69429333Y-57459619D01*
X69762666Y-57364380D02*
X70381714Y-57364380D01*
X70048380Y-57745333D01*
X70191238Y-57745333D01*
X70286476Y-57792952D01*
X70334095Y-57840571D01*
X70381714Y-57935809D01*
X70381714Y-58173904D01*
X70334095Y-58269142D01*
X70286476Y-58316761D01*
X70191238Y-58364380D01*
X69905523Y-58364380D01*
X69810285Y-58316761D01*
X69762666Y-58269142D01*
X55733142Y-124658380D02*
X55399809Y-124182190D01*
X55161714Y-124658380D02*
X55161714Y-123658380D01*
X55542666Y-123658380D01*
X55637904Y-123706000D01*
X55685523Y-123753619D01*
X55733142Y-123848857D01*
X55733142Y-123991714D01*
X55685523Y-124086952D01*
X55637904Y-124134571D01*
X55542666Y-124182190D01*
X55161714Y-124182190D01*
X56685523Y-124658380D02*
X56114095Y-124658380D01*
X56399809Y-124658380D02*
X56399809Y-123658380D01*
X56304571Y-123801238D01*
X56209333Y-123896476D01*
X56114095Y-123944095D01*
X57018857Y-123658380D02*
X57637904Y-123658380D01*
X57304571Y-124039333D01*
X57447428Y-124039333D01*
X57542666Y-124086952D01*
X57590285Y-124134571D01*
X57637904Y-124229809D01*
X57637904Y-124467904D01*
X57590285Y-124563142D01*
X57542666Y-124610761D01*
X57447428Y-124658380D01*
X57161714Y-124658380D01*
X57066476Y-124610761D01*
X57018857Y-124563142D01*
X65873333Y-73572380D02*
X65540000Y-73096190D01*
X65301904Y-73572380D02*
X65301904Y-72572380D01*
X65682857Y-72572380D01*
X65778095Y-72620000D01*
X65825714Y-72667619D01*
X65873333Y-72762857D01*
X65873333Y-72905714D01*
X65825714Y-73000952D01*
X65778095Y-73048571D01*
X65682857Y-73096190D01*
X65301904Y-73096190D01*
X66254285Y-72667619D02*
X66301904Y-72620000D01*
X66397142Y-72572380D01*
X66635238Y-72572380D01*
X66730476Y-72620000D01*
X66778095Y-72667619D01*
X66825714Y-72762857D01*
X66825714Y-72858095D01*
X66778095Y-73000952D01*
X66206666Y-73572380D01*
X66825714Y-73572380D01*
X87884095Y-94194380D02*
X87884095Y-95003904D01*
X87931714Y-95099142D01*
X87979333Y-95146761D01*
X88074571Y-95194380D01*
X88265047Y-95194380D01*
X88360285Y-95146761D01*
X88407904Y-95099142D01*
X88455523Y-95003904D01*
X88455523Y-94194380D01*
X88884095Y-94289619D02*
X88931714Y-94242000D01*
X89026952Y-94194380D01*
X89265047Y-94194380D01*
X89360285Y-94242000D01*
X89407904Y-94289619D01*
X89455523Y-94384857D01*
X89455523Y-94480095D01*
X89407904Y-94622952D01*
X88836476Y-95194380D01*
X89455523Y-95194380D01*
X67321133Y-62891942D02*
X67273514Y-62939561D01*
X67130657Y-62987180D01*
X67035419Y-62987180D01*
X66892561Y-62939561D01*
X66797323Y-62844323D01*
X66749704Y-62749085D01*
X66702085Y-62558609D01*
X66702085Y-62415752D01*
X66749704Y-62225276D01*
X66797323Y-62130038D01*
X66892561Y-62034800D01*
X67035419Y-61987180D01*
X67130657Y-61987180D01*
X67273514Y-62034800D01*
X67321133Y-62082419D01*
X68178276Y-61987180D02*
X67987800Y-61987180D01*
X67892561Y-62034800D01*
X67844942Y-62082419D01*
X67749704Y-62225276D01*
X67702085Y-62415752D01*
X67702085Y-62796704D01*
X67749704Y-62891942D01*
X67797323Y-62939561D01*
X67892561Y-62987180D01*
X68083038Y-62987180D01*
X68178276Y-62939561D01*
X68225895Y-62891942D01*
X68273514Y-62796704D01*
X68273514Y-62558609D01*
X68225895Y-62463371D01*
X68178276Y-62415752D01*
X68083038Y-62368133D01*
X67892561Y-62368133D01*
X67797323Y-62415752D01*
X67749704Y-62463371D01*
X67702085Y-62558609D01*
X99996666Y-123404380D02*
X99996666Y-124118666D01*
X99949047Y-124261523D01*
X99853809Y-124356761D01*
X99710952Y-124404380D01*
X99615714Y-124404380D01*
X100996666Y-124404380D02*
X100425238Y-124404380D01*
X100710952Y-124404380D02*
X100710952Y-123404380D01*
X100615714Y-123547238D01*
X100520476Y-123642476D01*
X100425238Y-123690095D01*
X100925333Y-107583942D02*
X100877714Y-107631561D01*
X100734857Y-107679180D01*
X100639619Y-107679180D01*
X100496761Y-107631561D01*
X100401523Y-107536323D01*
X100353904Y-107441085D01*
X100306285Y-107250609D01*
X100306285Y-107107752D01*
X100353904Y-106917276D01*
X100401523Y-106822038D01*
X100496761Y-106726800D01*
X100639619Y-106679180D01*
X100734857Y-106679180D01*
X100877714Y-106726800D01*
X100925333Y-106774419D01*
X101877714Y-107679180D02*
X101306285Y-107679180D01*
X101592000Y-107679180D02*
X101592000Y-106679180D01*
X101496761Y-106822038D01*
X101401523Y-106917276D01*
X101306285Y-106964895D01*
X53174733Y-85999580D02*
X52841400Y-85523390D01*
X52603304Y-85999580D02*
X52603304Y-84999580D01*
X52984257Y-84999580D01*
X53079495Y-85047200D01*
X53127114Y-85094819D01*
X53174733Y-85190057D01*
X53174733Y-85332914D01*
X53127114Y-85428152D01*
X53079495Y-85475771D01*
X52984257Y-85523390D01*
X52603304Y-85523390D01*
X53508066Y-84999580D02*
X54127114Y-84999580D01*
X53793780Y-85380533D01*
X53936638Y-85380533D01*
X54031876Y-85428152D01*
X54079495Y-85475771D01*
X54127114Y-85571009D01*
X54127114Y-85809104D01*
X54079495Y-85904342D01*
X54031876Y-85951961D01*
X53936638Y-85999580D01*
X53650923Y-85999580D01*
X53555685Y-85951961D01*
X53508066Y-85904342D01*
D13*
X111718800Y-116070000D02*
X111718800Y-115070000D01*
X88300000Y-103116000D02*
X88300000Y-102116000D01*
X101101600Y-95445200D02*
X101101600Y-94445200D01*
X109635123Y-84068000D02*
X101335123Y-84068000D01*
X101335123Y-84068000D02*
X101335123Y-89668000D01*
X101335123Y-89668000D02*
X109635123Y-89668000D01*
X109635123Y-89668000D02*
X109635123Y-84068000D01*
X110305834Y-83018000D02*
G75*
G03*
X110305834Y-83018000I-70711J0D01*
G01*
X110500877Y-83018000D02*
G75*
G03*
X110500877Y-83018000I-265754J0D01*
G01*
X110415401Y-83018000D02*
G75*
G03*
X110415401Y-83018000I-180278J0D01*
G01*
X56499200Y-82796000D02*
X56499200Y-81796000D01*
X60614000Y-63238000D02*
X60614000Y-62238000D01*
X97188400Y-89976400D02*
X98188400Y-89976400D01*
X106080000Y-93718000D02*
X106080000Y-92718000D01*
X58328000Y-119372000D02*
X58328000Y-118372000D01*
X96428000Y-100982400D02*
X96428000Y-99982400D01*
X99560000Y-117440000D02*
X98560000Y-117440000D01*
X111412400Y-89976400D02*
X112412400Y-89976400D01*
X58328000Y-122166000D02*
X58328000Y-121166000D01*
X50208000Y-101930000D02*
X56908000Y-108430000D01*
X52658000Y-115680000D02*
X50183000Y-113230000D01*
X50183000Y-108180000D02*
X56883000Y-114680000D01*
X50158000Y-106955000D02*
X56858000Y-113455000D01*
X55858000Y-97680000D02*
X56833000Y-98555000D01*
X50168000Y-115680000D02*
X50168000Y-97680000D01*
X50158000Y-104430000D02*
X56858000Y-110930000D01*
X50183000Y-98180000D02*
X56883000Y-104680000D01*
X50183000Y-100705000D02*
X56883000Y-107205000D01*
X75633000Y-97680000D02*
X74758000Y-97680000D01*
X50183000Y-103205000D02*
X56883000Y-109705000D01*
X50158000Y-105680000D02*
X56858000Y-112180000D01*
X74783000Y-115680000D02*
X75668000Y-115680000D01*
X50183000Y-109430000D02*
X56408000Y-115655000D01*
X56858000Y-115680000D02*
X57058000Y-115680000D01*
X54633000Y-97680000D02*
X56858000Y-99730000D01*
X75668000Y-115680000D02*
X75668000Y-113030000D01*
X56858000Y-115680000D02*
X56858000Y-97680000D01*
X50183000Y-99430000D02*
X56883000Y-105930000D01*
X75668000Y-100430000D02*
X75668000Y-97680000D01*
X50168000Y-115680000D02*
X56858000Y-115680000D01*
X50168000Y-97680000D02*
X56858000Y-97680000D01*
X50908000Y-97680000D02*
X56858000Y-103430000D01*
X52133000Y-97680000D02*
X56858000Y-102205000D01*
X51408000Y-115655000D02*
X50158000Y-114380000D01*
X50158000Y-110680000D02*
X55158000Y-115680000D01*
X53408000Y-97680000D02*
X56858000Y-101005000D01*
X56858000Y-97680000D02*
X57058000Y-97680000D01*
X53908000Y-115655000D02*
X50158000Y-111930000D01*
X99271200Y-89976400D02*
X100271200Y-89976400D01*
X63154000Y-53332000D02*
X63154000Y-52332000D01*
X65694000Y-122166000D02*
X65694000Y-121166000D01*
X112276000Y-118552800D02*
X113276000Y-118552800D01*
X117967200Y-121454800D02*
X117967200Y-120454800D01*
X94480000Y-117440000D02*
X93480000Y-117440000D01*
X97850400Y-85132800D02*
X97850400Y-84132800D01*
X117309600Y-116320000D02*
X114509600Y-116320000D01*
X114509600Y-116320000D02*
X114509600Y-117620000D01*
X114509600Y-117620000D02*
X117309600Y-117620000D01*
X117309600Y-117620000D02*
X117309600Y-116320000D01*
X69480000Y-122166000D02*
X69480000Y-121166000D01*
X96722000Y-108937600D02*
X90222000Y-108937600D01*
X90222000Y-108937600D02*
X90222000Y-105437600D01*
X90222000Y-105437600D02*
X96722000Y-105437600D01*
X96722000Y-105437600D02*
X96722000Y-108937600D01*
X58328000Y-127246000D02*
X58328000Y-126246000D01*
X119602000Y-102407000D02*
X110102000Y-102407000D01*
X110102000Y-102407000D02*
X110102000Y-110907000D01*
X110102000Y-110907000D02*
X119602000Y-110907000D01*
X119602000Y-110907000D02*
X119602000Y-102407000D01*
X60568000Y-70620000D02*
X60568000Y-71620000D01*
X74668000Y-119218000D02*
X73668000Y-119218000D01*
X97850400Y-86809200D02*
X97850400Y-85809200D01*
X63870000Y-123706000D02*
X63870000Y-124706000D01*
X65694000Y-119372000D02*
X65694000Y-118372000D01*
X106056000Y-95496000D02*
X106056000Y-94496000D01*
D10*
X65269000Y-60062000D02*
X65269000Y-59537000D01*
X60969000Y-60062000D02*
X61494000Y-60062000D01*
X65269000Y-55762000D02*
X65269000Y-56287000D01*
X60969000Y-55762000D02*
X61494000Y-55762000D01*
X65269000Y-60062000D02*
X64744000Y-60062000D01*
X60969000Y-60062000D02*
X60969000Y-59537000D01*
X65269000Y-55762000D02*
X64744000Y-55762000D01*
D13*
X67064000Y-58074000D02*
X68064000Y-58074000D01*
X59840000Y-124706000D02*
X59840000Y-123706000D01*
X65140000Y-70620000D02*
X65140000Y-71620000D01*
X92738800Y-98195200D02*
X96238800Y-98195200D01*
X96238800Y-98195200D02*
X96238800Y-91695200D01*
X96238800Y-91695200D02*
X92738800Y-91695200D01*
X92738800Y-91695200D02*
X92738800Y-98195200D01*
X64608000Y-62263400D02*
X64608000Y-63263400D01*
X101854000Y-125272800D02*
X117094000Y-125272800D01*
X117094000Y-125272800D02*
X117094000Y-122732800D01*
X117094000Y-122732800D02*
X101854000Y-122732800D01*
X101854000Y-122732800D02*
X101854000Y-125272800D01*
X99763200Y-107026000D02*
X98763200Y-107026000D01*
X56124400Y-85047200D02*
X56124400Y-86047200D01*
M02*
