%TF.GenerationSoftware,KiCad,Pcbnew,(6.0.9-0)*%
%TF.CreationDate,2024-06-23T22:54:29+01:00*%
%TF.ProjectId,BalanceBoard,42616c61-6e63-4654-926f-6172642e6b69,rev?*%
%TF.SameCoordinates,Original*%
%TF.FileFunction,Drillmap*%
%TF.FilePolarity,Positive*%
%FSLAX45Y45*%
G04 Gerber Fmt 4.5, Leading zero omitted, Abs format (unit mm)*
G04 Created by KiCad (PCBNEW (6.0.9-0)) date 2024-06-23 22:54:29*
%MOMM*%
%LPD*%
G01*
G04 APERTURE LIST*
%ADD10C,0.050000*%
%ADD11C,0.200000*%
%ADD12C,0.040000*%
%ADD13C,0.120000*%
%ADD14C,0.400000*%
G04 APERTURE END LIST*
D10*
X12000000Y-13000000D02*
X5000000Y-13000000D01*
X12000000Y-5000000D02*
X12000000Y-13000000D01*
X9500000Y-8000000D02*
X9500000Y-5000000D01*
X7500000Y-8000000D02*
X9500000Y-8000000D01*
X9500000Y-5000000D02*
X12000000Y-5000000D01*
X5000000Y-5000000D02*
X7500000Y-5000000D01*
X5000000Y-13000000D02*
X5000000Y-5000000D01*
X7500000Y-5000000D02*
X7500000Y-8000000D01*
D11*
D12*
X5070160Y-8209600D02*
X5110160Y-8249600D01*
X5110160Y-8209600D02*
X5070160Y-8249600D01*
X5171760Y-8534720D02*
X5211760Y-8574720D01*
X5211760Y-8534720D02*
X5171760Y-8574720D01*
X5725480Y-9520240D02*
X5765480Y-9560240D01*
X5765480Y-9520240D02*
X5725480Y-9560240D01*
X5822000Y-6406200D02*
X5862000Y-6446200D01*
X5862000Y-6406200D02*
X5822000Y-6446200D01*
X5822000Y-6507800D02*
X5862000Y-6547800D01*
X5862000Y-6507800D02*
X5822000Y-6547800D01*
X5822000Y-6609400D02*
X5862000Y-6649400D01*
X5862000Y-6609400D02*
X5822000Y-6649400D01*
X5872800Y-12019600D02*
X5912800Y-12059600D01*
X5912800Y-12019600D02*
X5872800Y-12059600D01*
X5872800Y-12273600D02*
X5912800Y-12313600D01*
X5912800Y-12273600D02*
X5872800Y-12313600D01*
X5872800Y-12527600D02*
X5912800Y-12567600D01*
X5912800Y-12527600D02*
X5872800Y-12567600D01*
X5872800Y-12781600D02*
X5912800Y-12821600D01*
X5912800Y-12781600D02*
X5872800Y-12821600D01*
X5898200Y-5263200D02*
X5938200Y-5303200D01*
X5938200Y-5263200D02*
X5898200Y-5303200D01*
X5898200Y-5364800D02*
X5938200Y-5404800D01*
X5938200Y-5364800D02*
X5898200Y-5404800D01*
X5898200Y-5466400D02*
X5938200Y-5506400D01*
X5938200Y-5466400D02*
X5898200Y-5506400D01*
X5949000Y-6406200D02*
X5989000Y-6446200D01*
X5989000Y-6406200D02*
X5949000Y-6446200D01*
X5949000Y-6507800D02*
X5989000Y-6547800D01*
X5989000Y-6507800D02*
X5949000Y-6547800D01*
X5949000Y-6609400D02*
X5989000Y-6649400D01*
X5989000Y-6609400D02*
X5949000Y-6649400D01*
X5999800Y-12654600D02*
X6039800Y-12694600D01*
X6039800Y-12654600D02*
X5999800Y-12694600D01*
X5999800Y-12781600D02*
X6039800Y-12821600D01*
X6039800Y-12781600D02*
X5999800Y-12821600D01*
X6025200Y-5263200D02*
X6065200Y-5303200D01*
X6065200Y-5263200D02*
X6025200Y-5303200D01*
X6025200Y-5364800D02*
X6065200Y-5404800D01*
X6065200Y-5364800D02*
X6025200Y-5404800D01*
X6025200Y-5466400D02*
X6065200Y-5506400D01*
X6065200Y-5466400D02*
X6025200Y-5506400D01*
X6025200Y-9936800D02*
X6065200Y-9976800D01*
X6065200Y-9936800D02*
X6025200Y-9976800D01*
X6126800Y-10038400D02*
X6166800Y-10078400D01*
X6166800Y-10038400D02*
X6126800Y-10078400D01*
X6152200Y-5405440D02*
X6192200Y-5445440D01*
X6192200Y-5405440D02*
X6152200Y-5445440D01*
X6279200Y-5415600D02*
X6319200Y-5455600D01*
X6319200Y-5415600D02*
X6279200Y-5455600D01*
X6380800Y-10140000D02*
X6420800Y-10180000D01*
X6420800Y-10140000D02*
X6380800Y-10180000D01*
X6533200Y-6406200D02*
X6573200Y-6446200D01*
X6573200Y-6406200D02*
X6533200Y-6446200D01*
X6533200Y-6507800D02*
X6573200Y-6547800D01*
X6573200Y-6507800D02*
X6533200Y-6547800D01*
X6533200Y-6609400D02*
X6573200Y-6649400D01*
X6573200Y-6609400D02*
X6533200Y-6649400D01*
X6584000Y-6939600D02*
X6624000Y-6979600D01*
X6624000Y-6939600D02*
X6584000Y-6979600D01*
X6584000Y-7269800D02*
X6624000Y-7309800D01*
X6624000Y-7269800D02*
X6584000Y-7309800D01*
X6634800Y-10140000D02*
X6674800Y-10180000D01*
X6674800Y-10140000D02*
X6634800Y-10180000D01*
X6660200Y-6406200D02*
X6700200Y-6446200D01*
X6700200Y-6406200D02*
X6660200Y-6446200D01*
X6660200Y-6507800D02*
X6700200Y-6547800D01*
X6700200Y-6507800D02*
X6660200Y-6547800D01*
X6660200Y-6609400D02*
X6700200Y-6649400D01*
X6700200Y-6609400D02*
X6660200Y-6649400D01*
X6716080Y-7092000D02*
X6756080Y-7132000D01*
X6756080Y-7092000D02*
X6716080Y-7132000D01*
X6736400Y-5314000D02*
X6776400Y-5354000D01*
X6776400Y-5314000D02*
X6736400Y-5354000D01*
X6736400Y-5415600D02*
X6776400Y-5455600D01*
X6776400Y-5415600D02*
X6736400Y-5455600D01*
X6736400Y-5517200D02*
X6776400Y-5557200D01*
X6776400Y-5517200D02*
X6736400Y-5557200D01*
X6761800Y-10140000D02*
X6801800Y-10180000D01*
X6801800Y-10140000D02*
X6761800Y-10180000D01*
X6863400Y-5314000D02*
X6903400Y-5354000D01*
X6903400Y-5314000D02*
X6863400Y-5354000D01*
X6863400Y-5415600D02*
X6903400Y-5455600D01*
X6903400Y-5415600D02*
X6863400Y-5455600D01*
X6863400Y-5517200D02*
X6903400Y-5557200D01*
X6903400Y-5517200D02*
X6863400Y-5557200D01*
X6888800Y-10140000D02*
X6928800Y-10180000D01*
X6928800Y-10140000D02*
X6888800Y-10180000D01*
X6888800Y-10825800D02*
X6928800Y-10865800D01*
X6928800Y-10825800D02*
X6888800Y-10865800D01*
X6888800Y-11359200D02*
X6928800Y-11399200D01*
X6928800Y-11359200D02*
X6888800Y-11399200D01*
X6990400Y-12324400D02*
X7030400Y-12364400D01*
X7030400Y-12324400D02*
X6990400Y-12364400D01*
X7014905Y-10826695D02*
X7054905Y-10866695D01*
X7054905Y-10826695D02*
X7014905Y-10866695D01*
X7015800Y-10140000D02*
X7055800Y-10180000D01*
X7055800Y-10140000D02*
X7015800Y-10180000D01*
X7015800Y-11359200D02*
X7055800Y-11399200D01*
X7055800Y-11359200D02*
X7015800Y-11399200D01*
X7117400Y-12324400D02*
X7157400Y-12364400D01*
X7157400Y-12324400D02*
X7117400Y-12364400D01*
X7142800Y-10140000D02*
X7182800Y-10180000D01*
X7182800Y-10140000D02*
X7142800Y-10180000D01*
X7142800Y-11689400D02*
X7182800Y-11729400D01*
X7182800Y-11689400D02*
X7142800Y-11729400D01*
X7142800Y-12832400D02*
X7182800Y-12872400D01*
X7182800Y-12832400D02*
X7142800Y-12872400D01*
X7244400Y-10851200D02*
X7284400Y-10891200D01*
X7284400Y-10851200D02*
X7244400Y-10891200D01*
X7244400Y-11994200D02*
X7284400Y-12034200D01*
X7284400Y-11994200D02*
X7244400Y-12034200D01*
X7269800Y-10140000D02*
X7309800Y-10180000D01*
X7309800Y-10140000D02*
X7269800Y-10180000D01*
X7269800Y-10267000D02*
X7309800Y-10307000D01*
X7309800Y-10267000D02*
X7269800Y-10307000D01*
X7269800Y-10419400D02*
X7309800Y-10459400D01*
X7309800Y-10419400D02*
X7269800Y-10459400D01*
X7269800Y-10571800D02*
X7309800Y-10611800D01*
X7309800Y-10571800D02*
X7269800Y-10611800D01*
X7269800Y-10724200D02*
X7309800Y-10764200D01*
X7309800Y-10724200D02*
X7269800Y-10764200D01*
X7269800Y-10978200D02*
X7309800Y-11018200D01*
X7309800Y-10978200D02*
X7269800Y-11018200D01*
X7346000Y-10343200D02*
X7386000Y-10383200D01*
X7386000Y-10343200D02*
X7346000Y-10383200D01*
X7752400Y-11079800D02*
X7792400Y-11119800D01*
X7792400Y-11079800D02*
X7752400Y-11119800D01*
X7854000Y-11079800D02*
X7894000Y-11119800D01*
X7894000Y-11079800D02*
X7854000Y-11119800D01*
X7955600Y-11079800D02*
X7995600Y-11119800D01*
X7995600Y-11079800D02*
X7955600Y-11119800D01*
X8057200Y-11079800D02*
X8097200Y-11119800D01*
X8097200Y-11079800D02*
X8057200Y-11119800D01*
X8158800Y-11079800D02*
X8198800Y-11119800D01*
X8198800Y-11079800D02*
X8158800Y-11119800D01*
X8260400Y-11079800D02*
X8300400Y-11119800D01*
X8300400Y-11079800D02*
X8260400Y-11119800D01*
X8362000Y-11079800D02*
X8402000Y-11119800D01*
X8402000Y-11079800D02*
X8362000Y-11119800D01*
X8997000Y-8057200D02*
X9037000Y-8097200D01*
X9037000Y-8057200D02*
X8997000Y-8097200D01*
X8997000Y-8158800D02*
X9037000Y-8198800D01*
X9037000Y-8158800D02*
X8997000Y-8198800D01*
X8997000Y-8260400D02*
X9037000Y-8300400D01*
X9037000Y-8260400D02*
X8997000Y-8300400D01*
X8997000Y-8362000D02*
X9037000Y-8402000D01*
X9037000Y-8362000D02*
X8997000Y-8402000D01*
X8997000Y-8463600D02*
X9037000Y-8503600D01*
X9037000Y-8463600D02*
X8997000Y-8503600D01*
X8997000Y-8565200D02*
X9037000Y-8605200D01*
X9037000Y-8565200D02*
X8997000Y-8605200D01*
X8997000Y-8666800D02*
X9037000Y-8706800D01*
X9037000Y-8666800D02*
X8997000Y-8706800D01*
X8997000Y-8768400D02*
X9037000Y-8808400D01*
X9037000Y-8768400D02*
X8997000Y-8808400D01*
X8997000Y-8870000D02*
X9037000Y-8910000D01*
X9037000Y-8870000D02*
X8997000Y-8910000D01*
X8997000Y-8971600D02*
X9037000Y-9011600D01*
X9037000Y-8971600D02*
X8997000Y-9011600D01*
X8997000Y-9073200D02*
X9037000Y-9113200D01*
X9037000Y-9073200D02*
X8997000Y-9113200D01*
X8997000Y-9962200D02*
X9037000Y-10002200D01*
X9037000Y-9962200D02*
X8997000Y-10002200D01*
X8997000Y-10089200D02*
X9037000Y-10129200D01*
X9037000Y-10089200D02*
X8997000Y-10129200D01*
X8997000Y-10216200D02*
X9037000Y-10256200D01*
X9037000Y-10216200D02*
X8997000Y-10256200D01*
X9098600Y-8057200D02*
X9138600Y-8097200D01*
X9138600Y-8057200D02*
X9098600Y-8097200D01*
X9098600Y-8158800D02*
X9138600Y-8198800D01*
X9138600Y-8158800D02*
X9098600Y-8198800D01*
X9098600Y-8260400D02*
X9138600Y-8300400D01*
X9138600Y-8260400D02*
X9098600Y-8300400D01*
X9098600Y-8362000D02*
X9138600Y-8402000D01*
X9138600Y-8362000D02*
X9098600Y-8402000D01*
X9098600Y-8463600D02*
X9138600Y-8503600D01*
X9138600Y-8463600D02*
X9098600Y-8503600D01*
X9098600Y-8565200D02*
X9138600Y-8605200D01*
X9138600Y-8565200D02*
X9098600Y-8605200D01*
X9098600Y-8666800D02*
X9138600Y-8706800D01*
X9138600Y-8666800D02*
X9098600Y-8706800D01*
X9098600Y-8768400D02*
X9138600Y-8808400D01*
X9138600Y-8768400D02*
X9098600Y-8808400D01*
X9098600Y-8870000D02*
X9138600Y-8910000D01*
X9138600Y-8870000D02*
X9098600Y-8910000D01*
X9098600Y-8971600D02*
X9138600Y-9011600D01*
X9138600Y-8971600D02*
X9098600Y-9011600D01*
X9149400Y-9962200D02*
X9189400Y-10002200D01*
X9189400Y-9962200D02*
X9149400Y-10002200D01*
X9149400Y-10089200D02*
X9189400Y-10129200D01*
X9189400Y-10089200D02*
X9149400Y-10129200D01*
X9149400Y-10216200D02*
X9189400Y-10256200D01*
X9189400Y-10216200D02*
X9149400Y-10256200D01*
X9200200Y-8057200D02*
X9240200Y-8097200D01*
X9240200Y-8057200D02*
X9200200Y-8097200D01*
X9200200Y-8158800D02*
X9240200Y-8198800D01*
X9240200Y-8158800D02*
X9200200Y-8198800D01*
X9200200Y-8260400D02*
X9240200Y-8300400D01*
X9240200Y-8260400D02*
X9200200Y-8300400D01*
X9200200Y-8362000D02*
X9240200Y-8402000D01*
X9240200Y-8362000D02*
X9200200Y-8402000D01*
X9200200Y-8463600D02*
X9240200Y-8503600D01*
X9240200Y-8463600D02*
X9200200Y-8503600D01*
X9200200Y-8565200D02*
X9240200Y-8605200D01*
X9240200Y-8565200D02*
X9200200Y-8605200D01*
X9200200Y-8666800D02*
X9240200Y-8706800D01*
X9240200Y-8666800D02*
X9200200Y-8706800D01*
X9200200Y-8768400D02*
X9240200Y-8808400D01*
X9240200Y-8768400D02*
X9200200Y-8808400D01*
X9200200Y-8870000D02*
X9240200Y-8910000D01*
X9240200Y-8870000D02*
X9200200Y-8910000D01*
X9301800Y-8057200D02*
X9341800Y-8097200D01*
X9341800Y-8057200D02*
X9301800Y-8097200D01*
X9301800Y-8158800D02*
X9341800Y-8198800D01*
X9341800Y-8158800D02*
X9301800Y-8198800D01*
X9301800Y-8260400D02*
X9341800Y-8300400D01*
X9341800Y-8260400D02*
X9301800Y-8300400D01*
X9301800Y-8362000D02*
X9341800Y-8402000D01*
X9341800Y-8362000D02*
X9301800Y-8402000D01*
X9301800Y-8463600D02*
X9341800Y-8503600D01*
X9341800Y-8463600D02*
X9301800Y-8503600D01*
X9301800Y-8565200D02*
X9341800Y-8605200D01*
X9341800Y-8565200D02*
X9301800Y-8605200D01*
X9301800Y-8666800D02*
X9341800Y-8706800D01*
X9341800Y-8666800D02*
X9301800Y-8706800D01*
X9301800Y-8768400D02*
X9341800Y-8808400D01*
X9341800Y-8768400D02*
X9301800Y-8808400D01*
X9327200Y-9505000D02*
X9367200Y-9545000D01*
X9367200Y-9505000D02*
X9327200Y-9545000D01*
X9327200Y-9632000D02*
X9367200Y-9672000D01*
X9367200Y-9632000D02*
X9327200Y-9672000D01*
X9327200Y-9759000D02*
X9367200Y-9799000D01*
X9367200Y-9759000D02*
X9327200Y-9799000D01*
X9378000Y-11537000D02*
X9418000Y-11577000D01*
X9418000Y-11537000D02*
X9378000Y-11577000D01*
X9454200Y-9505000D02*
X9494200Y-9545000D01*
X9494200Y-9505000D02*
X9454200Y-9545000D01*
X9454200Y-9632000D02*
X9494200Y-9672000D01*
X9494200Y-9632000D02*
X9454200Y-9672000D01*
X9454200Y-9759000D02*
X9494200Y-9799000D01*
X9494200Y-9759000D02*
X9454200Y-9799000D01*
X9886000Y-11537000D02*
X9926000Y-11577000D01*
X9926000Y-11537000D02*
X9886000Y-11577000D01*
X9952040Y-9245920D02*
X9992040Y-9285920D01*
X9992040Y-9245920D02*
X9952040Y-9285920D01*
X10007920Y-9337360D02*
X10047920Y-9377360D01*
X10047920Y-9337360D02*
X10007920Y-9377360D01*
X10073960Y-9251000D02*
X10113960Y-9291000D01*
X10113960Y-9251000D02*
X10073960Y-9291000D01*
X10124760Y-9337360D02*
X10164760Y-9377360D01*
X10164760Y-9337360D02*
X10124760Y-9377360D01*
X10150160Y-8549960D02*
X10190160Y-8589960D01*
X10190160Y-8549960D02*
X10150160Y-8589960D01*
X10195880Y-9251000D02*
X10235880Y-9291000D01*
X10235880Y-9251000D02*
X10195880Y-9291000D01*
X10206040Y-8458520D02*
X10246040Y-8498520D01*
X10246040Y-8458520D02*
X10206040Y-8498520D01*
X10292400Y-8870000D02*
X10332400Y-8910000D01*
X10332400Y-8870000D02*
X10292400Y-8910000D01*
X10343200Y-9276400D02*
X10383200Y-9316400D01*
X10383200Y-9276400D02*
X10343200Y-9316400D01*
X10343200Y-9378000D02*
X10383200Y-9418000D01*
X10383200Y-9378000D02*
X10343200Y-9418000D01*
X10343200Y-9479600D02*
X10383200Y-9519600D01*
X10383200Y-9479600D02*
X10343200Y-9519600D01*
X10347842Y-8786836D02*
X10387842Y-8826836D01*
X10387842Y-8786836D02*
X10347842Y-8826836D01*
X10444800Y-8870000D02*
X10484800Y-8910000D01*
X10484800Y-8870000D02*
X10444800Y-8910000D01*
X10454960Y-8458520D02*
X10494960Y-8498520D01*
X10494960Y-8458520D02*
X10454960Y-8498520D01*
X10536240Y-8549960D02*
X10576240Y-8589960D01*
X10576240Y-8549960D02*
X10536240Y-8589960D01*
X10571800Y-8870000D02*
X10611800Y-8910000D01*
X10611800Y-8870000D02*
X10571800Y-8910000D01*
X10698800Y-8793800D02*
X10738800Y-8833800D01*
X10738800Y-8793800D02*
X10698800Y-8833800D01*
X10775000Y-8870000D02*
X10815000Y-8910000D01*
X10815000Y-8870000D02*
X10775000Y-8910000D01*
X10825800Y-9276400D02*
X10865800Y-9316400D01*
X10865800Y-9276400D02*
X10825800Y-9316400D01*
X10825800Y-9378000D02*
X10865800Y-9418000D01*
X10865800Y-9378000D02*
X10825800Y-9418000D01*
X10825800Y-9479600D02*
X10865800Y-9519600D01*
X10865800Y-9479600D02*
X10825800Y-9519600D01*
X10978200Y-9301800D02*
X11018200Y-9341800D01*
X11018200Y-9301800D02*
X10978200Y-9341800D01*
X11029000Y-9047800D02*
X11069000Y-9087800D01*
X11069000Y-9047800D02*
X11029000Y-9087800D01*
X11029000Y-9174800D02*
X11069000Y-9214800D01*
X11069000Y-9174800D02*
X11029000Y-9214800D01*
X11156000Y-9174800D02*
X11196000Y-9214800D01*
X11196000Y-9174800D02*
X11156000Y-9214800D01*
X11486200Y-9047800D02*
X11526200Y-9087800D01*
X11526200Y-9047800D02*
X11486200Y-9087800D01*
X11486200Y-9174800D02*
X11526200Y-9214800D01*
X11526200Y-9174800D02*
X11486200Y-9214800D01*
X11486200Y-9301800D02*
X11526200Y-9341800D01*
X11526200Y-9301800D02*
X11486200Y-9341800D01*
X11486200Y-9428800D02*
X11526200Y-9468800D01*
X11526200Y-9428800D02*
X11486200Y-9468800D01*
X11613200Y-9047800D02*
X11653200Y-9087800D01*
X11653200Y-9047800D02*
X11613200Y-9087800D01*
X11613200Y-9174800D02*
X11653200Y-9214800D01*
X11653200Y-9174800D02*
X11613200Y-9214800D01*
X11613200Y-9301800D02*
X11653200Y-9341800D01*
X11653200Y-9301800D02*
X11613200Y-9341800D01*
X11613200Y-9428800D02*
X11653200Y-9468800D01*
X11653200Y-9428800D02*
X11613200Y-9468800D01*
X11740200Y-9047800D02*
X11780200Y-9087800D01*
X11780200Y-9047800D02*
X11740200Y-9087800D01*
X11740200Y-9174800D02*
X11780200Y-9214800D01*
X11780200Y-9174800D02*
X11740200Y-9214800D01*
X11740200Y-9301800D02*
X11780200Y-9341800D01*
X11780200Y-9301800D02*
X11740200Y-9341800D01*
X11740200Y-9428800D02*
X11780200Y-9468800D01*
X11780200Y-9428800D02*
X11740200Y-9468800D01*
X11841800Y-11333800D02*
X11881800Y-11373800D01*
X11881800Y-11333800D02*
X11841800Y-11373800D01*
X11867200Y-9047800D02*
X11907200Y-9087800D01*
X11907200Y-9047800D02*
X11867200Y-9087800D01*
X11867200Y-9174800D02*
X11907200Y-9214800D01*
X11907200Y-9174800D02*
X11867200Y-9214800D01*
X11867200Y-9301800D02*
X11907200Y-9341800D01*
X11907200Y-9301800D02*
X11867200Y-9341800D01*
X11867200Y-9428800D02*
X11907200Y-9468800D01*
X11907200Y-9428800D02*
X11867200Y-9468800D01*
D13*
X10372400Y-12400280D02*
G75*
G03*
X10372400Y-12400280I-60000J0D01*
G01*
X10626400Y-12400280D02*
G75*
G03*
X10626400Y-12400280I-60000J0D01*
G01*
X10880400Y-12400280D02*
G75*
G03*
X10880400Y-12400280I-60000J0D01*
G01*
X11134400Y-12400280D02*
G75*
G03*
X11134400Y-12400280I-60000J0D01*
G01*
X11388400Y-12400280D02*
G75*
G03*
X11388400Y-12400280I-60000J0D01*
G01*
X11642400Y-12400280D02*
G75*
G03*
X11642400Y-12400280I-60000J0D01*
G01*
D14*
X8509000Y-8497600D02*
X8509000Y-8897600D01*
X8309000Y-8697600D02*
X8709000Y-8697600D01*
X8509000Y-12347600D02*
X8509000Y-12747600D01*
X8309000Y-12547600D02*
X8709000Y-12547600D01*
X10000000Y-5300000D02*
X10000000Y-5700000D01*
X9800000Y-5500000D02*
X10200000Y-5500000D01*
X10000000Y-6300000D02*
X10000000Y-6700000D01*
X9800000Y-6500000D02*
X10200000Y-6500000D01*
X10000000Y-7300000D02*
X10000000Y-7700000D01*
X9800000Y-7500000D02*
X10200000Y-7500000D01*
X11500000Y-5300000D02*
X11500000Y-5700000D01*
X11300000Y-5500000D02*
X11700000Y-5500000D01*
X11500000Y-6300000D02*
X11500000Y-6700000D01*
X11300000Y-6500000D02*
X11700000Y-6500000D01*
X11500000Y-7300000D02*
X11500000Y-7700000D01*
X11300000Y-7500000D02*
X11700000Y-7500000D01*
D11*
X5255119Y-13312976D02*
X5255119Y-13112976D01*
X5302738Y-13112976D01*
X5331310Y-13122500D01*
X5350357Y-13141548D01*
X5359881Y-13160595D01*
X5369405Y-13198690D01*
X5369405Y-13227262D01*
X5359881Y-13265357D01*
X5350357Y-13284405D01*
X5331310Y-13303452D01*
X5302738Y-13312976D01*
X5255119Y-13312976D01*
X5455119Y-13312976D02*
X5455119Y-13179643D01*
X5455119Y-13217738D02*
X5464643Y-13198690D01*
X5474167Y-13189167D01*
X5493214Y-13179643D01*
X5512262Y-13179643D01*
X5578929Y-13312976D02*
X5578929Y-13179643D01*
X5578929Y-13112976D02*
X5569405Y-13122500D01*
X5578929Y-13132024D01*
X5588452Y-13122500D01*
X5578929Y-13112976D01*
X5578929Y-13132024D01*
X5702738Y-13312976D02*
X5683690Y-13303452D01*
X5674167Y-13284405D01*
X5674167Y-13112976D01*
X5807500Y-13312976D02*
X5788452Y-13303452D01*
X5778928Y-13284405D01*
X5778928Y-13112976D01*
X6036071Y-13312976D02*
X6036071Y-13112976D01*
X6102738Y-13255833D01*
X6169405Y-13112976D01*
X6169405Y-13312976D01*
X6350357Y-13312976D02*
X6350357Y-13208214D01*
X6340833Y-13189167D01*
X6321786Y-13179643D01*
X6283690Y-13179643D01*
X6264643Y-13189167D01*
X6350357Y-13303452D02*
X6331309Y-13312976D01*
X6283690Y-13312976D01*
X6264643Y-13303452D01*
X6255119Y-13284405D01*
X6255119Y-13265357D01*
X6264643Y-13246309D01*
X6283690Y-13236786D01*
X6331309Y-13236786D01*
X6350357Y-13227262D01*
X6445595Y-13179643D02*
X6445595Y-13379643D01*
X6445595Y-13189167D02*
X6464643Y-13179643D01*
X6502738Y-13179643D01*
X6521786Y-13189167D01*
X6531309Y-13198690D01*
X6540833Y-13217738D01*
X6540833Y-13274881D01*
X6531309Y-13293928D01*
X6521786Y-13303452D01*
X6502738Y-13312976D01*
X6464643Y-13312976D01*
X6445595Y-13303452D01*
X6626548Y-13293928D02*
X6636071Y-13303452D01*
X6626548Y-13312976D01*
X6617024Y-13303452D01*
X6626548Y-13293928D01*
X6626548Y-13312976D01*
X6626548Y-13189167D02*
X6636071Y-13198690D01*
X6626548Y-13208214D01*
X6617024Y-13198690D01*
X6626548Y-13189167D01*
X6626548Y-13208214D01*
D12*
X4957500Y-13622500D02*
X4997500Y-13662500D01*
X4997500Y-13622500D02*
X4957500Y-13662500D01*
D11*
X5293214Y-13532976D02*
X5312262Y-13532976D01*
X5331310Y-13542500D01*
X5340833Y-13552024D01*
X5350357Y-13571071D01*
X5359881Y-13609167D01*
X5359881Y-13656786D01*
X5350357Y-13694881D01*
X5340833Y-13713928D01*
X5331310Y-13723452D01*
X5312262Y-13732976D01*
X5293214Y-13732976D01*
X5274167Y-13723452D01*
X5264643Y-13713928D01*
X5255119Y-13694881D01*
X5245595Y-13656786D01*
X5245595Y-13609167D01*
X5255119Y-13571071D01*
X5264643Y-13552024D01*
X5274167Y-13542500D01*
X5293214Y-13532976D01*
X5445595Y-13713928D02*
X5455119Y-13723452D01*
X5445595Y-13732976D01*
X5436071Y-13723452D01*
X5445595Y-13713928D01*
X5445595Y-13732976D01*
X5626548Y-13599643D02*
X5626548Y-13732976D01*
X5578929Y-13523452D02*
X5531310Y-13666309D01*
X5655119Y-13666309D01*
X5769405Y-13532976D02*
X5788452Y-13532976D01*
X5807500Y-13542500D01*
X5817024Y-13552024D01*
X5826548Y-13571071D01*
X5836071Y-13609167D01*
X5836071Y-13656786D01*
X5826548Y-13694881D01*
X5817024Y-13713928D01*
X5807500Y-13723452D01*
X5788452Y-13732976D01*
X5769405Y-13732976D01*
X5750357Y-13723452D01*
X5740833Y-13713928D01*
X5731309Y-13694881D01*
X5721786Y-13656786D01*
X5721786Y-13609167D01*
X5731309Y-13571071D01*
X5740833Y-13552024D01*
X5750357Y-13542500D01*
X5769405Y-13532976D01*
X5959881Y-13532976D02*
X5978928Y-13532976D01*
X5997976Y-13542500D01*
X6007500Y-13552024D01*
X6017024Y-13571071D01*
X6026548Y-13609167D01*
X6026548Y-13656786D01*
X6017024Y-13694881D01*
X6007500Y-13713928D01*
X5997976Y-13723452D01*
X5978928Y-13732976D01*
X5959881Y-13732976D01*
X5940833Y-13723452D01*
X5931309Y-13713928D01*
X5921786Y-13694881D01*
X5912262Y-13656786D01*
X5912262Y-13609167D01*
X5921786Y-13571071D01*
X5931309Y-13552024D01*
X5940833Y-13542500D01*
X5959881Y-13532976D01*
X6112262Y-13732976D02*
X6112262Y-13599643D01*
X6112262Y-13618690D02*
X6121786Y-13609167D01*
X6140833Y-13599643D01*
X6169405Y-13599643D01*
X6188452Y-13609167D01*
X6197976Y-13628214D01*
X6197976Y-13732976D01*
X6197976Y-13628214D02*
X6207500Y-13609167D01*
X6226548Y-13599643D01*
X6255119Y-13599643D01*
X6274167Y-13609167D01*
X6283690Y-13628214D01*
X6283690Y-13732976D01*
X6378928Y-13732976D02*
X6378928Y-13599643D01*
X6378928Y-13618690D02*
X6388452Y-13609167D01*
X6407500Y-13599643D01*
X6436071Y-13599643D01*
X6455119Y-13609167D01*
X6464643Y-13628214D01*
X6464643Y-13732976D01*
X6464643Y-13628214D02*
X6474167Y-13609167D01*
X6493214Y-13599643D01*
X6521786Y-13599643D01*
X6540833Y-13609167D01*
X6550357Y-13628214D01*
X6550357Y-13732976D01*
X6940833Y-13523452D02*
X6769405Y-13780595D01*
X7197976Y-13532976D02*
X7217024Y-13532976D01*
X7236071Y-13542500D01*
X7245595Y-13552024D01*
X7255119Y-13571071D01*
X7264643Y-13609167D01*
X7264643Y-13656786D01*
X7255119Y-13694881D01*
X7245595Y-13713928D01*
X7236071Y-13723452D01*
X7217024Y-13732976D01*
X7197976Y-13732976D01*
X7178928Y-13723452D01*
X7169405Y-13713928D01*
X7159881Y-13694881D01*
X7150357Y-13656786D01*
X7150357Y-13609167D01*
X7159881Y-13571071D01*
X7169405Y-13552024D01*
X7178928Y-13542500D01*
X7197976Y-13532976D01*
X7350357Y-13713928D02*
X7359881Y-13723452D01*
X7350357Y-13732976D01*
X7340833Y-13723452D01*
X7350357Y-13713928D01*
X7350357Y-13732976D01*
X7483690Y-13532976D02*
X7502738Y-13532976D01*
X7521786Y-13542500D01*
X7531309Y-13552024D01*
X7540833Y-13571071D01*
X7550357Y-13609167D01*
X7550357Y-13656786D01*
X7540833Y-13694881D01*
X7531309Y-13713928D01*
X7521786Y-13723452D01*
X7502738Y-13732976D01*
X7483690Y-13732976D01*
X7464643Y-13723452D01*
X7455119Y-13713928D01*
X7445595Y-13694881D01*
X7436071Y-13656786D01*
X7436071Y-13609167D01*
X7445595Y-13571071D01*
X7455119Y-13552024D01*
X7464643Y-13542500D01*
X7483690Y-13532976D01*
X7740833Y-13732976D02*
X7626548Y-13732976D01*
X7683690Y-13732976D02*
X7683690Y-13532976D01*
X7664643Y-13561548D01*
X7645595Y-13580595D01*
X7626548Y-13590119D01*
X7921786Y-13532976D02*
X7826548Y-13532976D01*
X7817024Y-13628214D01*
X7826548Y-13618690D01*
X7845595Y-13609167D01*
X7893214Y-13609167D01*
X7912262Y-13618690D01*
X7921786Y-13628214D01*
X7931309Y-13647262D01*
X7931309Y-13694881D01*
X7921786Y-13713928D01*
X7912262Y-13723452D01*
X7893214Y-13732976D01*
X7845595Y-13732976D01*
X7826548Y-13723452D01*
X7817024Y-13713928D01*
X7997976Y-13532976D02*
X8131309Y-13532976D01*
X8045595Y-13732976D01*
X8197976Y-13532976D02*
X8197976Y-13571071D01*
X8274167Y-13532976D02*
X8274167Y-13571071D01*
X8569405Y-13809167D02*
X8559881Y-13799643D01*
X8540833Y-13771071D01*
X8531310Y-13752024D01*
X8521786Y-13723452D01*
X8512262Y-13675833D01*
X8512262Y-13637738D01*
X8521786Y-13590119D01*
X8531310Y-13561548D01*
X8540833Y-13542500D01*
X8559881Y-13513928D01*
X8569405Y-13504405D01*
X8750357Y-13732976D02*
X8636071Y-13732976D01*
X8693214Y-13732976D02*
X8693214Y-13532976D01*
X8674167Y-13561548D01*
X8655119Y-13580595D01*
X8636071Y-13590119D01*
X8921786Y-13532976D02*
X8883690Y-13532976D01*
X8864643Y-13542500D01*
X8855119Y-13552024D01*
X8836071Y-13580595D01*
X8826548Y-13618690D01*
X8826548Y-13694881D01*
X8836071Y-13713928D01*
X8845595Y-13723452D01*
X8864643Y-13732976D01*
X8902738Y-13732976D01*
X8921786Y-13723452D01*
X8931310Y-13713928D01*
X8940833Y-13694881D01*
X8940833Y-13647262D01*
X8931310Y-13628214D01*
X8921786Y-13618690D01*
X8902738Y-13609167D01*
X8864643Y-13609167D01*
X8845595Y-13618690D01*
X8836071Y-13628214D01*
X8826548Y-13647262D01*
X9112262Y-13599643D02*
X9112262Y-13732976D01*
X9064643Y-13523452D02*
X9017024Y-13666309D01*
X9140833Y-13666309D01*
X9369405Y-13732976D02*
X9369405Y-13532976D01*
X9455119Y-13732976D02*
X9455119Y-13628214D01*
X9445595Y-13609167D01*
X9426548Y-13599643D01*
X9397976Y-13599643D01*
X9378929Y-13609167D01*
X9369405Y-13618690D01*
X9578929Y-13732976D02*
X9559881Y-13723452D01*
X9550357Y-13713928D01*
X9540833Y-13694881D01*
X9540833Y-13637738D01*
X9550357Y-13618690D01*
X9559881Y-13609167D01*
X9578929Y-13599643D01*
X9607500Y-13599643D01*
X9626548Y-13609167D01*
X9636071Y-13618690D01*
X9645595Y-13637738D01*
X9645595Y-13694881D01*
X9636071Y-13713928D01*
X9626548Y-13723452D01*
X9607500Y-13732976D01*
X9578929Y-13732976D01*
X9759881Y-13732976D02*
X9740833Y-13723452D01*
X9731310Y-13704405D01*
X9731310Y-13532976D01*
X9912262Y-13723452D02*
X9893214Y-13732976D01*
X9855119Y-13732976D01*
X9836071Y-13723452D01*
X9826548Y-13704405D01*
X9826548Y-13628214D01*
X9836071Y-13609167D01*
X9855119Y-13599643D01*
X9893214Y-13599643D01*
X9912262Y-13609167D01*
X9921786Y-13628214D01*
X9921786Y-13647262D01*
X9826548Y-13666309D01*
X9997976Y-13723452D02*
X10017024Y-13732976D01*
X10055119Y-13732976D01*
X10074167Y-13723452D01*
X10083690Y-13704405D01*
X10083690Y-13694881D01*
X10074167Y-13675833D01*
X10055119Y-13666309D01*
X10026548Y-13666309D01*
X10007500Y-13656786D01*
X9997976Y-13637738D01*
X9997976Y-13628214D01*
X10007500Y-13609167D01*
X10026548Y-13599643D01*
X10055119Y-13599643D01*
X10074167Y-13609167D01*
X10150357Y-13809167D02*
X10159881Y-13799643D01*
X10178929Y-13771071D01*
X10188452Y-13752024D01*
X10197976Y-13723452D01*
X10207500Y-13675833D01*
X10207500Y-13637738D01*
X10197976Y-13590119D01*
X10188452Y-13561548D01*
X10178929Y-13542500D01*
X10159881Y-13513928D01*
X10150357Y-13504405D01*
D13*
X4997500Y-13906500D02*
G75*
G03*
X4997500Y-13906500I-60000J0D01*
G01*
D11*
X5359881Y-13996976D02*
X5245595Y-13996976D01*
X5302738Y-13996976D02*
X5302738Y-13796976D01*
X5283690Y-13825548D01*
X5264643Y-13844595D01*
X5245595Y-13854119D01*
X5445595Y-13977928D02*
X5455119Y-13987452D01*
X5445595Y-13996976D01*
X5436071Y-13987452D01*
X5445595Y-13977928D01*
X5445595Y-13996976D01*
X5531310Y-13816024D02*
X5540833Y-13806500D01*
X5559881Y-13796976D01*
X5607500Y-13796976D01*
X5626548Y-13806500D01*
X5636071Y-13816024D01*
X5645595Y-13835071D01*
X5645595Y-13854119D01*
X5636071Y-13882690D01*
X5521786Y-13996976D01*
X5645595Y-13996976D01*
X5769405Y-13796976D02*
X5788452Y-13796976D01*
X5807500Y-13806500D01*
X5817024Y-13816024D01*
X5826548Y-13835071D01*
X5836071Y-13873167D01*
X5836071Y-13920786D01*
X5826548Y-13958881D01*
X5817024Y-13977928D01*
X5807500Y-13987452D01*
X5788452Y-13996976D01*
X5769405Y-13996976D01*
X5750357Y-13987452D01*
X5740833Y-13977928D01*
X5731309Y-13958881D01*
X5721786Y-13920786D01*
X5721786Y-13873167D01*
X5731309Y-13835071D01*
X5740833Y-13816024D01*
X5750357Y-13806500D01*
X5769405Y-13796976D01*
X5959881Y-13796976D02*
X5978928Y-13796976D01*
X5997976Y-13806500D01*
X6007500Y-13816024D01*
X6017024Y-13835071D01*
X6026548Y-13873167D01*
X6026548Y-13920786D01*
X6017024Y-13958881D01*
X6007500Y-13977928D01*
X5997976Y-13987452D01*
X5978928Y-13996976D01*
X5959881Y-13996976D01*
X5940833Y-13987452D01*
X5931309Y-13977928D01*
X5921786Y-13958881D01*
X5912262Y-13920786D01*
X5912262Y-13873167D01*
X5921786Y-13835071D01*
X5931309Y-13816024D01*
X5940833Y-13806500D01*
X5959881Y-13796976D01*
X6112262Y-13996976D02*
X6112262Y-13863643D01*
X6112262Y-13882690D02*
X6121786Y-13873167D01*
X6140833Y-13863643D01*
X6169405Y-13863643D01*
X6188452Y-13873167D01*
X6197976Y-13892214D01*
X6197976Y-13996976D01*
X6197976Y-13892214D02*
X6207500Y-13873167D01*
X6226548Y-13863643D01*
X6255119Y-13863643D01*
X6274167Y-13873167D01*
X6283690Y-13892214D01*
X6283690Y-13996976D01*
X6378928Y-13996976D02*
X6378928Y-13863643D01*
X6378928Y-13882690D02*
X6388452Y-13873167D01*
X6407500Y-13863643D01*
X6436071Y-13863643D01*
X6455119Y-13873167D01*
X6464643Y-13892214D01*
X6464643Y-13996976D01*
X6464643Y-13892214D02*
X6474167Y-13873167D01*
X6493214Y-13863643D01*
X6521786Y-13863643D01*
X6540833Y-13873167D01*
X6550357Y-13892214D01*
X6550357Y-13996976D01*
X6940833Y-13787452D02*
X6769405Y-14044595D01*
X7197976Y-13796976D02*
X7217024Y-13796976D01*
X7236071Y-13806500D01*
X7245595Y-13816024D01*
X7255119Y-13835071D01*
X7264643Y-13873167D01*
X7264643Y-13920786D01*
X7255119Y-13958881D01*
X7245595Y-13977928D01*
X7236071Y-13987452D01*
X7217024Y-13996976D01*
X7197976Y-13996976D01*
X7178928Y-13987452D01*
X7169405Y-13977928D01*
X7159881Y-13958881D01*
X7150357Y-13920786D01*
X7150357Y-13873167D01*
X7159881Y-13835071D01*
X7169405Y-13816024D01*
X7178928Y-13806500D01*
X7197976Y-13796976D01*
X7350357Y-13977928D02*
X7359881Y-13987452D01*
X7350357Y-13996976D01*
X7340833Y-13987452D01*
X7350357Y-13977928D01*
X7350357Y-13996976D01*
X7483690Y-13796976D02*
X7502738Y-13796976D01*
X7521786Y-13806500D01*
X7531309Y-13816024D01*
X7540833Y-13835071D01*
X7550357Y-13873167D01*
X7550357Y-13920786D01*
X7540833Y-13958881D01*
X7531309Y-13977928D01*
X7521786Y-13987452D01*
X7502738Y-13996976D01*
X7483690Y-13996976D01*
X7464643Y-13987452D01*
X7455119Y-13977928D01*
X7445595Y-13958881D01*
X7436071Y-13920786D01*
X7436071Y-13873167D01*
X7445595Y-13835071D01*
X7455119Y-13816024D01*
X7464643Y-13806500D01*
X7483690Y-13796976D01*
X7721786Y-13863643D02*
X7721786Y-13996976D01*
X7674167Y-13787452D02*
X7626548Y-13930309D01*
X7750357Y-13930309D01*
X7807500Y-13796976D02*
X7940833Y-13796976D01*
X7855119Y-13996976D01*
X8007500Y-13816024D02*
X8017024Y-13806500D01*
X8036071Y-13796976D01*
X8083690Y-13796976D01*
X8102738Y-13806500D01*
X8112262Y-13816024D01*
X8121786Y-13835071D01*
X8121786Y-13854119D01*
X8112262Y-13882690D01*
X7997976Y-13996976D01*
X8121786Y-13996976D01*
X8197976Y-13796976D02*
X8197976Y-13835071D01*
X8274167Y-13796976D02*
X8274167Y-13835071D01*
X8569405Y-14073167D02*
X8559881Y-14063643D01*
X8540833Y-14035071D01*
X8531310Y-14016024D01*
X8521786Y-13987452D01*
X8512262Y-13939833D01*
X8512262Y-13901738D01*
X8521786Y-13854119D01*
X8531310Y-13825548D01*
X8540833Y-13806500D01*
X8559881Y-13777928D01*
X8569405Y-13768405D01*
X8731310Y-13796976D02*
X8693214Y-13796976D01*
X8674167Y-13806500D01*
X8664643Y-13816024D01*
X8645595Y-13844595D01*
X8636071Y-13882690D01*
X8636071Y-13958881D01*
X8645595Y-13977928D01*
X8655119Y-13987452D01*
X8674167Y-13996976D01*
X8712262Y-13996976D01*
X8731310Y-13987452D01*
X8740833Y-13977928D01*
X8750357Y-13958881D01*
X8750357Y-13911262D01*
X8740833Y-13892214D01*
X8731310Y-13882690D01*
X8712262Y-13873167D01*
X8674167Y-13873167D01*
X8655119Y-13882690D01*
X8645595Y-13892214D01*
X8636071Y-13911262D01*
X8988452Y-13996976D02*
X8988452Y-13796976D01*
X9074167Y-13996976D02*
X9074167Y-13892214D01*
X9064643Y-13873167D01*
X9045595Y-13863643D01*
X9017024Y-13863643D01*
X8997976Y-13873167D01*
X8988452Y-13882690D01*
X9197976Y-13996976D02*
X9178929Y-13987452D01*
X9169405Y-13977928D01*
X9159881Y-13958881D01*
X9159881Y-13901738D01*
X9169405Y-13882690D01*
X9178929Y-13873167D01*
X9197976Y-13863643D01*
X9226548Y-13863643D01*
X9245595Y-13873167D01*
X9255119Y-13882690D01*
X9264643Y-13901738D01*
X9264643Y-13958881D01*
X9255119Y-13977928D01*
X9245595Y-13987452D01*
X9226548Y-13996976D01*
X9197976Y-13996976D01*
X9378929Y-13996976D02*
X9359881Y-13987452D01*
X9350357Y-13968405D01*
X9350357Y-13796976D01*
X9531310Y-13987452D02*
X9512262Y-13996976D01*
X9474167Y-13996976D01*
X9455119Y-13987452D01*
X9445595Y-13968405D01*
X9445595Y-13892214D01*
X9455119Y-13873167D01*
X9474167Y-13863643D01*
X9512262Y-13863643D01*
X9531310Y-13873167D01*
X9540833Y-13892214D01*
X9540833Y-13911262D01*
X9445595Y-13930309D01*
X9617024Y-13987452D02*
X9636071Y-13996976D01*
X9674167Y-13996976D01*
X9693214Y-13987452D01*
X9702738Y-13968405D01*
X9702738Y-13958881D01*
X9693214Y-13939833D01*
X9674167Y-13930309D01*
X9645595Y-13930309D01*
X9626548Y-13920786D01*
X9617024Y-13901738D01*
X9617024Y-13892214D01*
X9626548Y-13873167D01*
X9645595Y-13863643D01*
X9674167Y-13863643D01*
X9693214Y-13873167D01*
X9769405Y-14073167D02*
X9778929Y-14063643D01*
X9797976Y-14035071D01*
X9807500Y-14016024D01*
X9817024Y-13987452D01*
X9826548Y-13939833D01*
X9826548Y-13901738D01*
X9817024Y-13854119D01*
X9807500Y-13825548D01*
X9797976Y-13806500D01*
X9778929Y-13777928D01*
X9769405Y-13768405D01*
X4897500Y-14070500D02*
X4897500Y-14270500D01*
X4797500Y-14170500D02*
X4997500Y-14170500D01*
X5340833Y-14127643D02*
X5340833Y-14260976D01*
X5293214Y-14051452D02*
X5245595Y-14194309D01*
X5369405Y-14194309D01*
X5445595Y-14241928D02*
X5455119Y-14251452D01*
X5445595Y-14260976D01*
X5436071Y-14251452D01*
X5445595Y-14241928D01*
X5445595Y-14260976D01*
X5578929Y-14060976D02*
X5597976Y-14060976D01*
X5617024Y-14070500D01*
X5626548Y-14080024D01*
X5636071Y-14099071D01*
X5645595Y-14137167D01*
X5645595Y-14184786D01*
X5636071Y-14222881D01*
X5626548Y-14241928D01*
X5617024Y-14251452D01*
X5597976Y-14260976D01*
X5578929Y-14260976D01*
X5559881Y-14251452D01*
X5550357Y-14241928D01*
X5540833Y-14222881D01*
X5531310Y-14184786D01*
X5531310Y-14137167D01*
X5540833Y-14099071D01*
X5550357Y-14080024D01*
X5559881Y-14070500D01*
X5578929Y-14060976D01*
X5769405Y-14060976D02*
X5788452Y-14060976D01*
X5807500Y-14070500D01*
X5817024Y-14080024D01*
X5826548Y-14099071D01*
X5836071Y-14137167D01*
X5836071Y-14184786D01*
X5826548Y-14222881D01*
X5817024Y-14241928D01*
X5807500Y-14251452D01*
X5788452Y-14260976D01*
X5769405Y-14260976D01*
X5750357Y-14251452D01*
X5740833Y-14241928D01*
X5731309Y-14222881D01*
X5721786Y-14184786D01*
X5721786Y-14137167D01*
X5731309Y-14099071D01*
X5740833Y-14080024D01*
X5750357Y-14070500D01*
X5769405Y-14060976D01*
X5959881Y-14060976D02*
X5978928Y-14060976D01*
X5997976Y-14070500D01*
X6007500Y-14080024D01*
X6017024Y-14099071D01*
X6026548Y-14137167D01*
X6026548Y-14184786D01*
X6017024Y-14222881D01*
X6007500Y-14241928D01*
X5997976Y-14251452D01*
X5978928Y-14260976D01*
X5959881Y-14260976D01*
X5940833Y-14251452D01*
X5931309Y-14241928D01*
X5921786Y-14222881D01*
X5912262Y-14184786D01*
X5912262Y-14137167D01*
X5921786Y-14099071D01*
X5931309Y-14080024D01*
X5940833Y-14070500D01*
X5959881Y-14060976D01*
X6112262Y-14260976D02*
X6112262Y-14127643D01*
X6112262Y-14146690D02*
X6121786Y-14137167D01*
X6140833Y-14127643D01*
X6169405Y-14127643D01*
X6188452Y-14137167D01*
X6197976Y-14156214D01*
X6197976Y-14260976D01*
X6197976Y-14156214D02*
X6207500Y-14137167D01*
X6226548Y-14127643D01*
X6255119Y-14127643D01*
X6274167Y-14137167D01*
X6283690Y-14156214D01*
X6283690Y-14260976D01*
X6378928Y-14260976D02*
X6378928Y-14127643D01*
X6378928Y-14146690D02*
X6388452Y-14137167D01*
X6407500Y-14127643D01*
X6436071Y-14127643D01*
X6455119Y-14137167D01*
X6464643Y-14156214D01*
X6464643Y-14260976D01*
X6464643Y-14156214D02*
X6474167Y-14137167D01*
X6493214Y-14127643D01*
X6521786Y-14127643D01*
X6540833Y-14137167D01*
X6550357Y-14156214D01*
X6550357Y-14260976D01*
X6940833Y-14051452D02*
X6769405Y-14308595D01*
X7197976Y-14060976D02*
X7217024Y-14060976D01*
X7236071Y-14070500D01*
X7245595Y-14080024D01*
X7255119Y-14099071D01*
X7264643Y-14137167D01*
X7264643Y-14184786D01*
X7255119Y-14222881D01*
X7245595Y-14241928D01*
X7236071Y-14251452D01*
X7217024Y-14260976D01*
X7197976Y-14260976D01*
X7178928Y-14251452D01*
X7169405Y-14241928D01*
X7159881Y-14222881D01*
X7150357Y-14184786D01*
X7150357Y-14137167D01*
X7159881Y-14099071D01*
X7169405Y-14080024D01*
X7178928Y-14070500D01*
X7197976Y-14060976D01*
X7350357Y-14241928D02*
X7359881Y-14251452D01*
X7350357Y-14260976D01*
X7340833Y-14251452D01*
X7350357Y-14241928D01*
X7350357Y-14260976D01*
X7550357Y-14260976D02*
X7436071Y-14260976D01*
X7493214Y-14260976D02*
X7493214Y-14060976D01*
X7474167Y-14089548D01*
X7455119Y-14108595D01*
X7436071Y-14118119D01*
X7731309Y-14060976D02*
X7636071Y-14060976D01*
X7626548Y-14156214D01*
X7636071Y-14146690D01*
X7655119Y-14137167D01*
X7702738Y-14137167D01*
X7721786Y-14146690D01*
X7731309Y-14156214D01*
X7740833Y-14175262D01*
X7740833Y-14222881D01*
X7731309Y-14241928D01*
X7721786Y-14251452D01*
X7702738Y-14260976D01*
X7655119Y-14260976D01*
X7636071Y-14251452D01*
X7626548Y-14241928D01*
X7807500Y-14060976D02*
X7940833Y-14060976D01*
X7855119Y-14260976D01*
X8112262Y-14060976D02*
X8017024Y-14060976D01*
X8007500Y-14156214D01*
X8017024Y-14146690D01*
X8036071Y-14137167D01*
X8083690Y-14137167D01*
X8102738Y-14146690D01*
X8112262Y-14156214D01*
X8121786Y-14175262D01*
X8121786Y-14222881D01*
X8112262Y-14241928D01*
X8102738Y-14251452D01*
X8083690Y-14260976D01*
X8036071Y-14260976D01*
X8017024Y-14251452D01*
X8007500Y-14241928D01*
X8197976Y-14060976D02*
X8197976Y-14099071D01*
X8274167Y-14060976D02*
X8274167Y-14099071D01*
X8569405Y-14337167D02*
X8559881Y-14327643D01*
X8540833Y-14299071D01*
X8531310Y-14280024D01*
X8521786Y-14251452D01*
X8512262Y-14203833D01*
X8512262Y-14165738D01*
X8521786Y-14118119D01*
X8531310Y-14089548D01*
X8540833Y-14070500D01*
X8559881Y-14041928D01*
X8569405Y-14032405D01*
X8674167Y-14146690D02*
X8655119Y-14137167D01*
X8645595Y-14127643D01*
X8636071Y-14108595D01*
X8636071Y-14099071D01*
X8645595Y-14080024D01*
X8655119Y-14070500D01*
X8674167Y-14060976D01*
X8712262Y-14060976D01*
X8731310Y-14070500D01*
X8740833Y-14080024D01*
X8750357Y-14099071D01*
X8750357Y-14108595D01*
X8740833Y-14127643D01*
X8731310Y-14137167D01*
X8712262Y-14146690D01*
X8674167Y-14146690D01*
X8655119Y-14156214D01*
X8645595Y-14165738D01*
X8636071Y-14184786D01*
X8636071Y-14222881D01*
X8645595Y-14241928D01*
X8655119Y-14251452D01*
X8674167Y-14260976D01*
X8712262Y-14260976D01*
X8731310Y-14251452D01*
X8740833Y-14241928D01*
X8750357Y-14222881D01*
X8750357Y-14184786D01*
X8740833Y-14165738D01*
X8731310Y-14156214D01*
X8712262Y-14146690D01*
X8988452Y-14260976D02*
X8988452Y-14060976D01*
X9074167Y-14260976D02*
X9074167Y-14156214D01*
X9064643Y-14137167D01*
X9045595Y-14127643D01*
X9017024Y-14127643D01*
X8997976Y-14137167D01*
X8988452Y-14146690D01*
X9197976Y-14260976D02*
X9178929Y-14251452D01*
X9169405Y-14241928D01*
X9159881Y-14222881D01*
X9159881Y-14165738D01*
X9169405Y-14146690D01*
X9178929Y-14137167D01*
X9197976Y-14127643D01*
X9226548Y-14127643D01*
X9245595Y-14137167D01*
X9255119Y-14146690D01*
X9264643Y-14165738D01*
X9264643Y-14222881D01*
X9255119Y-14241928D01*
X9245595Y-14251452D01*
X9226548Y-14260976D01*
X9197976Y-14260976D01*
X9378929Y-14260976D02*
X9359881Y-14251452D01*
X9350357Y-14232405D01*
X9350357Y-14060976D01*
X9531310Y-14251452D02*
X9512262Y-14260976D01*
X9474167Y-14260976D01*
X9455119Y-14251452D01*
X9445595Y-14232405D01*
X9445595Y-14156214D01*
X9455119Y-14137167D01*
X9474167Y-14127643D01*
X9512262Y-14127643D01*
X9531310Y-14137167D01*
X9540833Y-14156214D01*
X9540833Y-14175262D01*
X9445595Y-14194309D01*
X9617024Y-14251452D02*
X9636071Y-14260976D01*
X9674167Y-14260976D01*
X9693214Y-14251452D01*
X9702738Y-14232405D01*
X9702738Y-14222881D01*
X9693214Y-14203833D01*
X9674167Y-14194309D01*
X9645595Y-14194309D01*
X9626548Y-14184786D01*
X9617024Y-14165738D01*
X9617024Y-14156214D01*
X9626548Y-14137167D01*
X9645595Y-14127643D01*
X9674167Y-14127643D01*
X9693214Y-14137167D01*
X9769405Y-14337167D02*
X9778929Y-14327643D01*
X9797976Y-14299071D01*
X9807500Y-14280024D01*
X9817024Y-14251452D01*
X9826548Y-14203833D01*
X9826548Y-14165738D01*
X9817024Y-14118119D01*
X9807500Y-14089548D01*
X9797976Y-14070500D01*
X9778929Y-14041928D01*
X9769405Y-14032405D01*
M02*
