G04 #@! TF.GenerationSoftware,KiCad,Pcbnew,(6.0.9-0)*
G04 #@! TF.CreationDate,2024-06-23T22:48:42+01:00*
G04 #@! TF.ProjectId,BalanceBoard,42616c61-6e63-4654-926f-6172642e6b69,rev?*
G04 #@! TF.SameCoordinates,Original*
G04 #@! TF.FileFunction,Paste,Top*
G04 #@! TF.FilePolarity,Positive*
%FSLAX46Y46*%
G04 Gerber Fmt 4.6, Leading zero omitted, Abs format (unit mm)*
G04 Created by KiCad (PCBNEW (6.0.9-0)) date 2024-06-23 22:48:42*
%MOMM*%
%LPD*%
G01*
G04 APERTURE LIST*
G04 Aperture macros list*
%AMRoundRect*
0 Rectangle with rounded corners*
0 $1 Rounding radius*
0 $2 $3 $4 $5 $6 $7 $8 $9 X,Y pos of 4 corners*
0 Add a 4 corners polygon primitive as box body*
4,1,4,$2,$3,$4,$5,$6,$7,$8,$9,$2,$3,0*
0 Add four circle primitives for the rounded corners*
1,1,$1+$1,$2,$3*
1,1,$1+$1,$4,$5*
1,1,$1+$1,$6,$7*
1,1,$1+$1,$8,$9*
0 Add four rect primitives between the rounded corners*
20,1,$1+$1,$2,$3,$4,$5,0*
20,1,$1+$1,$4,$5,$6,$7,0*
20,1,$1+$1,$6,$7,$8,$9,0*
20,1,$1+$1,$8,$9,$2,$3,0*%
G04 Aperture macros list end*
%ADD10R,0.700000X1.000000*%
%ADD11C,2.000000*%
%ADD12R,0.400000X1.400000*%
%ADD13R,1.000000X0.700000*%
%ADD14R,0.900000X1.500000*%
%ADD15R,1.500000X0.900000*%
%ADD16R,0.900000X0.900000*%
%ADD17R,0.600000X1.100000*%
%ADD18R,1.200000X1.400000*%
%ADD19R,3.500000X1.400000*%
%ADD20R,3.500000X1.000000*%
%ADD21RoundRect,0.075000X-0.350000X-0.075000X0.350000X-0.075000X0.350000X0.075000X-0.350000X0.075000X0*%
%ADD22RoundRect,0.075000X0.075000X-0.350000X0.075000X0.350000X-0.075000X0.350000X-0.075000X-0.350000X0*%
%ADD23R,1.400000X1.200000*%
%ADD24R,1.400000X3.500000*%
G04 APERTURE END LIST*
D10*
X112318800Y-115570000D03*
X110818800Y-115570000D03*
D11*
X55880000Y-58420000D03*
D10*
X88900000Y-102616000D03*
X87400000Y-102616000D03*
X101701600Y-94945200D03*
X100201600Y-94945200D03*
D12*
X109060123Y-83168000D03*
X108410123Y-83168000D03*
X107760123Y-83168000D03*
X107110123Y-83168000D03*
X106460123Y-83168000D03*
X105810123Y-83168000D03*
X105160123Y-83168000D03*
X104510123Y-83168000D03*
X103860123Y-83168000D03*
X103210123Y-83168000D03*
X102560123Y-83168000D03*
X101910123Y-83168000D03*
X101910123Y-90568000D03*
X102560123Y-90568000D03*
X103210123Y-90568000D03*
X103860123Y-90568000D03*
X104510123Y-90568000D03*
X105160123Y-90568000D03*
X105810123Y-90568000D03*
X106460123Y-90568000D03*
X107110123Y-90568000D03*
X107760123Y-90568000D03*
X108410123Y-90568000D03*
X109060123Y-90568000D03*
D10*
X57099200Y-82296000D03*
X55599200Y-82296000D03*
X61214000Y-62738000D03*
X59714000Y-62738000D03*
D13*
X97688400Y-90576400D03*
X97688400Y-89076400D03*
D11*
X61468000Y-95250000D03*
X104000000Y-60000000D03*
X55880000Y-66040000D03*
D10*
X106680000Y-93218000D03*
X105180000Y-93218000D03*
X58928000Y-118872000D03*
X57428000Y-118872000D03*
X97028000Y-100482400D03*
X95528000Y-100482400D03*
D13*
X99060000Y-116840000D03*
X99060000Y-118340000D03*
X111912400Y-90576400D03*
X111912400Y-89076400D03*
D11*
X111000000Y-60000000D03*
D10*
X58928000Y-121666000D03*
X57428000Y-121666000D03*
D11*
X111000000Y-70000000D03*
D14*
X57658000Y-115430000D03*
X58928000Y-115430000D03*
X60198000Y-115430000D03*
X61468000Y-115430000D03*
X62738000Y-115430000D03*
X64008000Y-115430000D03*
X65278000Y-115430000D03*
X66548000Y-115430000D03*
X67818000Y-115430000D03*
X69088000Y-115430000D03*
X70358000Y-115430000D03*
X71628000Y-115430000D03*
X72898000Y-115430000D03*
X74168000Y-115430000D03*
D15*
X75418000Y-112390000D03*
X75418000Y-111120000D03*
X75418000Y-109850000D03*
X75418000Y-108580000D03*
X75418000Y-107310000D03*
X75418000Y-106040000D03*
X75418000Y-104770000D03*
X75418000Y-103500000D03*
X75418000Y-102230000D03*
X75418000Y-100960000D03*
D14*
X74168000Y-97930000D03*
X72898000Y-97930000D03*
X71628000Y-97930000D03*
X70358000Y-97930000D03*
X69088000Y-97930000D03*
X67818000Y-97930000D03*
X66548000Y-97930000D03*
X65278000Y-97930000D03*
X64008000Y-97930000D03*
X62738000Y-97930000D03*
X61468000Y-97930000D03*
X60198000Y-97930000D03*
X58928000Y-97930000D03*
X57658000Y-97930000D03*
D16*
X66583000Y-108180000D03*
X64108000Y-106780000D03*
X64108000Y-109580000D03*
X65378000Y-108180000D03*
X65378000Y-106780000D03*
X66583000Y-106780000D03*
X65378000Y-109580000D03*
X64108000Y-108180000D03*
X66583000Y-109580000D03*
D13*
X99771200Y-90576400D03*
X99771200Y-89076400D03*
D11*
X71120000Y-66040000D03*
D10*
X63754000Y-52832000D03*
X62254000Y-52832000D03*
X66294000Y-121666000D03*
X64794000Y-121666000D03*
D13*
X112776000Y-119152800D03*
X112776000Y-117652800D03*
D10*
X118567200Y-120954800D03*
X117067200Y-120954800D03*
D13*
X93980000Y-116840000D03*
X93980000Y-118340000D03*
D10*
X98450400Y-84632800D03*
X96950400Y-84632800D03*
D17*
X116809600Y-115570000D03*
X115859600Y-115570000D03*
X114909600Y-115570000D03*
X114909600Y-118370000D03*
X116809600Y-118370000D03*
D11*
X104000000Y-70000000D03*
D10*
X70080000Y-121666000D03*
X68580000Y-121666000D03*
D18*
X95772000Y-103937600D03*
X93472000Y-103937600D03*
X91172000Y-103937600D03*
D19*
X93472000Y-110337600D03*
D10*
X58928000Y-126746000D03*
X57428000Y-126746000D03*
D20*
X112102000Y-107632000D03*
X112102000Y-105632000D03*
D19*
X117602000Y-103282000D03*
X117602000Y-109982000D03*
D10*
X59968000Y-71120000D03*
X61468000Y-71120000D03*
D13*
X74168000Y-118618000D03*
X74168000Y-120118000D03*
D10*
X98450400Y-86309200D03*
X96950400Y-86309200D03*
X63270000Y-124206000D03*
X64770000Y-124206000D03*
X66294000Y-118872000D03*
X64794000Y-118872000D03*
D11*
X104000000Y-80000000D03*
D10*
X106656000Y-94996000D03*
X105156000Y-94996000D03*
D21*
X61169000Y-56662000D03*
X61169000Y-57162000D03*
X61169000Y-57662000D03*
X61169000Y-58162000D03*
X61169000Y-58662000D03*
X61169000Y-59162000D03*
D22*
X61869000Y-59862000D03*
X62369000Y-59862000D03*
X62869000Y-59862000D03*
X63369000Y-59862000D03*
X63869000Y-59862000D03*
X64369000Y-59862000D03*
D21*
X65069000Y-59162000D03*
X65069000Y-58662000D03*
X65069000Y-58162000D03*
X65069000Y-57662000D03*
X65069000Y-57162000D03*
X65069000Y-56662000D03*
D22*
X64369000Y-55962000D03*
X63869000Y-55962000D03*
X63369000Y-55962000D03*
X62869000Y-55962000D03*
X62369000Y-55962000D03*
X61869000Y-55962000D03*
D13*
X67564000Y-58674000D03*
X67564000Y-57174000D03*
D10*
X60440000Y-124206000D03*
X58940000Y-124206000D03*
D11*
X111000000Y-80000000D03*
D10*
X64540000Y-71120000D03*
X66040000Y-71120000D03*
D23*
X97738800Y-97245200D03*
X97738800Y-94945200D03*
X97738800Y-92645200D03*
D24*
X91338800Y-94945200D03*
D10*
X64008000Y-62763400D03*
X65508000Y-62763400D03*
D13*
X99263200Y-106426000D03*
X99263200Y-107926000D03*
D10*
X55524400Y-85547200D03*
X57024400Y-85547200D03*
M02*
