G04 #@! TF.GenerationSoftware,KiCad,Pcbnew,(6.0.9-0)*
G04 #@! TF.CreationDate,2024-06-23T22:48:43+01:00*
G04 #@! TF.ProjectId,BalanceBoard,42616c61-6e63-4654-926f-6172642e6b69,rev?*
G04 #@! TF.SameCoordinates,Original*
G04 #@! TF.FileFunction,Legend,Bot*
G04 #@! TF.FilePolarity,Positive*
%FSLAX46Y46*%
G04 Gerber Fmt 4.6, Leading zero omitted, Abs format (unit mm)*
G04 Created by KiCad (PCBNEW (6.0.9-0)) date 2024-06-23 22:48:43*
%MOMM*%
%LPD*%
G01*
G04 APERTURE LIST*
%ADD10C,0.300000*%
%ADD11C,0.150000*%
%ADD12C,0.120000*%
G04 APERTURE END LIST*
D10*
X56705142Y-114978571D02*
X56705142Y-113478571D01*
X56133714Y-113478571D01*
X55990857Y-113550000D01*
X55919428Y-113621428D01*
X55848000Y-113764285D01*
X55848000Y-113978571D01*
X55919428Y-114121428D01*
X55990857Y-114192857D01*
X56133714Y-114264285D01*
X56705142Y-114264285D01*
X55348000Y-113478571D02*
X54990857Y-114978571D01*
X54705142Y-113907142D01*
X54419428Y-114978571D01*
X54062285Y-113478571D01*
X53490857Y-114978571D02*
X53490857Y-113478571D01*
X52990857Y-114550000D01*
X52490857Y-113478571D01*
X52490857Y-114978571D01*
X51276571Y-114192857D02*
X51062285Y-114264285D01*
X50990857Y-114335714D01*
X50919428Y-114478571D01*
X50919428Y-114692857D01*
X50990857Y-114835714D01*
X51062285Y-114907142D01*
X51205142Y-114978571D01*
X51776571Y-114978571D01*
X51776571Y-113478571D01*
X51276571Y-113478571D01*
X51133714Y-113550000D01*
X51062285Y-113621428D01*
X50990857Y-113764285D01*
X50990857Y-113907142D01*
X51062285Y-114050000D01*
X51133714Y-114121428D01*
X51276571Y-114192857D01*
X51776571Y-114192857D01*
X56106000Y-111652857D02*
X55891714Y-111724285D01*
X55820285Y-111795714D01*
X55748857Y-111938571D01*
X55748857Y-112152857D01*
X55820285Y-112295714D01*
X55891714Y-112367142D01*
X56034571Y-112438571D01*
X56606000Y-112438571D01*
X56606000Y-110938571D01*
X56106000Y-110938571D01*
X55963142Y-111010000D01*
X55891714Y-111081428D01*
X55820285Y-111224285D01*
X55820285Y-111367142D01*
X55891714Y-111510000D01*
X55963142Y-111581428D01*
X56106000Y-111652857D01*
X56606000Y-111652857D01*
X55106000Y-112438571D02*
X55106000Y-110938571D01*
X54391714Y-112438571D02*
X54391714Y-110938571D01*
X53534571Y-112438571D01*
X53534571Y-110938571D01*
X52891714Y-111081428D02*
X52820285Y-111010000D01*
X52677428Y-110938571D01*
X52320285Y-110938571D01*
X52177428Y-111010000D01*
X52106000Y-111081428D01*
X52034571Y-111224285D01*
X52034571Y-111367142D01*
X52106000Y-111581428D01*
X52963142Y-112438571D01*
X52034571Y-112438571D01*
X56106000Y-109112857D02*
X55891714Y-109184285D01*
X55820285Y-109255714D01*
X55748857Y-109398571D01*
X55748857Y-109612857D01*
X55820285Y-109755714D01*
X55891714Y-109827142D01*
X56034571Y-109898571D01*
X56606000Y-109898571D01*
X56606000Y-108398571D01*
X56106000Y-108398571D01*
X55963142Y-108470000D01*
X55891714Y-108541428D01*
X55820285Y-108684285D01*
X55820285Y-108827142D01*
X55891714Y-108970000D01*
X55963142Y-109041428D01*
X56106000Y-109112857D01*
X56606000Y-109112857D01*
X55106000Y-109898571D02*
X55106000Y-108398571D01*
X54391714Y-109898571D02*
X54391714Y-108398571D01*
X53534571Y-109898571D01*
X53534571Y-108398571D01*
X52034571Y-109898571D02*
X52891714Y-109898571D01*
X52463142Y-109898571D02*
X52463142Y-108398571D01*
X52606000Y-108612857D01*
X52748857Y-108755714D01*
X52891714Y-108827142D01*
X56598000Y-107358571D02*
X56598000Y-105858571D01*
X56026571Y-105858571D01*
X55883714Y-105930000D01*
X55812285Y-106001428D01*
X55740857Y-106144285D01*
X55740857Y-106358571D01*
X55812285Y-106501428D01*
X55883714Y-106572857D01*
X56026571Y-106644285D01*
X56598000Y-106644285D01*
X55240857Y-105858571D02*
X54883714Y-107358571D01*
X54598000Y-106287142D01*
X54312285Y-107358571D01*
X53955142Y-105858571D01*
X53383714Y-107358571D02*
X53383714Y-105858571D01*
X52883714Y-106930000D01*
X52383714Y-105858571D01*
X52383714Y-107358571D01*
X51740857Y-106930000D02*
X51026571Y-106930000D01*
X51883714Y-107358571D02*
X51383714Y-105858571D01*
X50883714Y-107358571D01*
X56570285Y-104390000D02*
X55856000Y-104390000D01*
X56713142Y-104818571D02*
X56213142Y-103318571D01*
X55713142Y-104818571D01*
X55213142Y-104818571D02*
X55213142Y-103318571D01*
X54498857Y-104818571D02*
X54498857Y-103318571D01*
X53641714Y-104818571D01*
X53641714Y-103318571D01*
X52998857Y-103461428D02*
X52927428Y-103390000D01*
X52784571Y-103318571D01*
X52427428Y-103318571D01*
X52284571Y-103390000D01*
X52213142Y-103461428D01*
X52141714Y-103604285D01*
X52141714Y-103747142D01*
X52213142Y-103961428D01*
X53070285Y-104818571D01*
X52141714Y-104818571D01*
X56570285Y-101850000D02*
X55856000Y-101850000D01*
X56713142Y-102278571D02*
X56213142Y-100778571D01*
X55713142Y-102278571D01*
X55213142Y-102278571D02*
X55213142Y-100778571D01*
X54498857Y-102278571D02*
X54498857Y-100778571D01*
X53641714Y-102278571D01*
X53641714Y-100778571D01*
X52141714Y-102278571D02*
X52998857Y-102278571D01*
X52570285Y-102278571D02*
X52570285Y-100778571D01*
X52713142Y-100992857D01*
X52856000Y-101135714D01*
X52998857Y-101207142D01*
X56748857Y-99667142D02*
X56534571Y-99738571D01*
X56177428Y-99738571D01*
X56034571Y-99667142D01*
X55963142Y-99595714D01*
X55891714Y-99452857D01*
X55891714Y-99310000D01*
X55963142Y-99167142D01*
X56034571Y-99095714D01*
X56177428Y-99024285D01*
X56463142Y-98952857D01*
X56606000Y-98881428D01*
X56677428Y-98810000D01*
X56748857Y-98667142D01*
X56748857Y-98524285D01*
X56677428Y-98381428D01*
X56606000Y-98310000D01*
X56463142Y-98238571D01*
X56106000Y-98238571D01*
X55891714Y-98310000D01*
X55463142Y-98238571D02*
X54606000Y-98238571D01*
X55034571Y-99738571D02*
X55034571Y-98238571D01*
X53606000Y-98952857D02*
X53391714Y-99024285D01*
X53320285Y-99095714D01*
X53248857Y-99238571D01*
X53248857Y-99452857D01*
X53320285Y-99595714D01*
X53391714Y-99667142D01*
X53534571Y-99738571D01*
X54106000Y-99738571D01*
X54106000Y-98238571D01*
X53606000Y-98238571D01*
X53463142Y-98310000D01*
X53391714Y-98381428D01*
X53320285Y-98524285D01*
X53320285Y-98667142D01*
X53391714Y-98810000D01*
X53463142Y-98881428D01*
X53606000Y-98952857D01*
X54106000Y-98952857D01*
X52320285Y-99024285D02*
X52320285Y-99738571D01*
X52820285Y-98238571D02*
X52320285Y-99024285D01*
X51820285Y-98238571D01*
X116465714Y-128186571D02*
X116965714Y-127472285D01*
X117322857Y-128186571D02*
X117322857Y-126686571D01*
X116751428Y-126686571D01*
X116608571Y-126758000D01*
X116537142Y-126829428D01*
X116465714Y-126972285D01*
X116465714Y-127186571D01*
X116537142Y-127329428D01*
X116608571Y-127400857D01*
X116751428Y-127472285D01*
X117322857Y-127472285D01*
X115251428Y-128115142D02*
X115394285Y-128186571D01*
X115680000Y-128186571D01*
X115822857Y-128115142D01*
X115894285Y-127972285D01*
X115894285Y-127400857D01*
X115822857Y-127258000D01*
X115680000Y-127186571D01*
X115394285Y-127186571D01*
X115251428Y-127258000D01*
X115180000Y-127400857D01*
X115180000Y-127543714D01*
X115894285Y-127686571D01*
X114680000Y-127186571D02*
X114322857Y-128186571D01*
X113965714Y-127186571D01*
X112894285Y-127400857D02*
X112680000Y-127472285D01*
X112608571Y-127543714D01*
X112537142Y-127686571D01*
X112537142Y-127900857D01*
X112608571Y-128043714D01*
X112680000Y-128115142D01*
X112822857Y-128186571D01*
X113394285Y-128186571D01*
X113394285Y-126686571D01*
X112894285Y-126686571D01*
X112751428Y-126758000D01*
X112680000Y-126829428D01*
X112608571Y-126972285D01*
X112608571Y-127115142D01*
X112680000Y-127258000D01*
X112751428Y-127329428D01*
X112894285Y-127400857D01*
X113394285Y-127400857D01*
X106894285Y-126686571D02*
X106894285Y-127758000D01*
X106965714Y-127972285D01*
X107108571Y-128115142D01*
X107322857Y-128186571D01*
X107465714Y-128186571D01*
X105537142Y-127186571D02*
X105537142Y-128186571D01*
X106180000Y-127186571D02*
X106180000Y-127972285D01*
X106108571Y-128115142D01*
X105965714Y-128186571D01*
X105751428Y-128186571D01*
X105608571Y-128115142D01*
X105537142Y-128043714D01*
X104822857Y-127186571D02*
X104822857Y-128186571D01*
X104822857Y-127329428D02*
X104751428Y-127258000D01*
X104608571Y-127186571D01*
X104394285Y-127186571D01*
X104251428Y-127258000D01*
X104180000Y-127400857D01*
X104180000Y-128186571D01*
X102894285Y-128115142D02*
X103037142Y-128186571D01*
X103322857Y-128186571D01*
X103465714Y-128115142D01*
X103537142Y-127972285D01*
X103537142Y-127400857D01*
X103465714Y-127258000D01*
X103322857Y-127186571D01*
X103037142Y-127186571D01*
X102894285Y-127258000D01*
X102822857Y-127400857D01*
X102822857Y-127543714D01*
X103537142Y-127686571D01*
X101108571Y-126829428D02*
X101037142Y-126758000D01*
X100894285Y-126686571D01*
X100537142Y-126686571D01*
X100394285Y-126758000D01*
X100322857Y-126829428D01*
X100251428Y-126972285D01*
X100251428Y-127115142D01*
X100322857Y-127329428D01*
X101180000Y-128186571D01*
X100251428Y-128186571D01*
X99322857Y-126686571D02*
X99180000Y-126686571D01*
X99037142Y-126758000D01*
X98965714Y-126829428D01*
X98894285Y-126972285D01*
X98822857Y-127258000D01*
X98822857Y-127615142D01*
X98894285Y-127900857D01*
X98965714Y-128043714D01*
X99037142Y-128115142D01*
X99180000Y-128186571D01*
X99322857Y-128186571D01*
X99465714Y-128115142D01*
X99537142Y-128043714D01*
X99608571Y-127900857D01*
X99680000Y-127615142D01*
X99680000Y-127258000D01*
X99608571Y-126972285D01*
X99537142Y-126829428D01*
X99465714Y-126758000D01*
X99322857Y-126686571D01*
X98251428Y-126829428D02*
X98180000Y-126758000D01*
X98037142Y-126686571D01*
X97680000Y-126686571D01*
X97537142Y-126758000D01*
X97465714Y-126829428D01*
X97394285Y-126972285D01*
X97394285Y-127115142D01*
X97465714Y-127329428D01*
X98322857Y-128186571D01*
X97394285Y-128186571D01*
X96108571Y-127186571D02*
X96108571Y-128186571D01*
X96465714Y-126615142D02*
X96822857Y-127686571D01*
X95894285Y-127686571D01*
D11*
X85851904Y-105928380D02*
X85851904Y-106737904D01*
X85804285Y-106833142D01*
X85756666Y-106880761D01*
X85661428Y-106928380D01*
X85470952Y-106928380D01*
X85375714Y-106880761D01*
X85328095Y-106833142D01*
X85280476Y-106737904D01*
X85280476Y-105928380D01*
X84328095Y-105928380D02*
X84804285Y-105928380D01*
X84851904Y-106404571D01*
X84804285Y-106356952D01*
X84709047Y-106309333D01*
X84470952Y-106309333D01*
X84375714Y-106356952D01*
X84328095Y-106404571D01*
X84280476Y-106499809D01*
X84280476Y-106737904D01*
X84328095Y-106833142D01*
X84375714Y-106880761D01*
X84470952Y-106928380D01*
X84709047Y-106928380D01*
X84804285Y-106880761D01*
X84851904Y-106833142D01*
D12*
X107090000Y-90976000D02*
X63090000Y-90976000D01*
X63090000Y-90976000D02*
X63090000Y-121476000D01*
X63090000Y-121476000D02*
X107090000Y-121476000D01*
X107090000Y-121476000D02*
X107090000Y-90976000D01*
M02*
