G04 #@! TF.GenerationSoftware,KiCad,Pcbnew,(6.0.9-0)*
G04 #@! TF.CreationDate,2024-06-23T22:48:43+01:00*
G04 #@! TF.ProjectId,BalanceBoard,42616c61-6e63-4654-926f-6172642e6b69,rev?*
G04 #@! TF.SameCoordinates,Original*
G04 #@! TF.FileFunction,Soldermask,Top*
G04 #@! TF.FilePolarity,Negative*
%FSLAX46Y46*%
G04 Gerber Fmt 4.6, Leading zero omitted, Abs format (unit mm)*
G04 Created by KiCad (PCBNEW (6.0.9-0)) date 2024-06-23 22:48:43*
%MOMM*%
%LPD*%
G01*
G04 APERTURE LIST*
G04 Aperture macros list*
%AMRoundRect*
0 Rectangle with rounded corners*
0 $1 Rounding radius*
0 $2 $3 $4 $5 $6 $7 $8 $9 X,Y pos of 4 corners*
0 Add a 4 corners polygon primitive as box body*
4,1,4,$2,$3,$4,$5,$6,$7,$8,$9,$2,$3,0*
0 Add four circle primitives for the rounded corners*
1,1,$1+$1,$2,$3*
1,1,$1+$1,$4,$5*
1,1,$1+$1,$6,$7*
1,1,$1+$1,$8,$9*
0 Add four rect primitives between the rounded corners*
20,1,$1+$1,$2,$3,$4,$5,0*
20,1,$1+$1,$4,$5,$6,$7,0*
20,1,$1+$1,$6,$7,$8,$9,0*
20,1,$1+$1,$8,$9,$2,$3,0*%
G04 Aperture macros list end*
%ADD10C,7.102000*%
%ADD11RoundRect,0.051000X0.350000X0.500000X-0.350000X0.500000X-0.350000X-0.500000X0.350000X-0.500000X0*%
%ADD12C,2.102000*%
%ADD13RoundRect,0.051000X-0.200000X0.700000X-0.200000X-0.700000X0.200000X-0.700000X0.200000X0.700000X0*%
%ADD14RoundRect,0.051000X0.500000X-0.350000X0.500000X0.350000X-0.500000X0.350000X-0.500000X-0.350000X0*%
%ADD15RoundRect,0.051000X-0.500000X0.350000X-0.500000X-0.350000X0.500000X-0.350000X0.500000X0.350000X0*%
%ADD16RoundRect,0.051000X0.450000X-0.750000X0.450000X0.750000X-0.450000X0.750000X-0.450000X-0.750000X0*%
%ADD17RoundRect,0.051000X0.750000X0.450000X-0.750000X0.450000X-0.750000X-0.450000X0.750000X-0.450000X0*%
%ADD18RoundRect,0.051000X-0.450000X0.750000X-0.450000X-0.750000X0.450000X-0.750000X0.450000X0.750000X0*%
%ADD19RoundRect,0.051000X0.450000X0.450000X-0.450000X0.450000X-0.450000X-0.450000X0.450000X-0.450000X0*%
%ADD20RoundRect,0.051000X-0.300000X-0.550000X0.300000X-0.550000X0.300000X0.550000X-0.300000X0.550000X0*%
%ADD21RoundRect,0.051000X0.600000X0.700000X-0.600000X0.700000X-0.600000X-0.700000X0.600000X-0.700000X0*%
%ADD22RoundRect,0.051000X1.750000X0.700000X-1.750000X0.700000X-1.750000X-0.700000X1.750000X-0.700000X0*%
%ADD23RoundRect,0.051000X-1.750000X0.500000X-1.750000X-0.500000X1.750000X-0.500000X1.750000X0.500000X0*%
%ADD24RoundRect,0.051000X-1.750000X0.700000X-1.750000X-0.700000X1.750000X-0.700000X1.750000X0.700000X0*%
%ADD25RoundRect,0.051000X-0.350000X-0.500000X0.350000X-0.500000X0.350000X0.500000X-0.350000X0.500000X0*%
%ADD26RoundRect,0.126000X-0.350000X-0.075000X0.350000X-0.075000X0.350000X0.075000X-0.350000X0.075000X0*%
%ADD27RoundRect,0.126000X0.075000X-0.350000X0.075000X0.350000X-0.075000X0.350000X-0.075000X-0.350000X0*%
%ADD28RoundRect,0.051000X0.700000X-0.600000X0.700000X0.600000X-0.700000X0.600000X-0.700000X-0.600000X0*%
%ADD29RoundRect,0.051000X0.700000X-1.750000X0.700000X1.750000X-0.700000X1.750000X-0.700000X-1.750000X0*%
%ADD30C,2.202000*%
G04 APERTURE END LIST*
D10*
X85090000Y-86976000D03*
X85090000Y-125476000D03*
D11*
X112318800Y-115570000D03*
X110818800Y-115570000D03*
D12*
X55880000Y-58420000D03*
D11*
X88900000Y-102616000D03*
X87400000Y-102616000D03*
X101701600Y-94945200D03*
X100201600Y-94945200D03*
D13*
X109060123Y-83168000D03*
X108410123Y-83168000D03*
X107760123Y-83168000D03*
X107110123Y-83168000D03*
X106460123Y-83168000D03*
X105810123Y-83168000D03*
X105160123Y-83168000D03*
X104510123Y-83168000D03*
X103860123Y-83168000D03*
X103210123Y-83168000D03*
X102560123Y-83168000D03*
X101910123Y-83168000D03*
X101910123Y-90568000D03*
X102560123Y-90568000D03*
X103210123Y-90568000D03*
X103860123Y-90568000D03*
X104510123Y-90568000D03*
X105160123Y-90568000D03*
X105810123Y-90568000D03*
X106460123Y-90568000D03*
X107110123Y-90568000D03*
X107760123Y-90568000D03*
X108410123Y-90568000D03*
X109060123Y-90568000D03*
D11*
X57099200Y-82296000D03*
X55599200Y-82296000D03*
X61214000Y-62738000D03*
X59714000Y-62738000D03*
D10*
X115000000Y-65000000D03*
D14*
X97688400Y-90576400D03*
X97688400Y-89076400D03*
D12*
X61468000Y-95250000D03*
X104000000Y-60000000D03*
X55880000Y-66040000D03*
D11*
X106680000Y-93218000D03*
X105180000Y-93218000D03*
X58928000Y-118872000D03*
X57428000Y-118872000D03*
X97028000Y-100482400D03*
X95528000Y-100482400D03*
D15*
X99060000Y-116840000D03*
X99060000Y-118340000D03*
D14*
X111912400Y-90576400D03*
X111912400Y-89076400D03*
D12*
X111000000Y-60000000D03*
D11*
X58928000Y-121666000D03*
X57428000Y-121666000D03*
D12*
X111000000Y-70000000D03*
D16*
X57658000Y-115430000D03*
X58928000Y-115430000D03*
X60198000Y-115430000D03*
X61468000Y-115430000D03*
X62738000Y-115430000D03*
X64008000Y-115430000D03*
X65278000Y-115430000D03*
X66548000Y-115430000D03*
X67818000Y-115430000D03*
X69088000Y-115430000D03*
X70358000Y-115430000D03*
X71628000Y-115430000D03*
X72898000Y-115430000D03*
X74168000Y-115430000D03*
D17*
X75418000Y-112390000D03*
X75418000Y-111120000D03*
X75418000Y-109850000D03*
X75418000Y-108580000D03*
X75418000Y-107310000D03*
X75418000Y-106040000D03*
X75418000Y-104770000D03*
X75418000Y-103500000D03*
X75418000Y-102230000D03*
X75418000Y-100960000D03*
D18*
X74168000Y-97930000D03*
X72898000Y-97930000D03*
X71628000Y-97930000D03*
X70358000Y-97930000D03*
X69088000Y-97930000D03*
X67818000Y-97930000D03*
X66548000Y-97930000D03*
X65278000Y-97930000D03*
X64008000Y-97930000D03*
X62738000Y-97930000D03*
X61468000Y-97930000D03*
X60198000Y-97930000D03*
X58928000Y-97930000D03*
X57658000Y-97930000D03*
D19*
X66583000Y-108180000D03*
X64108000Y-106780000D03*
X64108000Y-109580000D03*
X65378000Y-108180000D03*
X65378000Y-106780000D03*
X66583000Y-106780000D03*
X65378000Y-109580000D03*
X64108000Y-108180000D03*
X66583000Y-109580000D03*
D14*
X99771200Y-90576400D03*
X99771200Y-89076400D03*
D12*
X71120000Y-66040000D03*
D11*
X63754000Y-52832000D03*
X62254000Y-52832000D03*
X66294000Y-121666000D03*
X64794000Y-121666000D03*
D14*
X112776000Y-119152800D03*
X112776000Y-117652800D03*
D11*
X118567200Y-120954800D03*
X117067200Y-120954800D03*
D15*
X93980000Y-116840000D03*
X93980000Y-118340000D03*
D11*
X98450400Y-84632800D03*
X96950400Y-84632800D03*
D20*
X116809600Y-115570000D03*
X115859600Y-115570000D03*
X114909600Y-115570000D03*
X114909600Y-118370000D03*
X116809600Y-118370000D03*
D12*
X104000000Y-70000000D03*
D10*
X115000000Y-55000000D03*
D11*
X70080000Y-121666000D03*
X68580000Y-121666000D03*
D21*
X95772000Y-103937600D03*
X93472000Y-103937600D03*
X91172000Y-103937600D03*
D22*
X93472000Y-110337600D03*
D11*
X58928000Y-126746000D03*
X57428000Y-126746000D03*
D23*
X112102000Y-107632000D03*
X112102000Y-105632000D03*
D24*
X117602000Y-103282000D03*
X117602000Y-109982000D03*
D25*
X59968000Y-71120000D03*
X61468000Y-71120000D03*
D15*
X74168000Y-118618000D03*
X74168000Y-120118000D03*
D11*
X98450400Y-86309200D03*
X96950400Y-86309200D03*
D25*
X63270000Y-124206000D03*
X64770000Y-124206000D03*
D11*
X66294000Y-118872000D03*
X64794000Y-118872000D03*
D12*
X104000000Y-80000000D03*
D11*
X106656000Y-94996000D03*
X105156000Y-94996000D03*
D26*
X61169000Y-56662000D03*
X61169000Y-57162000D03*
X61169000Y-57662000D03*
X61169000Y-58162000D03*
X61169000Y-58662000D03*
X61169000Y-59162000D03*
D27*
X61869000Y-59862000D03*
X62369000Y-59862000D03*
X62869000Y-59862000D03*
X63369000Y-59862000D03*
X63869000Y-59862000D03*
X64369000Y-59862000D03*
D26*
X65069000Y-59162000D03*
X65069000Y-58662000D03*
X65069000Y-58162000D03*
X65069000Y-57662000D03*
X65069000Y-57162000D03*
X65069000Y-56662000D03*
D27*
X64369000Y-55962000D03*
X63869000Y-55962000D03*
X63369000Y-55962000D03*
X62869000Y-55962000D03*
X62369000Y-55962000D03*
X61869000Y-55962000D03*
D10*
X100000000Y-75000000D03*
D14*
X67564000Y-58674000D03*
X67564000Y-57174000D03*
D11*
X60440000Y-124206000D03*
X58940000Y-124206000D03*
D12*
X111000000Y-80000000D03*
D25*
X64540000Y-71120000D03*
X66040000Y-71120000D03*
D10*
X115000000Y-75000000D03*
D28*
X97738800Y-97245200D03*
X97738800Y-94945200D03*
X97738800Y-92645200D03*
D29*
X91338800Y-94945200D03*
D25*
X64008000Y-62763400D03*
X65508000Y-62763400D03*
D10*
X100000000Y-55000000D03*
D30*
X103124000Y-124002800D03*
X105664000Y-124002800D03*
X108204000Y-124002800D03*
X110744000Y-124002800D03*
X113284000Y-124002800D03*
X115824000Y-124002800D03*
D15*
X99263200Y-106426000D03*
X99263200Y-107926000D03*
D10*
X100000000Y-65000000D03*
D25*
X55524400Y-85547200D03*
X57024400Y-85547200D03*
G36*
X115509919Y-115030806D02*
G01*
X115510600Y-115032310D01*
X115510600Y-116107682D01*
X115509600Y-116109414D01*
X115507600Y-116109414D01*
X115506638Y-116108072D01*
X115505293Y-116101307D01*
X115473054Y-116039674D01*
X115412870Y-116005400D01*
X115343713Y-116009106D01*
X115287488Y-116049647D01*
X115263921Y-116101250D01*
X115262562Y-116108080D01*
X115261243Y-116109584D01*
X115259281Y-116109194D01*
X115258600Y-116107690D01*
X115258600Y-115032318D01*
X115259600Y-115030586D01*
X115261600Y-115030586D01*
X115262562Y-115031928D01*
X115263907Y-115038693D01*
X115296146Y-115100326D01*
X115356330Y-115134600D01*
X115425487Y-115130894D01*
X115481712Y-115090353D01*
X115505279Y-115038750D01*
X115506638Y-115031920D01*
X115507957Y-115030416D01*
X115509919Y-115030806D01*
G37*
G36*
X116459919Y-115030806D02*
G01*
X116460600Y-115032310D01*
X116460600Y-116107682D01*
X116459600Y-116109414D01*
X116457600Y-116109414D01*
X116456638Y-116108072D01*
X116455293Y-116101307D01*
X116423054Y-116039674D01*
X116362870Y-116005400D01*
X116293713Y-116009106D01*
X116237488Y-116049647D01*
X116213921Y-116101250D01*
X116212562Y-116108080D01*
X116211243Y-116109584D01*
X116209281Y-116109194D01*
X116208600Y-116107690D01*
X116208600Y-115032318D01*
X116209600Y-115030586D01*
X116211600Y-115030586D01*
X116212562Y-115031928D01*
X116213907Y-115038693D01*
X116246146Y-115100326D01*
X116306330Y-115134600D01*
X116375487Y-115130894D01*
X116431712Y-115090353D01*
X116455279Y-115038750D01*
X116456638Y-115031920D01*
X116457957Y-115030416D01*
X116459919Y-115030806D01*
G37*
G36*
X66086452Y-109115754D02*
G01*
X66086620Y-109117028D01*
X66084000Y-109130199D01*
X66084000Y-110029801D01*
X66086620Y-110042972D01*
X66085977Y-110044866D01*
X66084015Y-110045256D01*
X66082995Y-110044474D01*
X66082929Y-110044375D01*
X66029554Y-109999770D01*
X65960838Y-109991139D01*
X65898208Y-110021104D01*
X65878165Y-110044235D01*
X65878005Y-110044474D01*
X65876211Y-110045358D01*
X65874548Y-110044246D01*
X65874380Y-110042972D01*
X65877000Y-110029801D01*
X65877000Y-109130199D01*
X65874380Y-109117028D01*
X65875023Y-109115134D01*
X65876985Y-109114744D01*
X65878005Y-109115526D01*
X65878071Y-109115625D01*
X65931446Y-109160230D01*
X66000162Y-109168861D01*
X66062792Y-109138896D01*
X66082835Y-109115765D01*
X66082995Y-109115526D01*
X66084789Y-109114642D01*
X66086452Y-109115754D01*
G37*
G36*
X66086452Y-107715754D02*
G01*
X66086620Y-107717028D01*
X66084000Y-107730199D01*
X66084000Y-108629801D01*
X66086620Y-108642972D01*
X66085977Y-108644866D01*
X66084015Y-108645256D01*
X66082995Y-108644474D01*
X66082929Y-108644375D01*
X66029554Y-108599770D01*
X65960838Y-108591139D01*
X65898208Y-108621104D01*
X65878165Y-108644235D01*
X65878005Y-108644474D01*
X65876211Y-108645358D01*
X65874548Y-108644246D01*
X65874380Y-108642972D01*
X65877000Y-108629801D01*
X65877000Y-107730199D01*
X65874380Y-107717028D01*
X65875023Y-107715134D01*
X65876985Y-107714744D01*
X65878005Y-107715526D01*
X65878071Y-107715625D01*
X65931446Y-107760230D01*
X66000162Y-107768861D01*
X66062792Y-107738896D01*
X66082835Y-107715765D01*
X66082995Y-107715526D01*
X66084789Y-107714642D01*
X66086452Y-107715754D01*
G37*
G36*
X66086452Y-106315754D02*
G01*
X66086620Y-106317028D01*
X66084000Y-106330199D01*
X66084000Y-107229801D01*
X66086620Y-107242972D01*
X66085977Y-107244866D01*
X66084015Y-107245256D01*
X66082995Y-107244474D01*
X66082929Y-107244375D01*
X66029554Y-107199770D01*
X65960838Y-107191139D01*
X65898208Y-107221104D01*
X65878165Y-107244235D01*
X65878005Y-107244474D01*
X65876211Y-107245358D01*
X65874548Y-107244246D01*
X65874380Y-107242972D01*
X65877000Y-107229801D01*
X65877000Y-106330199D01*
X65874380Y-106317028D01*
X65875023Y-106315134D01*
X65876985Y-106314744D01*
X65878005Y-106315526D01*
X65878071Y-106315625D01*
X65931446Y-106360230D01*
X66000162Y-106368861D01*
X66062792Y-106338896D01*
X66082835Y-106315765D01*
X66082995Y-106315526D01*
X66084789Y-106314642D01*
X66086452Y-106315754D01*
G37*
G36*
X108650783Y-89835493D02*
G01*
X108664575Y-89844709D01*
X108665738Y-89842969D01*
X108667532Y-89842084D01*
X108668683Y-89842545D01*
X108686075Y-89857078D01*
X108754793Y-89865704D01*
X108802411Y-89842918D01*
X108804405Y-89843072D01*
X108804937Y-89843611D01*
X108805671Y-89844709D01*
X108819463Y-89835493D01*
X108821459Y-89835362D01*
X108822570Y-89837025D01*
X108822237Y-89838267D01*
X108814890Y-89849262D01*
X108811123Y-89868199D01*
X108811123Y-91267801D01*
X108814890Y-91286738D01*
X108822237Y-91297733D01*
X108822368Y-91299729D01*
X108820705Y-91300840D01*
X108819463Y-91300507D01*
X108805671Y-91291291D01*
X108804508Y-91293031D01*
X108802714Y-91293916D01*
X108801563Y-91293455D01*
X108784171Y-91278922D01*
X108715453Y-91270296D01*
X108667835Y-91293082D01*
X108665841Y-91292928D01*
X108665309Y-91292389D01*
X108664575Y-91291291D01*
X108650783Y-91300507D01*
X108648787Y-91300638D01*
X108647676Y-91298975D01*
X108648009Y-91297733D01*
X108655356Y-91286738D01*
X108659123Y-91267801D01*
X108659123Y-89868199D01*
X108655356Y-89849262D01*
X108648009Y-89838267D01*
X108647878Y-89836271D01*
X108649541Y-89835160D01*
X108650783Y-89835493D01*
G37*
G36*
X108000783Y-89835493D02*
G01*
X108014575Y-89844709D01*
X108015738Y-89842969D01*
X108017532Y-89842084D01*
X108018683Y-89842545D01*
X108036075Y-89857078D01*
X108104793Y-89865704D01*
X108152411Y-89842918D01*
X108154405Y-89843072D01*
X108154937Y-89843611D01*
X108155671Y-89844709D01*
X108169463Y-89835493D01*
X108171459Y-89835362D01*
X108172570Y-89837025D01*
X108172237Y-89838267D01*
X108164890Y-89849262D01*
X108161123Y-89868199D01*
X108161123Y-91267801D01*
X108164890Y-91286738D01*
X108172237Y-91297733D01*
X108172368Y-91299729D01*
X108170705Y-91300840D01*
X108169463Y-91300507D01*
X108155671Y-91291291D01*
X108154508Y-91293031D01*
X108152714Y-91293916D01*
X108151563Y-91293455D01*
X108134171Y-91278922D01*
X108065453Y-91270296D01*
X108017835Y-91293082D01*
X108015841Y-91292928D01*
X108015309Y-91292389D01*
X108014575Y-91291291D01*
X108000783Y-91300507D01*
X107998787Y-91300638D01*
X107997676Y-91298975D01*
X107998009Y-91297733D01*
X108005356Y-91286738D01*
X108009123Y-91267801D01*
X108009123Y-89868199D01*
X108005356Y-89849262D01*
X107998009Y-89838267D01*
X107997878Y-89836271D01*
X107999541Y-89835160D01*
X108000783Y-89835493D01*
G37*
G36*
X102800783Y-89835493D02*
G01*
X102814575Y-89844709D01*
X102815738Y-89842969D01*
X102817532Y-89842084D01*
X102818683Y-89842545D01*
X102836075Y-89857078D01*
X102904793Y-89865704D01*
X102952411Y-89842918D01*
X102954405Y-89843072D01*
X102954937Y-89843611D01*
X102955671Y-89844709D01*
X102969463Y-89835493D01*
X102971459Y-89835362D01*
X102972570Y-89837025D01*
X102972237Y-89838267D01*
X102964890Y-89849262D01*
X102961123Y-89868199D01*
X102961123Y-91267801D01*
X102964890Y-91286738D01*
X102972237Y-91297733D01*
X102972368Y-91299729D01*
X102970705Y-91300840D01*
X102969463Y-91300507D01*
X102955671Y-91291291D01*
X102954508Y-91293031D01*
X102952714Y-91293916D01*
X102951563Y-91293455D01*
X102934171Y-91278922D01*
X102865453Y-91270296D01*
X102817835Y-91293082D01*
X102815841Y-91292928D01*
X102815309Y-91292389D01*
X102814575Y-91291291D01*
X102800783Y-91300507D01*
X102798787Y-91300638D01*
X102797676Y-91298975D01*
X102798009Y-91297733D01*
X102805356Y-91286738D01*
X102809123Y-91267801D01*
X102809123Y-89868199D01*
X102805356Y-89849262D01*
X102798009Y-89838267D01*
X102797878Y-89836271D01*
X102799541Y-89835160D01*
X102800783Y-89835493D01*
G37*
G36*
X103450783Y-89835493D02*
G01*
X103464575Y-89844709D01*
X103465738Y-89842969D01*
X103467532Y-89842084D01*
X103468683Y-89842545D01*
X103486075Y-89857078D01*
X103554793Y-89865704D01*
X103602411Y-89842918D01*
X103604405Y-89843072D01*
X103604937Y-89843611D01*
X103605671Y-89844709D01*
X103619463Y-89835493D01*
X103621459Y-89835362D01*
X103622570Y-89837025D01*
X103622237Y-89838267D01*
X103614890Y-89849262D01*
X103611123Y-89868199D01*
X103611123Y-91267801D01*
X103614890Y-91286738D01*
X103622237Y-91297733D01*
X103622368Y-91299729D01*
X103620705Y-91300840D01*
X103619463Y-91300507D01*
X103605671Y-91291291D01*
X103604508Y-91293031D01*
X103602714Y-91293916D01*
X103601563Y-91293455D01*
X103584171Y-91278922D01*
X103515453Y-91270296D01*
X103467835Y-91293082D01*
X103465841Y-91292928D01*
X103465309Y-91292389D01*
X103464575Y-91291291D01*
X103450783Y-91300507D01*
X103448787Y-91300638D01*
X103447676Y-91298975D01*
X103448009Y-91297733D01*
X103455356Y-91286738D01*
X103459123Y-91267801D01*
X103459123Y-89868199D01*
X103455356Y-89849262D01*
X103448009Y-89838267D01*
X103447878Y-89836271D01*
X103449541Y-89835160D01*
X103450783Y-89835493D01*
G37*
G36*
X104100783Y-89835493D02*
G01*
X104114575Y-89844709D01*
X104115738Y-89842969D01*
X104117532Y-89842084D01*
X104118683Y-89842545D01*
X104136075Y-89857078D01*
X104204793Y-89865704D01*
X104252411Y-89842918D01*
X104254405Y-89843072D01*
X104254937Y-89843611D01*
X104255671Y-89844709D01*
X104269463Y-89835493D01*
X104271459Y-89835362D01*
X104272570Y-89837025D01*
X104272237Y-89838267D01*
X104264890Y-89849262D01*
X104261123Y-89868199D01*
X104261123Y-91267801D01*
X104264890Y-91286738D01*
X104272237Y-91297733D01*
X104272368Y-91299729D01*
X104270705Y-91300840D01*
X104269463Y-91300507D01*
X104255671Y-91291291D01*
X104254508Y-91293031D01*
X104252714Y-91293916D01*
X104251563Y-91293455D01*
X104234171Y-91278922D01*
X104165453Y-91270296D01*
X104117835Y-91293082D01*
X104115841Y-91292928D01*
X104115309Y-91292389D01*
X104114575Y-91291291D01*
X104100783Y-91300507D01*
X104098787Y-91300638D01*
X104097676Y-91298975D01*
X104098009Y-91297733D01*
X104105356Y-91286738D01*
X104109123Y-91267801D01*
X104109123Y-89868199D01*
X104105356Y-89849262D01*
X104098009Y-89838267D01*
X104097878Y-89836271D01*
X104099541Y-89835160D01*
X104100783Y-89835493D01*
G37*
G36*
X104750783Y-89835493D02*
G01*
X104764575Y-89844709D01*
X104765738Y-89842969D01*
X104767532Y-89842084D01*
X104768683Y-89842545D01*
X104786075Y-89857078D01*
X104854793Y-89865704D01*
X104902411Y-89842918D01*
X104904405Y-89843072D01*
X104904937Y-89843611D01*
X104905671Y-89844709D01*
X104919463Y-89835493D01*
X104921459Y-89835362D01*
X104922570Y-89837025D01*
X104922237Y-89838267D01*
X104914890Y-89849262D01*
X104911123Y-89868199D01*
X104911123Y-91267801D01*
X104914890Y-91286738D01*
X104922237Y-91297733D01*
X104922368Y-91299729D01*
X104920705Y-91300840D01*
X104919463Y-91300507D01*
X104905671Y-91291291D01*
X104904508Y-91293031D01*
X104902714Y-91293916D01*
X104901563Y-91293455D01*
X104884171Y-91278922D01*
X104815453Y-91270296D01*
X104767835Y-91293082D01*
X104765841Y-91292928D01*
X104765309Y-91292389D01*
X104764575Y-91291291D01*
X104750783Y-91300507D01*
X104748787Y-91300638D01*
X104747676Y-91298975D01*
X104748009Y-91297733D01*
X104755356Y-91286738D01*
X104759123Y-91267801D01*
X104759123Y-89868199D01*
X104755356Y-89849262D01*
X104748009Y-89838267D01*
X104747878Y-89836271D01*
X104749541Y-89835160D01*
X104750783Y-89835493D01*
G37*
G36*
X105400783Y-89835493D02*
G01*
X105414575Y-89844709D01*
X105415738Y-89842969D01*
X105417532Y-89842084D01*
X105418683Y-89842545D01*
X105436075Y-89857078D01*
X105504793Y-89865704D01*
X105552411Y-89842918D01*
X105554405Y-89843072D01*
X105554937Y-89843611D01*
X105555671Y-89844709D01*
X105569463Y-89835493D01*
X105571459Y-89835362D01*
X105572570Y-89837025D01*
X105572237Y-89838267D01*
X105564890Y-89849262D01*
X105561123Y-89868199D01*
X105561123Y-91267801D01*
X105564890Y-91286738D01*
X105572237Y-91297733D01*
X105572368Y-91299729D01*
X105570705Y-91300840D01*
X105569463Y-91300507D01*
X105555671Y-91291291D01*
X105554508Y-91293031D01*
X105552714Y-91293916D01*
X105551563Y-91293455D01*
X105534171Y-91278922D01*
X105465453Y-91270296D01*
X105417835Y-91293082D01*
X105415841Y-91292928D01*
X105415309Y-91292389D01*
X105414575Y-91291291D01*
X105400783Y-91300507D01*
X105398787Y-91300638D01*
X105397676Y-91298975D01*
X105398009Y-91297733D01*
X105405356Y-91286738D01*
X105409123Y-91267801D01*
X105409123Y-89868199D01*
X105405356Y-89849262D01*
X105398009Y-89838267D01*
X105397878Y-89836271D01*
X105399541Y-89835160D01*
X105400783Y-89835493D01*
G37*
G36*
X106050783Y-89835493D02*
G01*
X106064575Y-89844709D01*
X106065738Y-89842969D01*
X106067532Y-89842084D01*
X106068683Y-89842545D01*
X106086075Y-89857078D01*
X106154793Y-89865704D01*
X106202411Y-89842918D01*
X106204405Y-89843072D01*
X106204937Y-89843611D01*
X106205671Y-89844709D01*
X106219463Y-89835493D01*
X106221459Y-89835362D01*
X106222570Y-89837025D01*
X106222237Y-89838267D01*
X106214890Y-89849262D01*
X106211123Y-89868199D01*
X106211123Y-91267801D01*
X106214890Y-91286738D01*
X106222237Y-91297733D01*
X106222368Y-91299729D01*
X106220705Y-91300840D01*
X106219463Y-91300507D01*
X106205671Y-91291291D01*
X106204508Y-91293031D01*
X106202714Y-91293916D01*
X106201563Y-91293455D01*
X106184171Y-91278922D01*
X106115453Y-91270296D01*
X106067835Y-91293082D01*
X106065841Y-91292928D01*
X106065309Y-91292389D01*
X106064575Y-91291291D01*
X106050783Y-91300507D01*
X106048787Y-91300638D01*
X106047676Y-91298975D01*
X106048009Y-91297733D01*
X106055356Y-91286738D01*
X106059123Y-91267801D01*
X106059123Y-89868199D01*
X106055356Y-89849262D01*
X106048009Y-89838267D01*
X106047878Y-89836271D01*
X106049541Y-89835160D01*
X106050783Y-89835493D01*
G37*
G36*
X106700783Y-89835493D02*
G01*
X106714575Y-89844709D01*
X106715738Y-89842969D01*
X106717532Y-89842084D01*
X106718683Y-89842545D01*
X106736075Y-89857078D01*
X106804793Y-89865704D01*
X106852411Y-89842918D01*
X106854405Y-89843072D01*
X106854937Y-89843611D01*
X106855671Y-89844709D01*
X106869463Y-89835493D01*
X106871459Y-89835362D01*
X106872570Y-89837025D01*
X106872237Y-89838267D01*
X106864890Y-89849262D01*
X106861123Y-89868199D01*
X106861123Y-91267801D01*
X106864890Y-91286738D01*
X106872237Y-91297733D01*
X106872368Y-91299729D01*
X106870705Y-91300840D01*
X106869463Y-91300507D01*
X106855671Y-91291291D01*
X106854508Y-91293031D01*
X106852714Y-91293916D01*
X106851563Y-91293455D01*
X106834171Y-91278922D01*
X106765453Y-91270296D01*
X106717835Y-91293082D01*
X106715841Y-91292928D01*
X106715309Y-91292389D01*
X106714575Y-91291291D01*
X106700783Y-91300507D01*
X106698787Y-91300638D01*
X106697676Y-91298975D01*
X106698009Y-91297733D01*
X106705356Y-91286738D01*
X106709123Y-91267801D01*
X106709123Y-89868199D01*
X106705356Y-89849262D01*
X106698009Y-89838267D01*
X106697878Y-89836271D01*
X106699541Y-89835160D01*
X106700783Y-89835493D01*
G37*
G36*
X107350783Y-89835493D02*
G01*
X107364575Y-89844709D01*
X107365738Y-89842969D01*
X107367532Y-89842084D01*
X107368683Y-89842545D01*
X107386075Y-89857078D01*
X107454793Y-89865704D01*
X107502411Y-89842918D01*
X107504405Y-89843072D01*
X107504937Y-89843611D01*
X107505671Y-89844709D01*
X107519463Y-89835493D01*
X107521459Y-89835362D01*
X107522570Y-89837025D01*
X107522237Y-89838267D01*
X107514890Y-89849262D01*
X107511123Y-89868199D01*
X107511123Y-91267801D01*
X107514890Y-91286738D01*
X107522237Y-91297733D01*
X107522368Y-91299729D01*
X107520705Y-91300840D01*
X107519463Y-91300507D01*
X107505671Y-91291291D01*
X107504508Y-91293031D01*
X107502714Y-91293916D01*
X107501563Y-91293455D01*
X107484171Y-91278922D01*
X107415453Y-91270296D01*
X107367835Y-91293082D01*
X107365841Y-91292928D01*
X107365309Y-91292389D01*
X107364575Y-91291291D01*
X107350783Y-91300507D01*
X107348787Y-91300638D01*
X107347676Y-91298975D01*
X107348009Y-91297733D01*
X107355356Y-91286738D01*
X107359123Y-91267801D01*
X107359123Y-89868199D01*
X107355356Y-89849262D01*
X107348009Y-89838267D01*
X107347878Y-89836271D01*
X107349541Y-89835160D01*
X107350783Y-89835493D01*
G37*
G36*
X102150783Y-89835493D02*
G01*
X102164575Y-89844709D01*
X102165738Y-89842969D01*
X102167532Y-89842084D01*
X102168683Y-89842545D01*
X102186075Y-89857078D01*
X102254793Y-89865704D01*
X102302411Y-89842918D01*
X102304405Y-89843072D01*
X102304937Y-89843611D01*
X102305671Y-89844709D01*
X102319463Y-89835493D01*
X102321459Y-89835362D01*
X102322570Y-89837025D01*
X102322237Y-89838267D01*
X102314890Y-89849262D01*
X102311123Y-89868199D01*
X102311123Y-91267801D01*
X102314890Y-91286738D01*
X102322237Y-91297733D01*
X102322368Y-91299729D01*
X102320705Y-91300840D01*
X102319463Y-91300507D01*
X102305671Y-91291291D01*
X102304508Y-91293031D01*
X102302714Y-91293916D01*
X102301563Y-91293455D01*
X102284171Y-91278922D01*
X102215453Y-91270296D01*
X102167835Y-91293082D01*
X102165841Y-91292928D01*
X102165309Y-91292389D01*
X102164575Y-91291291D01*
X102150783Y-91300507D01*
X102148787Y-91300638D01*
X102147676Y-91298975D01*
X102148009Y-91297733D01*
X102155356Y-91286738D01*
X102159123Y-91267801D01*
X102159123Y-89868199D01*
X102155356Y-89849262D01*
X102148009Y-89838267D01*
X102147878Y-89836271D01*
X102149541Y-89835160D01*
X102150783Y-89835493D01*
G37*
G36*
X104750783Y-82435493D02*
G01*
X104764575Y-82444709D01*
X104765738Y-82442969D01*
X104767532Y-82442084D01*
X104768683Y-82442545D01*
X104786075Y-82457078D01*
X104854793Y-82465704D01*
X104902411Y-82442918D01*
X104904405Y-82443072D01*
X104904937Y-82443611D01*
X104905671Y-82444709D01*
X104919463Y-82435493D01*
X104921459Y-82435362D01*
X104922570Y-82437025D01*
X104922237Y-82438267D01*
X104914890Y-82449262D01*
X104911123Y-82468199D01*
X104911123Y-83867801D01*
X104914890Y-83886738D01*
X104922237Y-83897733D01*
X104922368Y-83899729D01*
X104920705Y-83900840D01*
X104919463Y-83900507D01*
X104905671Y-83891291D01*
X104904508Y-83893031D01*
X104902714Y-83893916D01*
X104901563Y-83893455D01*
X104884171Y-83878922D01*
X104815453Y-83870296D01*
X104767835Y-83893082D01*
X104765841Y-83892928D01*
X104765309Y-83892389D01*
X104764575Y-83891291D01*
X104750783Y-83900507D01*
X104748787Y-83900638D01*
X104747676Y-83898975D01*
X104748009Y-83897733D01*
X104755356Y-83886738D01*
X104759123Y-83867801D01*
X104759123Y-82468199D01*
X104755356Y-82449262D01*
X104748009Y-82438267D01*
X104747878Y-82436271D01*
X104749541Y-82435160D01*
X104750783Y-82435493D01*
G37*
G36*
X108650783Y-82435493D02*
G01*
X108664575Y-82444709D01*
X108665738Y-82442969D01*
X108667532Y-82442084D01*
X108668683Y-82442545D01*
X108686075Y-82457078D01*
X108754793Y-82465704D01*
X108802411Y-82442918D01*
X108804405Y-82443072D01*
X108804937Y-82443611D01*
X108805671Y-82444709D01*
X108819463Y-82435493D01*
X108821459Y-82435362D01*
X108822570Y-82437025D01*
X108822237Y-82438267D01*
X108814890Y-82449262D01*
X108811123Y-82468199D01*
X108811123Y-83867801D01*
X108814890Y-83886738D01*
X108822237Y-83897733D01*
X108822368Y-83899729D01*
X108820705Y-83900840D01*
X108819463Y-83900507D01*
X108805671Y-83891291D01*
X108804508Y-83893031D01*
X108802714Y-83893916D01*
X108801563Y-83893455D01*
X108784171Y-83878922D01*
X108715453Y-83870296D01*
X108667835Y-83893082D01*
X108665841Y-83892928D01*
X108665309Y-83892389D01*
X108664575Y-83891291D01*
X108650783Y-83900507D01*
X108648787Y-83900638D01*
X108647676Y-83898975D01*
X108648009Y-83897733D01*
X108655356Y-83886738D01*
X108659123Y-83867801D01*
X108659123Y-82468199D01*
X108655356Y-82449262D01*
X108648009Y-82438267D01*
X108647878Y-82436271D01*
X108649541Y-82435160D01*
X108650783Y-82435493D01*
G37*
G36*
X103450783Y-82435493D02*
G01*
X103464575Y-82444709D01*
X103465738Y-82442969D01*
X103467532Y-82442084D01*
X103468683Y-82442545D01*
X103486075Y-82457078D01*
X103554793Y-82465704D01*
X103602411Y-82442918D01*
X103604405Y-82443072D01*
X103604937Y-82443611D01*
X103605671Y-82444709D01*
X103619463Y-82435493D01*
X103621459Y-82435362D01*
X103622570Y-82437025D01*
X103622237Y-82438267D01*
X103614890Y-82449262D01*
X103611123Y-82468199D01*
X103611123Y-83867801D01*
X103614890Y-83886738D01*
X103622237Y-83897733D01*
X103622368Y-83899729D01*
X103620705Y-83900840D01*
X103619463Y-83900507D01*
X103605671Y-83891291D01*
X103604508Y-83893031D01*
X103602714Y-83893916D01*
X103601563Y-83893455D01*
X103584171Y-83878922D01*
X103515453Y-83870296D01*
X103467835Y-83893082D01*
X103465841Y-83892928D01*
X103465309Y-83892389D01*
X103464575Y-83891291D01*
X103450783Y-83900507D01*
X103448787Y-83900638D01*
X103447676Y-83898975D01*
X103448009Y-83897733D01*
X103455356Y-83886738D01*
X103459123Y-83867801D01*
X103459123Y-82468199D01*
X103455356Y-82449262D01*
X103448009Y-82438267D01*
X103447878Y-82436271D01*
X103449541Y-82435160D01*
X103450783Y-82435493D01*
G37*
G36*
X104100783Y-82435493D02*
G01*
X104114575Y-82444709D01*
X104115738Y-82442969D01*
X104117532Y-82442084D01*
X104118683Y-82442545D01*
X104136075Y-82457078D01*
X104204793Y-82465704D01*
X104252411Y-82442918D01*
X104254405Y-82443072D01*
X104254937Y-82443611D01*
X104255671Y-82444709D01*
X104269463Y-82435493D01*
X104271459Y-82435362D01*
X104272570Y-82437025D01*
X104272237Y-82438267D01*
X104264890Y-82449262D01*
X104261123Y-82468199D01*
X104261123Y-83867801D01*
X104264890Y-83886738D01*
X104272237Y-83897733D01*
X104272368Y-83899729D01*
X104270705Y-83900840D01*
X104269463Y-83900507D01*
X104255671Y-83891291D01*
X104254508Y-83893031D01*
X104252714Y-83893916D01*
X104251563Y-83893455D01*
X104234171Y-83878922D01*
X104165453Y-83870296D01*
X104117835Y-83893082D01*
X104115841Y-83892928D01*
X104115309Y-83892389D01*
X104114575Y-83891291D01*
X104100783Y-83900507D01*
X104098787Y-83900638D01*
X104097676Y-83898975D01*
X104098009Y-83897733D01*
X104105356Y-83886738D01*
X104109123Y-83867801D01*
X104109123Y-82468199D01*
X104105356Y-82449262D01*
X104098009Y-82438267D01*
X104097878Y-82436271D01*
X104099541Y-82435160D01*
X104100783Y-82435493D01*
G37*
G36*
X107350783Y-82435493D02*
G01*
X107364575Y-82444709D01*
X107365738Y-82442969D01*
X107367532Y-82442084D01*
X107368683Y-82442545D01*
X107386075Y-82457078D01*
X107454793Y-82465704D01*
X107502411Y-82442918D01*
X107504405Y-82443072D01*
X107504937Y-82443611D01*
X107505671Y-82444709D01*
X107519463Y-82435493D01*
X107521459Y-82435362D01*
X107522570Y-82437025D01*
X107522237Y-82438267D01*
X107514890Y-82449262D01*
X107511123Y-82468199D01*
X107511123Y-83867801D01*
X107514890Y-83886738D01*
X107522237Y-83897733D01*
X107522368Y-83899729D01*
X107520705Y-83900840D01*
X107519463Y-83900507D01*
X107505671Y-83891291D01*
X107504508Y-83893031D01*
X107502714Y-83893916D01*
X107501563Y-83893455D01*
X107484171Y-83878922D01*
X107415453Y-83870296D01*
X107367835Y-83893082D01*
X107365841Y-83892928D01*
X107365309Y-83892389D01*
X107364575Y-83891291D01*
X107350783Y-83900507D01*
X107348787Y-83900638D01*
X107347676Y-83898975D01*
X107348009Y-83897733D01*
X107355356Y-83886738D01*
X107359123Y-83867801D01*
X107359123Y-82468199D01*
X107355356Y-82449262D01*
X107348009Y-82438267D01*
X107347878Y-82436271D01*
X107349541Y-82435160D01*
X107350783Y-82435493D01*
G37*
G36*
X108000783Y-82435493D02*
G01*
X108014575Y-82444709D01*
X108015738Y-82442969D01*
X108017532Y-82442084D01*
X108018683Y-82442545D01*
X108036075Y-82457078D01*
X108104793Y-82465704D01*
X108152411Y-82442918D01*
X108154405Y-82443072D01*
X108154937Y-82443611D01*
X108155671Y-82444709D01*
X108169463Y-82435493D01*
X108171459Y-82435362D01*
X108172570Y-82437025D01*
X108172237Y-82438267D01*
X108164890Y-82449262D01*
X108161123Y-82468199D01*
X108161123Y-83867801D01*
X108164890Y-83886738D01*
X108172237Y-83897733D01*
X108172368Y-83899729D01*
X108170705Y-83900840D01*
X108169463Y-83900507D01*
X108155671Y-83891291D01*
X108154508Y-83893031D01*
X108152714Y-83893916D01*
X108151563Y-83893455D01*
X108134171Y-83878922D01*
X108065453Y-83870296D01*
X108017835Y-83893082D01*
X108015841Y-83892928D01*
X108015309Y-83892389D01*
X108014575Y-83891291D01*
X108000783Y-83900507D01*
X107998787Y-83900638D01*
X107997676Y-83898975D01*
X107998009Y-83897733D01*
X108005356Y-83886738D01*
X108009123Y-83867801D01*
X108009123Y-82468199D01*
X108005356Y-82449262D01*
X107998009Y-82438267D01*
X107997878Y-82436271D01*
X107999541Y-82435160D01*
X108000783Y-82435493D01*
G37*
G36*
X106050783Y-82435493D02*
G01*
X106064575Y-82444709D01*
X106065738Y-82442969D01*
X106067532Y-82442084D01*
X106068683Y-82442545D01*
X106086075Y-82457078D01*
X106154793Y-82465704D01*
X106202411Y-82442918D01*
X106204405Y-82443072D01*
X106204937Y-82443611D01*
X106205671Y-82444709D01*
X106219463Y-82435493D01*
X106221459Y-82435362D01*
X106222570Y-82437025D01*
X106222237Y-82438267D01*
X106214890Y-82449262D01*
X106211123Y-82468199D01*
X106211123Y-83867801D01*
X106214890Y-83886738D01*
X106222237Y-83897733D01*
X106222368Y-83899729D01*
X106220705Y-83900840D01*
X106219463Y-83900507D01*
X106205671Y-83891291D01*
X106204508Y-83893031D01*
X106202714Y-83893916D01*
X106201563Y-83893455D01*
X106184171Y-83878922D01*
X106115453Y-83870296D01*
X106067835Y-83893082D01*
X106065841Y-83892928D01*
X106065309Y-83892389D01*
X106064575Y-83891291D01*
X106050783Y-83900507D01*
X106048787Y-83900638D01*
X106047676Y-83898975D01*
X106048009Y-83897733D01*
X106055356Y-83886738D01*
X106059123Y-83867801D01*
X106059123Y-82468199D01*
X106055356Y-82449262D01*
X106048009Y-82438267D01*
X106047878Y-82436271D01*
X106049541Y-82435160D01*
X106050783Y-82435493D01*
G37*
G36*
X102800783Y-82435493D02*
G01*
X102814575Y-82444709D01*
X102815738Y-82442969D01*
X102817532Y-82442084D01*
X102818683Y-82442545D01*
X102836075Y-82457078D01*
X102904793Y-82465704D01*
X102952411Y-82442918D01*
X102954405Y-82443072D01*
X102954937Y-82443611D01*
X102955671Y-82444709D01*
X102969463Y-82435493D01*
X102971459Y-82435362D01*
X102972570Y-82437025D01*
X102972237Y-82438267D01*
X102964890Y-82449262D01*
X102961123Y-82468199D01*
X102961123Y-83867801D01*
X102964890Y-83886738D01*
X102972237Y-83897733D01*
X102972368Y-83899729D01*
X102970705Y-83900840D01*
X102969463Y-83900507D01*
X102955671Y-83891291D01*
X102954508Y-83893031D01*
X102952714Y-83893916D01*
X102951563Y-83893455D01*
X102934171Y-83878922D01*
X102865453Y-83870296D01*
X102817835Y-83893082D01*
X102815841Y-83892928D01*
X102815309Y-83892389D01*
X102814575Y-83891291D01*
X102800783Y-83900507D01*
X102798787Y-83900638D01*
X102797676Y-83898975D01*
X102798009Y-83897733D01*
X102805356Y-83886738D01*
X102809123Y-83867801D01*
X102809123Y-82468199D01*
X102805356Y-82449262D01*
X102798009Y-82438267D01*
X102797878Y-82436271D01*
X102799541Y-82435160D01*
X102800783Y-82435493D01*
G37*
G36*
X105400783Y-82435493D02*
G01*
X105414575Y-82444709D01*
X105415738Y-82442969D01*
X105417532Y-82442084D01*
X105418683Y-82442545D01*
X105436075Y-82457078D01*
X105504793Y-82465704D01*
X105552411Y-82442918D01*
X105554405Y-82443072D01*
X105554937Y-82443611D01*
X105555671Y-82444709D01*
X105569463Y-82435493D01*
X105571459Y-82435362D01*
X105572570Y-82437025D01*
X105572237Y-82438267D01*
X105564890Y-82449262D01*
X105561123Y-82468199D01*
X105561123Y-83867801D01*
X105564890Y-83886738D01*
X105572237Y-83897733D01*
X105572368Y-83899729D01*
X105570705Y-83900840D01*
X105569463Y-83900507D01*
X105555671Y-83891291D01*
X105554508Y-83893031D01*
X105552714Y-83893916D01*
X105551563Y-83893455D01*
X105534171Y-83878922D01*
X105465453Y-83870296D01*
X105417835Y-83893082D01*
X105415841Y-83892928D01*
X105415309Y-83892389D01*
X105414575Y-83891291D01*
X105400783Y-83900507D01*
X105398787Y-83900638D01*
X105397676Y-83898975D01*
X105398009Y-83897733D01*
X105405356Y-83886738D01*
X105409123Y-83867801D01*
X105409123Y-82468199D01*
X105405356Y-82449262D01*
X105398009Y-82438267D01*
X105397878Y-82436271D01*
X105399541Y-82435160D01*
X105400783Y-82435493D01*
G37*
G36*
X106700783Y-82435493D02*
G01*
X106714575Y-82444709D01*
X106715738Y-82442969D01*
X106717532Y-82442084D01*
X106718683Y-82442545D01*
X106736075Y-82457078D01*
X106804793Y-82465704D01*
X106852411Y-82442918D01*
X106854405Y-82443072D01*
X106854937Y-82443611D01*
X106855671Y-82444709D01*
X106869463Y-82435493D01*
X106871459Y-82435362D01*
X106872570Y-82437025D01*
X106872237Y-82438267D01*
X106864890Y-82449262D01*
X106861123Y-82468199D01*
X106861123Y-83867801D01*
X106864890Y-83886738D01*
X106872237Y-83897733D01*
X106872368Y-83899729D01*
X106870705Y-83900840D01*
X106869463Y-83900507D01*
X106855671Y-83891291D01*
X106854508Y-83893031D01*
X106852714Y-83893916D01*
X106851563Y-83893455D01*
X106834171Y-83878922D01*
X106765453Y-83870296D01*
X106717835Y-83893082D01*
X106715841Y-83892928D01*
X106715309Y-83892389D01*
X106714575Y-83891291D01*
X106700783Y-83900507D01*
X106698787Y-83900638D01*
X106697676Y-83898975D01*
X106698009Y-83897733D01*
X106705356Y-83886738D01*
X106709123Y-83867801D01*
X106709123Y-82468199D01*
X106705356Y-82449262D01*
X106698009Y-82438267D01*
X106697878Y-82436271D01*
X106699541Y-82435160D01*
X106700783Y-82435493D01*
G37*
G36*
X102150783Y-82435493D02*
G01*
X102164575Y-82444709D01*
X102165738Y-82442969D01*
X102167532Y-82442084D01*
X102168683Y-82442545D01*
X102186075Y-82457078D01*
X102254793Y-82465704D01*
X102302411Y-82442918D01*
X102304405Y-82443072D01*
X102304937Y-82443611D01*
X102305671Y-82444709D01*
X102319463Y-82435493D01*
X102321459Y-82435362D01*
X102322570Y-82437025D01*
X102322237Y-82438267D01*
X102314890Y-82449262D01*
X102311123Y-82468199D01*
X102311123Y-83867801D01*
X102314890Y-83886738D01*
X102322237Y-83897733D01*
X102322368Y-83899729D01*
X102320705Y-83900840D01*
X102319463Y-83900507D01*
X102305671Y-83891291D01*
X102304508Y-83893031D01*
X102302714Y-83893916D01*
X102301563Y-83893455D01*
X102284171Y-83878922D01*
X102215453Y-83870296D01*
X102167835Y-83893082D01*
X102165841Y-83892928D01*
X102165309Y-83892389D01*
X102164575Y-83891291D01*
X102150783Y-83900507D01*
X102148787Y-83900638D01*
X102147676Y-83898975D01*
X102148009Y-83897733D01*
X102155356Y-83886738D01*
X102159123Y-83867801D01*
X102159123Y-82468199D01*
X102155356Y-82449262D01*
X102148009Y-82438267D01*
X102147878Y-82436271D01*
X102149541Y-82435160D01*
X102150783Y-82435493D01*
G37*
G36*
X62037693Y-59426460D02*
G01*
X62050425Y-59434967D01*
X62116789Y-59455747D01*
X62187589Y-59434958D01*
X62200307Y-59426460D01*
X62202303Y-59426329D01*
X62203414Y-59427992D01*
X62203081Y-59429234D01*
X62179476Y-59464561D01*
X62170000Y-59512199D01*
X62170000Y-60211801D01*
X62179476Y-60259439D01*
X62203081Y-60294766D01*
X62203212Y-60296762D01*
X62201549Y-60297873D01*
X62200307Y-60297540D01*
X62187575Y-60289033D01*
X62121211Y-60268253D01*
X62050411Y-60289042D01*
X62037693Y-60297540D01*
X62035697Y-60297671D01*
X62034586Y-60296008D01*
X62034919Y-60294766D01*
X62058524Y-60259439D01*
X62068000Y-60211801D01*
X62068000Y-59512199D01*
X62058524Y-59464561D01*
X62034919Y-59429234D01*
X62034788Y-59427238D01*
X62036451Y-59426127D01*
X62037693Y-59426460D01*
G37*
G36*
X62537693Y-59426460D02*
G01*
X62550425Y-59434967D01*
X62616789Y-59455747D01*
X62687589Y-59434958D01*
X62700307Y-59426460D01*
X62702303Y-59426329D01*
X62703414Y-59427992D01*
X62703081Y-59429234D01*
X62679476Y-59464561D01*
X62670000Y-59512199D01*
X62670000Y-60211801D01*
X62679476Y-60259439D01*
X62703081Y-60294766D01*
X62703212Y-60296762D01*
X62701549Y-60297873D01*
X62700307Y-60297540D01*
X62687575Y-60289033D01*
X62621211Y-60268253D01*
X62550411Y-60289042D01*
X62537693Y-60297540D01*
X62535697Y-60297671D01*
X62534586Y-60296008D01*
X62534919Y-60294766D01*
X62558524Y-60259439D01*
X62568000Y-60211801D01*
X62568000Y-59512199D01*
X62558524Y-59464561D01*
X62534919Y-59429234D01*
X62534788Y-59427238D01*
X62536451Y-59426127D01*
X62537693Y-59426460D01*
G37*
G36*
X63037693Y-59426460D02*
G01*
X63050425Y-59434967D01*
X63116789Y-59455747D01*
X63187589Y-59434958D01*
X63200307Y-59426460D01*
X63202303Y-59426329D01*
X63203414Y-59427992D01*
X63203081Y-59429234D01*
X63179476Y-59464561D01*
X63170000Y-59512199D01*
X63170000Y-60211801D01*
X63179476Y-60259439D01*
X63203081Y-60294766D01*
X63203212Y-60296762D01*
X63201549Y-60297873D01*
X63200307Y-60297540D01*
X63187575Y-60289033D01*
X63121211Y-60268253D01*
X63050411Y-60289042D01*
X63037693Y-60297540D01*
X63035697Y-60297671D01*
X63034586Y-60296008D01*
X63034919Y-60294766D01*
X63058524Y-60259439D01*
X63068000Y-60211801D01*
X63068000Y-59512199D01*
X63058524Y-59464561D01*
X63034919Y-59429234D01*
X63034788Y-59427238D01*
X63036451Y-59426127D01*
X63037693Y-59426460D01*
G37*
G36*
X64037693Y-59426460D02*
G01*
X64050425Y-59434967D01*
X64116789Y-59455747D01*
X64187589Y-59434958D01*
X64200307Y-59426460D01*
X64202303Y-59426329D01*
X64203414Y-59427992D01*
X64203081Y-59429234D01*
X64179476Y-59464561D01*
X64170000Y-59512199D01*
X64170000Y-60211801D01*
X64179476Y-60259439D01*
X64203081Y-60294766D01*
X64203212Y-60296762D01*
X64201549Y-60297873D01*
X64200307Y-60297540D01*
X64187575Y-60289033D01*
X64121211Y-60268253D01*
X64050411Y-60289042D01*
X64037693Y-60297540D01*
X64035697Y-60297671D01*
X64034586Y-60296008D01*
X64034919Y-60294766D01*
X64058524Y-60259439D01*
X64068000Y-60211801D01*
X64068000Y-59512199D01*
X64058524Y-59464561D01*
X64034919Y-59429234D01*
X64034788Y-59427238D01*
X64036451Y-59426127D01*
X64037693Y-59426460D01*
G37*
G36*
X63537693Y-59426460D02*
G01*
X63550425Y-59434967D01*
X63616789Y-59455747D01*
X63687589Y-59434958D01*
X63700307Y-59426460D01*
X63702303Y-59426329D01*
X63703414Y-59427992D01*
X63703081Y-59429234D01*
X63679476Y-59464561D01*
X63670000Y-59512199D01*
X63670000Y-60211801D01*
X63679476Y-60259439D01*
X63703081Y-60294766D01*
X63703212Y-60296762D01*
X63701549Y-60297873D01*
X63700307Y-60297540D01*
X63687575Y-60289033D01*
X63621211Y-60268253D01*
X63550411Y-60289042D01*
X63537693Y-60297540D01*
X63535697Y-60297671D01*
X63534586Y-60296008D01*
X63534919Y-60294766D01*
X63558524Y-60259439D01*
X63568000Y-60211801D01*
X63568000Y-59512199D01*
X63558524Y-59464561D01*
X63534919Y-59429234D01*
X63534788Y-59427238D01*
X63536451Y-59426127D01*
X63537693Y-59426460D01*
G37*
G36*
X61643521Y-59249563D02*
G01*
X61644194Y-59250889D01*
X61649659Y-59311963D01*
X61692146Y-59366657D01*
X61757619Y-59389756D01*
X61769053Y-59388939D01*
X61770852Y-59389813D01*
X61770995Y-59391808D01*
X61769586Y-59392896D01*
X61746561Y-59397476D01*
X61706347Y-59424347D01*
X61679476Y-59464561D01*
X61672760Y-59498323D01*
X61671441Y-59499827D01*
X61669479Y-59499437D01*
X61668806Y-59498111D01*
X61663341Y-59437037D01*
X61620854Y-59382343D01*
X61555381Y-59359244D01*
X61543947Y-59360061D01*
X61542148Y-59359187D01*
X61542005Y-59357192D01*
X61543414Y-59356104D01*
X61566439Y-59351524D01*
X61606653Y-59324653D01*
X61633524Y-59284439D01*
X61640240Y-59250677D01*
X61641559Y-59249173D01*
X61643521Y-59249563D01*
G37*
G36*
X64599896Y-59261414D02*
G01*
X64604476Y-59284439D01*
X64631347Y-59324653D01*
X64671561Y-59351524D01*
X64705323Y-59358240D01*
X64706827Y-59359559D01*
X64706437Y-59361521D01*
X64705111Y-59362194D01*
X64644037Y-59367659D01*
X64589343Y-59410146D01*
X64566244Y-59475619D01*
X64567061Y-59487053D01*
X64566187Y-59488852D01*
X64564192Y-59488995D01*
X64563104Y-59487586D01*
X64558524Y-59464561D01*
X64531653Y-59424347D01*
X64491439Y-59397476D01*
X64457677Y-59390760D01*
X64456173Y-59389441D01*
X64456563Y-59387479D01*
X64457889Y-59386806D01*
X64518963Y-59381341D01*
X64573657Y-59338854D01*
X64596756Y-59273381D01*
X64595939Y-59261947D01*
X64596813Y-59260148D01*
X64598808Y-59260005D01*
X64599896Y-59261414D01*
G37*
G36*
X60736234Y-58827919D02*
G01*
X60771561Y-58851524D01*
X60819199Y-58861000D01*
X61518801Y-58861000D01*
X61566439Y-58851524D01*
X61601766Y-58827919D01*
X61603762Y-58827788D01*
X61604873Y-58829451D01*
X61604540Y-58830693D01*
X61596033Y-58843425D01*
X61575253Y-58909789D01*
X61596042Y-58980589D01*
X61604540Y-58993307D01*
X61604671Y-58995303D01*
X61603008Y-58996414D01*
X61601766Y-58996081D01*
X61566439Y-58972476D01*
X61518801Y-58963000D01*
X60819199Y-58963000D01*
X60771561Y-58972476D01*
X60736234Y-58996081D01*
X60734238Y-58996212D01*
X60733127Y-58994549D01*
X60733460Y-58993307D01*
X60741967Y-58980575D01*
X60762747Y-58914211D01*
X60741958Y-58843411D01*
X60733460Y-58830693D01*
X60733329Y-58828697D01*
X60734992Y-58827586D01*
X60736234Y-58827919D01*
G37*
G36*
X64636234Y-58827919D02*
G01*
X64671561Y-58851524D01*
X64719199Y-58861000D01*
X65418801Y-58861000D01*
X65466439Y-58851524D01*
X65501766Y-58827919D01*
X65503762Y-58827788D01*
X65504873Y-58829451D01*
X65504540Y-58830693D01*
X65496033Y-58843425D01*
X65475253Y-58909789D01*
X65496042Y-58980589D01*
X65504540Y-58993307D01*
X65504671Y-58995303D01*
X65503008Y-58996414D01*
X65501766Y-58996081D01*
X65466439Y-58972476D01*
X65418801Y-58963000D01*
X64719199Y-58963000D01*
X64671561Y-58972476D01*
X64636234Y-58996081D01*
X64634238Y-58996212D01*
X64633127Y-58994549D01*
X64633460Y-58993307D01*
X64641967Y-58980575D01*
X64662747Y-58914211D01*
X64641958Y-58843411D01*
X64633460Y-58830693D01*
X64633329Y-58828697D01*
X64634992Y-58827586D01*
X64636234Y-58827919D01*
G37*
G36*
X60736234Y-58327919D02*
G01*
X60771561Y-58351524D01*
X60819199Y-58361000D01*
X61518801Y-58361000D01*
X61566439Y-58351524D01*
X61601766Y-58327919D01*
X61603762Y-58327788D01*
X61604873Y-58329451D01*
X61604540Y-58330693D01*
X61596033Y-58343425D01*
X61575253Y-58409789D01*
X61596042Y-58480589D01*
X61604540Y-58493307D01*
X61604671Y-58495303D01*
X61603008Y-58496414D01*
X61601766Y-58496081D01*
X61566439Y-58472476D01*
X61518801Y-58463000D01*
X60819199Y-58463000D01*
X60771561Y-58472476D01*
X60736234Y-58496081D01*
X60734238Y-58496212D01*
X60733127Y-58494549D01*
X60733460Y-58493307D01*
X60741967Y-58480575D01*
X60762747Y-58414211D01*
X60741958Y-58343411D01*
X60733460Y-58330693D01*
X60733329Y-58328697D01*
X60734992Y-58327586D01*
X60736234Y-58327919D01*
G37*
G36*
X64636234Y-58327919D02*
G01*
X64671561Y-58351524D01*
X64719199Y-58361000D01*
X65418801Y-58361000D01*
X65466439Y-58351524D01*
X65501766Y-58327919D01*
X65503762Y-58327788D01*
X65504873Y-58329451D01*
X65504540Y-58330693D01*
X65496033Y-58343425D01*
X65475253Y-58409789D01*
X65496042Y-58480589D01*
X65504540Y-58493307D01*
X65504671Y-58495303D01*
X65503008Y-58496414D01*
X65501766Y-58496081D01*
X65466439Y-58472476D01*
X65418801Y-58463000D01*
X64719199Y-58463000D01*
X64671561Y-58472476D01*
X64636234Y-58496081D01*
X64634238Y-58496212D01*
X64633127Y-58494549D01*
X64633460Y-58493307D01*
X64641967Y-58480575D01*
X64662747Y-58414211D01*
X64641958Y-58343411D01*
X64633460Y-58330693D01*
X64633329Y-58328697D01*
X64634992Y-58327586D01*
X64636234Y-58327919D01*
G37*
G36*
X60736234Y-57827919D02*
G01*
X60771561Y-57851524D01*
X60819199Y-57861000D01*
X61518801Y-57861000D01*
X61566439Y-57851524D01*
X61601766Y-57827919D01*
X61603762Y-57827788D01*
X61604873Y-57829451D01*
X61604540Y-57830693D01*
X61596033Y-57843425D01*
X61575253Y-57909789D01*
X61596042Y-57980589D01*
X61604540Y-57993307D01*
X61604671Y-57995303D01*
X61603008Y-57996414D01*
X61601766Y-57996081D01*
X61566439Y-57972476D01*
X61518801Y-57963000D01*
X60819199Y-57963000D01*
X60771561Y-57972476D01*
X60736234Y-57996081D01*
X60734238Y-57996212D01*
X60733127Y-57994549D01*
X60733460Y-57993307D01*
X60741967Y-57980575D01*
X60762747Y-57914211D01*
X60741958Y-57843411D01*
X60733460Y-57830693D01*
X60733329Y-57828697D01*
X60734992Y-57827586D01*
X60736234Y-57827919D01*
G37*
G36*
X64636234Y-57827919D02*
G01*
X64671561Y-57851524D01*
X64719199Y-57861000D01*
X65418801Y-57861000D01*
X65466439Y-57851524D01*
X65501766Y-57827919D01*
X65503762Y-57827788D01*
X65504873Y-57829451D01*
X65504540Y-57830693D01*
X65496033Y-57843425D01*
X65475253Y-57909789D01*
X65496042Y-57980589D01*
X65504540Y-57993307D01*
X65504671Y-57995303D01*
X65503008Y-57996414D01*
X65501766Y-57996081D01*
X65466439Y-57972476D01*
X65418801Y-57963000D01*
X64719199Y-57963000D01*
X64671561Y-57972476D01*
X64636234Y-57996081D01*
X64634238Y-57996212D01*
X64633127Y-57994549D01*
X64633460Y-57993307D01*
X64641967Y-57980575D01*
X64662747Y-57914211D01*
X64641958Y-57843411D01*
X64633460Y-57830693D01*
X64633329Y-57828697D01*
X64634992Y-57827586D01*
X64636234Y-57827919D01*
G37*
G36*
X60736234Y-57327919D02*
G01*
X60771561Y-57351524D01*
X60819199Y-57361000D01*
X61518801Y-57361000D01*
X61566439Y-57351524D01*
X61601766Y-57327919D01*
X61603762Y-57327788D01*
X61604873Y-57329451D01*
X61604540Y-57330693D01*
X61596033Y-57343425D01*
X61575253Y-57409789D01*
X61596042Y-57480589D01*
X61604540Y-57493307D01*
X61604671Y-57495303D01*
X61603008Y-57496414D01*
X61601766Y-57496081D01*
X61566439Y-57472476D01*
X61518801Y-57463000D01*
X60819199Y-57463000D01*
X60771561Y-57472476D01*
X60736234Y-57496081D01*
X60734238Y-57496212D01*
X60733127Y-57494549D01*
X60733460Y-57493307D01*
X60741967Y-57480575D01*
X60762747Y-57414211D01*
X60741958Y-57343411D01*
X60733460Y-57330693D01*
X60733329Y-57328697D01*
X60734992Y-57327586D01*
X60736234Y-57327919D01*
G37*
G36*
X64636234Y-57327919D02*
G01*
X64671561Y-57351524D01*
X64719199Y-57361000D01*
X65418801Y-57361000D01*
X65466439Y-57351524D01*
X65501766Y-57327919D01*
X65503762Y-57327788D01*
X65504873Y-57329451D01*
X65504540Y-57330693D01*
X65496033Y-57343425D01*
X65475253Y-57409789D01*
X65496042Y-57480589D01*
X65504540Y-57493307D01*
X65504671Y-57495303D01*
X65503008Y-57496414D01*
X65501766Y-57496081D01*
X65466439Y-57472476D01*
X65418801Y-57463000D01*
X64719199Y-57463000D01*
X64671561Y-57472476D01*
X64636234Y-57496081D01*
X64634238Y-57496212D01*
X64633127Y-57494549D01*
X64633460Y-57493307D01*
X64641967Y-57480575D01*
X64662747Y-57414211D01*
X64641958Y-57343411D01*
X64633460Y-57330693D01*
X64633329Y-57328697D01*
X64634992Y-57327586D01*
X64636234Y-57327919D01*
G37*
G36*
X60736234Y-56827919D02*
G01*
X60771561Y-56851524D01*
X60819199Y-56861000D01*
X61518801Y-56861000D01*
X61566439Y-56851524D01*
X61601766Y-56827919D01*
X61603762Y-56827788D01*
X61604873Y-56829451D01*
X61604540Y-56830693D01*
X61596033Y-56843425D01*
X61575253Y-56909789D01*
X61596042Y-56980589D01*
X61604540Y-56993307D01*
X61604671Y-56995303D01*
X61603008Y-56996414D01*
X61601766Y-56996081D01*
X61566439Y-56972476D01*
X61518801Y-56963000D01*
X60819199Y-56963000D01*
X60771561Y-56972476D01*
X60736234Y-56996081D01*
X60734238Y-56996212D01*
X60733127Y-56994549D01*
X60733460Y-56993307D01*
X60741967Y-56980575D01*
X60762747Y-56914211D01*
X60741958Y-56843411D01*
X60733460Y-56830693D01*
X60733329Y-56828697D01*
X60734992Y-56827586D01*
X60736234Y-56827919D01*
G37*
G36*
X64636234Y-56827919D02*
G01*
X64671561Y-56851524D01*
X64719199Y-56861000D01*
X65418801Y-56861000D01*
X65466439Y-56851524D01*
X65501766Y-56827919D01*
X65503762Y-56827788D01*
X65504873Y-56829451D01*
X65504540Y-56830693D01*
X65496033Y-56843425D01*
X65475253Y-56909789D01*
X65496042Y-56980589D01*
X65504540Y-56993307D01*
X65504671Y-56995303D01*
X65503008Y-56996414D01*
X65501766Y-56996081D01*
X65466439Y-56972476D01*
X65418801Y-56963000D01*
X64719199Y-56963000D01*
X64671561Y-56972476D01*
X64636234Y-56996081D01*
X64634238Y-56996212D01*
X64633127Y-56994549D01*
X64633460Y-56993307D01*
X64641967Y-56980575D01*
X64662747Y-56914211D01*
X64641958Y-56843411D01*
X64633460Y-56830693D01*
X64633329Y-56828697D01*
X64634992Y-56827586D01*
X64636234Y-56827919D01*
G37*
G36*
X64568521Y-56324563D02*
G01*
X64569194Y-56325889D01*
X64574659Y-56386963D01*
X64617146Y-56441657D01*
X64682619Y-56464756D01*
X64694053Y-56463939D01*
X64695852Y-56464813D01*
X64695995Y-56466808D01*
X64694586Y-56467896D01*
X64671561Y-56472476D01*
X64631347Y-56499347D01*
X64604476Y-56539561D01*
X64597760Y-56573323D01*
X64596441Y-56574827D01*
X64594479Y-56574437D01*
X64593806Y-56573111D01*
X64588341Y-56512037D01*
X64545854Y-56457343D01*
X64480381Y-56434244D01*
X64468947Y-56435061D01*
X64467148Y-56434187D01*
X64467005Y-56432192D01*
X64468414Y-56431104D01*
X64491439Y-56426524D01*
X64531653Y-56399653D01*
X64558524Y-56359439D01*
X64565240Y-56325677D01*
X64566559Y-56324173D01*
X64568521Y-56324563D01*
G37*
G36*
X61674896Y-56336414D02*
G01*
X61679476Y-56359439D01*
X61706347Y-56399653D01*
X61746561Y-56426524D01*
X61780323Y-56433240D01*
X61781827Y-56434559D01*
X61781437Y-56436521D01*
X61780111Y-56437194D01*
X61719037Y-56442659D01*
X61664343Y-56485146D01*
X61641244Y-56550619D01*
X61642061Y-56562053D01*
X61641187Y-56563852D01*
X61639192Y-56563995D01*
X61638104Y-56562586D01*
X61633524Y-56539561D01*
X61606653Y-56499347D01*
X61566439Y-56472476D01*
X61532677Y-56465760D01*
X61531173Y-56464441D01*
X61531563Y-56462479D01*
X61532889Y-56461806D01*
X61593963Y-56456341D01*
X61648657Y-56413854D01*
X61671756Y-56348381D01*
X61670939Y-56336947D01*
X61671813Y-56335148D01*
X61673808Y-56335005D01*
X61674896Y-56336414D01*
G37*
G36*
X64037693Y-55526460D02*
G01*
X64050425Y-55534967D01*
X64116789Y-55555747D01*
X64187589Y-55534958D01*
X64200307Y-55526460D01*
X64202303Y-55526329D01*
X64203414Y-55527992D01*
X64203081Y-55529234D01*
X64179476Y-55564561D01*
X64170000Y-55612199D01*
X64170000Y-56311801D01*
X64179476Y-56359439D01*
X64203081Y-56394766D01*
X64203212Y-56396762D01*
X64201549Y-56397873D01*
X64200307Y-56397540D01*
X64187575Y-56389033D01*
X64121211Y-56368253D01*
X64050411Y-56389042D01*
X64037693Y-56397540D01*
X64035697Y-56397671D01*
X64034586Y-56396008D01*
X64034919Y-56394766D01*
X64058524Y-56359439D01*
X64068000Y-56311801D01*
X64068000Y-55612199D01*
X64058524Y-55564561D01*
X64034919Y-55529234D01*
X64034788Y-55527238D01*
X64036451Y-55526127D01*
X64037693Y-55526460D01*
G37*
G36*
X62037693Y-55526460D02*
G01*
X62050425Y-55534967D01*
X62116789Y-55555747D01*
X62187589Y-55534958D01*
X62200307Y-55526460D01*
X62202303Y-55526329D01*
X62203414Y-55527992D01*
X62203081Y-55529234D01*
X62179476Y-55564561D01*
X62170000Y-55612199D01*
X62170000Y-56311801D01*
X62179476Y-56359439D01*
X62203081Y-56394766D01*
X62203212Y-56396762D01*
X62201549Y-56397873D01*
X62200307Y-56397540D01*
X62187575Y-56389033D01*
X62121211Y-56368253D01*
X62050411Y-56389042D01*
X62037693Y-56397540D01*
X62035697Y-56397671D01*
X62034586Y-56396008D01*
X62034919Y-56394766D01*
X62058524Y-56359439D01*
X62068000Y-56311801D01*
X62068000Y-55612199D01*
X62058524Y-55564561D01*
X62034919Y-55529234D01*
X62034788Y-55527238D01*
X62036451Y-55526127D01*
X62037693Y-55526460D01*
G37*
G36*
X63537693Y-55526460D02*
G01*
X63550425Y-55534967D01*
X63616789Y-55555747D01*
X63687589Y-55534958D01*
X63700307Y-55526460D01*
X63702303Y-55526329D01*
X63703414Y-55527992D01*
X63703081Y-55529234D01*
X63679476Y-55564561D01*
X63670000Y-55612199D01*
X63670000Y-56311801D01*
X63679476Y-56359439D01*
X63703081Y-56394766D01*
X63703212Y-56396762D01*
X63701549Y-56397873D01*
X63700307Y-56397540D01*
X63687575Y-56389033D01*
X63621211Y-56368253D01*
X63550411Y-56389042D01*
X63537693Y-56397540D01*
X63535697Y-56397671D01*
X63534586Y-56396008D01*
X63534919Y-56394766D01*
X63558524Y-56359439D01*
X63568000Y-56311801D01*
X63568000Y-55612199D01*
X63558524Y-55564561D01*
X63534919Y-55529234D01*
X63534788Y-55527238D01*
X63536451Y-55526127D01*
X63537693Y-55526460D01*
G37*
G36*
X63037693Y-55526460D02*
G01*
X63050425Y-55534967D01*
X63116789Y-55555747D01*
X63187589Y-55534958D01*
X63200307Y-55526460D01*
X63202303Y-55526329D01*
X63203414Y-55527992D01*
X63203081Y-55529234D01*
X63179476Y-55564561D01*
X63170000Y-55612199D01*
X63170000Y-56311801D01*
X63179476Y-56359439D01*
X63203081Y-56394766D01*
X63203212Y-56396762D01*
X63201549Y-56397873D01*
X63200307Y-56397540D01*
X63187575Y-56389033D01*
X63121211Y-56368253D01*
X63050411Y-56389042D01*
X63037693Y-56397540D01*
X63035697Y-56397671D01*
X63034586Y-56396008D01*
X63034919Y-56394766D01*
X63058524Y-56359439D01*
X63068000Y-56311801D01*
X63068000Y-55612199D01*
X63058524Y-55564561D01*
X63034919Y-55529234D01*
X63034788Y-55527238D01*
X63036451Y-55526127D01*
X63037693Y-55526460D01*
G37*
G36*
X62537693Y-55526460D02*
G01*
X62550425Y-55534967D01*
X62616789Y-55555747D01*
X62687589Y-55534958D01*
X62700307Y-55526460D01*
X62702303Y-55526329D01*
X62703414Y-55527992D01*
X62703081Y-55529234D01*
X62679476Y-55564561D01*
X62670000Y-55612199D01*
X62670000Y-56311801D01*
X62679476Y-56359439D01*
X62703081Y-56394766D01*
X62703212Y-56396762D01*
X62701549Y-56397873D01*
X62700307Y-56397540D01*
X62687575Y-56389033D01*
X62621211Y-56368253D01*
X62550411Y-56389042D01*
X62537693Y-56397540D01*
X62535697Y-56397671D01*
X62534586Y-56396008D01*
X62534919Y-56394766D01*
X62558524Y-56359439D01*
X62568000Y-56311801D01*
X62568000Y-55612199D01*
X62558524Y-55564561D01*
X62534919Y-55529234D01*
X62534788Y-55527238D01*
X62536451Y-55526127D01*
X62537693Y-55526460D01*
G37*
M02*
